<svg width="800" height="800" xmlns="http://www.w3.org/2000/svg" font-family="Arial, sans-serif">
<rect width="100%" height="100%" fill="#ffffff"/>
<line x1="50.0" y1="50" x2="50.0" y2="350" stroke="#eeeeee" stroke-width="1"/>
<line x1="120.0" y1="50" x2="120.0" y2="350" stroke="#eeeeee" stroke-width="1"/>
<line x1="190.0" y1="50" x2="190.0" y2="350" stroke="#eeeeee" stroke-width="1"/>
<line x1="260.0" y1="50" x2="260.0" y2="350" stroke="#eeeeee" stroke-width="1"/>
<line x1="330.0" y1="50" x2="330.0" y2="350" stroke="#eeeeee" stroke-width="1"/>
<line x1="400.0" y1="50" x2="400.0" y2="350" stroke="#eeeeee" stroke-width="1"/>
<line x1="470.00000000000006" y1="50" x2="470.00000000000006" y2="350" stroke="#eeeeee" stroke-width="1"/>
<line x1="540.0" y1="50" x2="540.0" y2="350" stroke="#eeeeee" stroke-width="1"/>
<line x1="610.0" y1="50" x2="610.0" y2="350" stroke="#eeeeee" stroke-width="1"/>
<line x1="680.0" y1="50" x2="680.0" y2="350" stroke="#eeeeee" stroke-width="1"/>
<line x1="750.0" y1="50" x2="750.0" y2="350" stroke="#eeeeee" stroke-width="1"/>
<text x="400.0" y="30" text-anchor="middle" font-weight="bold" font-size="16">Frequency Response (Magnitude)</text>
<line x1="50" y1="350" x2="750" y2="350" stroke="black" stroke-width="2"/>
<line x1="50" y1="50" x2="50" y2="350" stroke="black" stroke-width="2"/>
<text x="50.0" y="370" text-anchor="middle">0.0</text>
<line x1="50.0" y1="50" x2="50.0" y2="350" stroke="#ccc" stroke-dasharray="2,2"/>
<text x="190.0" y="370" text-anchor="middle">0.1</text>
<line x1="190.0" y1="50" x2="190.0" y2="350" stroke="#ccc" stroke-dasharray="2,2"/>
<text x="330.0" y="370" text-anchor="middle">0.2</text>
<line x1="330.0" y1="50" x2="330.0" y2="350" stroke="#ccc" stroke-dasharray="2,2"/>
<text x="470.0" y="370" text-anchor="middle">0.3</text>
<line x1="470.0" y1="50" x2="470.0" y2="350" stroke="#ccc" stroke-dasharray="2,2"/>
<text x="610.0" y="370" text-anchor="middle">0.4</text>
<line x1="610.0" y1="50" x2="610.0" y2="350" stroke="#ccc" stroke-dasharray="2,2"/>
<text x="750.0" y="370" text-anchor="middle">0.5</text>
<line x1="750.0" y1="50" x2="750.0" y2="350" stroke="#ccc" stroke-dasharray="2,2"/>
<path d="M 50.0 137.8679 L 51.4 137.86895 L 52.8 137.87210000000002 L 54.2 137.87735 L 55.6 137.8847 L 57.0 137.89415 L 58.4 137.9057 L 59.8 137.9192 L 61.2 137.93495000000001 L 62.6 137.9528 L 64.0 137.9726 L 65.4 137.99464999999998 L 66.8 138.01865 L 68.2 138.0449 L 69.6 138.07309999999998 L 71.0 138.10354999999998 L 72.4 138.13594999999998 L 73.8 138.17045000000002 L 75.2 138.20705 L 76.6 138.24575000000002 L 78.0 138.28654999999998 L 79.4 138.32944999999998 L 80.8 138.37445000000002 L 82.2 138.42155 L 83.6 138.47074999999998 L 85.0 138.52190000000002 L 86.4 138.5753 L 87.8 138.63065 L 89.2 138.68825 L 90.6 138.7478 L 92.0 138.80945 L 93.4 138.8732 L 94.80000000000001 138.93905 L 96.2 139.007 L 97.6 139.07705 L 99.0 139.14905000000002 L 100.4 139.2233 L 101.8 139.2995 L 103.19999999999999 139.37795 L 104.6 139.45835 L 106.0 139.54085 L 107.4 139.6253 L 108.80000000000001 139.712 L 110.19999999999999 139.80065 L 111.6 139.89155 L 113.0 139.9844 L 114.4 140.07935 L 115.8 140.1764 L 117.2 140.27540000000002 L 118.60000000000001 140.37650000000002 L 120.0 140.47985 L 121.39999999999999 140.58515 L 122.8 140.69240000000002 L 124.2 140.8019 L 125.6 140.91335 L 127.0 141.0269 L 128.4 141.14255 L 129.8 141.26014999999998 L 131.2 141.37985 L 132.6 141.50165 L 134.0 141.62555 L 135.39999999999998 141.75140000000002 L 136.8 141.8795 L 138.2 142.0094 L 139.60000000000002 142.14155 L 141.0 142.27564999999998 L 142.4 142.41185000000002 L 143.8 142.55 L 145.2 142.69025 L 146.60000000000002 142.83259999999999 L 148.0 142.97689999999997 L 149.39999999999998 143.1233 L 150.8 143.2718 L 152.2 143.42225 L 153.6 143.57479999999998 L 155.0 143.7293 L 156.39999999999998 143.88590000000002 L 157.8 144.0446 L 159.2 144.20524999999998 L 160.6 144.36785 L 162.0 144.5327 L 163.4 144.69935 L 164.8 144.8681 L 166.2 145.03895 L 167.60000000000002 145.21175 L 169.0 145.38664999999997 L 170.39999999999998 145.56349999999998 L 171.8 145.7423 L 173.2 145.9232 L 174.6 146.1062 L 176.0 146.291 L 177.39999999999998 146.47805 L 178.8 146.6669 L 180.2 146.85784999999998 L 181.6 147.05075 L 183.0 147.24575 L 184.4 147.4427 L 185.8 147.64175 L 187.20000000000002 147.8426 L 188.6 148.04555 L 190.0 148.25045 L 191.4 148.45745 L 192.79999999999998 148.66639999999998 L 194.2 148.8773 L 195.6 149.09015 L 197.0 149.30495000000002 L 198.4 149.52185 L 199.79999999999998 149.7407 L 201.2 149.9615 L 202.6 150.18425 L 204.0 150.4091 L 205.4 150.63575 L 206.8 150.86450000000002 L 208.20000000000002 151.09505 L 209.6 151.32770000000002 L 211.0 151.5623 L 212.4 151.79885 L 213.8 152.03735 L 215.2 152.27779999999998 L 216.6 152.5202 L 218.0 152.76455 L 219.4 153.01085 L 220.79999999999998 153.2591 L 222.2 153.5093 L 223.6 153.76145 L 225.0 154.0154 L 226.4 154.27145000000002 L 227.8 154.5293 L 229.20000000000002 154.78925 L 230.6 155.051 L 232.0 155.31470000000002 L 233.4 155.58035 L 234.8 155.84795000000003 L 236.20000000000002 156.11735 L 237.60000000000002 156.3887 L 239.0 156.66199999999998 L 240.4 156.93725 L 241.8 157.21429999999998 L 243.20000000000002 157.4933 L 244.60000000000002 157.77425000000002 L 246.00000000000003 158.05700000000002 L 247.39999999999998 158.3417 L 248.79999999999998 158.62834999999998 L 250.2 158.91680000000002 L 251.6 159.2072 L 253.0 159.4994 L 254.39999999999998 159.79354999999998 L 255.79999999999998 160.0895 L 257.2 160.3874 L 258.6 160.6871 L 260.0 160.98874999999998 L 261.4 161.2922 L 262.79999999999995 161.5976 L 264.2 161.9048 L 265.6 162.2138 L 267.0 162.52474999999998 L 268.4 162.8375 L 269.8 163.1522 L 271.2 163.46855 L 272.6 163.78685 L 274.0 164.10709999999997 L 275.4 164.429 L 276.8 164.75285 L 278.20000000000005 165.07850000000002 L 279.6 165.40595000000002 L 281.0 165.7352 L 282.4 166.06625000000003 L 283.8 166.39925 L 285.20000000000005 166.7339 L 286.6 167.0705 L 288.0 167.40890000000002 L 289.4 167.74895 L 290.79999999999995 168.09095 L 292.2 168.4346 L 293.6 168.7802 L 295.0 169.12745 L 296.4 169.47665 L 297.79999999999995 169.82750000000001 L 299.2 170.18015 L 300.6 170.53459999999998 L 302.0 170.89085 L 303.4 171.24875 L 304.79999999999995 171.6086 L 306.2 171.9701 L 307.6 172.33325 L 309.0 172.69835 L 310.4 173.06510000000003 L 311.8 173.43365 L 313.2 173.80384999999998 L 314.6 174.17585 L 316.0 174.54964999999999 L 317.4 174.92510000000001 L 318.8 175.3022 L 320.2 175.68110000000001 L 321.6 176.06179999999998 L 323.0 176.44415 L 324.40000000000003 176.82815 L 325.8 177.21395 L 327.2 177.6014 L 328.6 177.99065 L 330.0 178.38155 L 331.40000000000003 178.7741 L 332.8 179.1683 L 334.20000000000005 179.56429999999997 L 335.59999999999997 179.96195 L 337.0 180.36125 L 338.4 180.7622 L 339.8 181.16495 L 341.2 181.5692 L 342.59999999999997 181.97525 L 344.0 182.3828 L 345.4 182.79215 L 346.8 183.203 L 348.2 183.61565 L 349.59999999999997 184.02994999999999 L 351.0 184.44574999999998 L 352.4 184.8632 L 353.8 185.28245 L 355.2 185.70319999999998 L 356.6 186.12560000000002 L 358.0 186.54950000000002 L 359.4 186.9752 L 360.8 187.4024 L 362.2 187.83125 L 363.6 188.2616 L 365.0 188.69359999999998 L 366.40000000000003 189.12725 L 367.8 189.5624 L 369.2 189.9992 L 370.6 190.43765 L 372.0 190.8776 L 373.40000000000003 191.31905 L 374.8 191.76215000000002 L 376.20000000000005 192.20675 L 377.6 192.653 L 379.0 193.10075 L 380.4 193.55 L 381.8 194.0009 L 383.2 194.45315 L 384.59999999999997 194.90705000000003 L 386.0 195.36260000000001 L 387.4 195.8195 L 388.8 196.27805 L 390.2 196.73795 L 391.59999999999997 197.1995 L 393.0 197.66255 L 394.4 198.1271 L 395.8 198.59315 L 397.2 199.0607 L 398.6 199.5296 L 400.0 200.00015 L 401.4 200.47220000000002 L 402.8 200.94559999999998 L 404.2 201.4205 L 405.6 201.89690000000002 L 407.0 202.3748 L 408.40000000000003 202.85405 L 409.8 203.3348 L 411.2 203.81705 L 412.6 204.30065 L 414.0 204.78575 L 415.40000000000003 205.27235 L 416.8 205.7603 L 418.2 206.24960000000002 L 419.6 206.7404 L 421.0 207.23255 L 422.40000000000003 207.7262 L 423.8 208.22119999999998 L 425.20000000000005 208.7177 L 426.6 209.21555 L 428.0 209.71474999999998 L 429.40000000000003 210.2153 L 430.8 210.7172 L 432.20000000000005 211.2206 L 433.6 211.72535000000002 L 435.00000000000006 212.2313 L 436.40000000000003 212.73875 L 437.8 213.24755 L 439.20000000000005 213.7577 L 440.6 214.2692 L 442.00000000000006 214.78205 L 443.40000000000003 215.29625000000001 L 444.79999999999995 215.81165000000001 L 446.2 216.3284 L 447.59999999999997 216.84665 L 448.99999999999994 217.36610000000002 L 450.4 217.88675 L 451.79999999999995 218.4089 L 453.2 218.93224999999998 L 454.59999999999997 219.45680000000002 L 456.0 219.98284999999998 L 457.4 220.50995 L 458.79999999999995 221.03855 L 460.2 221.56834999999998 L 461.59999999999997 222.09935000000002 L 463.0 222.63155 L 464.4 223.16525000000001 L 465.79999999999995 223.7 L 467.2 224.2361 L 468.59999999999997 224.77339999999998 L 470.0 225.31189999999998 L 471.4 225.85160000000002 L 472.8 226.39265 L 474.2 226.9349 L 475.59999999999997 227.47820000000002 L 477.0 228.02285 L 478.4 228.5687 L 479.8 229.11575 L 481.2 229.664 L 482.6 230.21345000000002 L 484.0 230.76409999999998 L 485.4 231.3158 L 486.8 231.8687 L 488.2 232.4228 L 489.6 232.97809999999998 L 491.0 233.5346 L 492.4 234.09215 L 493.8 234.6509 L 495.2 235.2107 L 496.6 235.7717 L 498.0 236.33390000000003 L 499.40000000000003 236.89715 L 500.8 237.46145 L 502.2 238.02695 L 503.6 238.5935 L 505.0 239.16125 L 506.40000000000003 239.7299 L 507.8 240.29989999999998 L 509.20000000000005 240.8708 L 510.6 241.44275 L 512.0 242.0159 L 513.4000000000001 242.5901 L 514.8 243.1652 L 516.2 243.7415 L 517.6 244.31885 L 519.0 244.89724999999999 L 520.4000000000001 245.47655 L 521.8 246.05705 L 523.2 246.63844999999998 L 524.6 247.22105 L 526.0 247.80455 L 527.4000000000001 248.38895000000002 L 528.8 248.97455000000002 L 530.2 249.56105 L 531.5999999999999 250.14845000000003 L 533.0 250.73705 L 534.4 251.3264 L 535.8 251.9168 L 537.2 252.50825 L 538.5999999999999 253.1006 L 540.0 253.694 L 541.4 254.2883 L 542.8 254.88350000000003 L 544.2 255.4796 L 545.5999999999999 256.07675 L 547.0 256.67465 L 548.4 257.2736 L 549.8 257.87345 L 551.2 258.4742 L 552.5999999999999 259.07585 L 554.0 259.67855 L 555.4 260.282 L 556.8 260.88635 L 558.2 261.49145 L 559.5999999999999 262.0976 L 561.0 262.7045 L 562.4 263.3123 L 563.8 263.921 L 565.2 264.5306 L 566.6 265.14095 L 568.0 265.7522 L 569.4 266.3642 L 570.8 266.9771 L 572.2 267.59075 L 573.6 268.2053 L 575.0 268.8206 L 576.4 269.43665 L 577.8 270.0536 L 579.2 270.6713 L 580.6 271.28975 L 582.0 271.90895 L 583.4 272.52905 L 584.8 273.14975 L 586.2 273.77135 L 587.6 274.39355 L 589.0 275.01665 L 590.4 275.6405 L 591.8000000000001 276.26495 L 593.2 276.89015 L 594.6 277.5161 L 596.0 278.1428 L 597.4 278.77025000000003 L 598.8000000000001 279.3983 L 600.2 280.0271 L 601.6 280.65665 L 603.0 281.28679999999997 L 604.4 281.91755 L 605.8000000000001 282.54905 L 607.2 283.18129999999996 L 608.6 283.81415 L 610.0 284.44759999999997 L 611.4 285.0818 L 612.8000000000001 285.71659999999997 L 614.2 286.352 L 615.6 286.988 L 617.0 287.6246 L 618.4000000000001 288.26195 L 619.8 288.89975 L 621.1999999999999 289.5383 L 622.5999999999999 290.17745 L 624.0 290.81705 L 625.4 291.4574 L 626.8 292.0982 L 628.1999999999999 292.7396 L 629.6 293.3816 L 631.0 294.02405 L 632.4 294.66724999999997 L 633.8 295.3109 L 635.1999999999999 295.955 L 636.6 296.5997 L 638.0 297.245 L 639.4 297.89075 L 640.8 298.53695 L 642.1999999999999 299.18375000000003 L 643.6 299.831 L 645.0 300.47884999999997 L 646.4 301.127 L 647.8 301.77575 L 649.1999999999999 302.42495 L 650.6 303.07475 L 652.0 303.72485 L 653.4 304.37555 L 654.8 305.02655 L 656.2 305.678 L 657.6 306.33005 L 659.0 306.9824 L 660.4 307.6352 L 661.8 308.2883 L 663.2 308.942 L 664.6 309.596 L 666.0 310.25045 L 667.4 310.9052 L 668.8 311.56055 L 670.2 312.21605 L 671.6 312.872 L 673.0 313.5284 L 674.4 314.1851 L 675.8000000000001 314.8421 L 677.2 315.4994 L 678.6 316.15715 L 680.0 316.8152 L 681.4 317.4737 L 682.8000000000001 318.13235 L 684.2 318.79145 L 685.6 319.4507 L 687.0 320.1104 L 688.4 320.77025 L 689.8000000000001 321.43055 L 691.2 322.091 L 692.6 322.75175 L 694.0 323.4128 L 695.4 324.07415 L 696.8000000000001 324.73565 L 698.2 325.39745 L 699.6 326.05955 L 701.0 326.72180000000003 L 702.4000000000001 327.38435 L 703.8000000000001 328.04705 L 705.2 328.71005 L 706.5999999999999 329.3732 L 708.0 330.03665 L 709.4 330.70025 L 710.8 331.364 L 712.1999999999999 332.0279 L 713.6 332.69195 L 715.0 333.3563 L 716.4 334.0208 L 717.8 334.68545 L 719.1999999999999 335.3501 L 720.6 336.01505 L 722.0 336.68015 L 723.4 337.34525 L 724.8 338.01065 L 726.1999999999999 338.67605 L 727.6 339.3416 L 729.0 340.00715 L 730.4 340.673 L 731.8 341.33885 L 733.1999999999999 342.0047 L 734.6 342.6707 L 736.0 343.3367 L 737.4 344.00285 L 738.8 344.66915 L 740.2 345.3353 L 741.6 346.0016 L 743.0 346.6679 L 744.4 347.33435 L 745.8 348.0008 L 747.2 348.6671 L 748.6 349.33355" fill="none" stroke="blue" stroke-width="2"/>
<path d="M 50.0 350.0 L 51.4 349.33355 L 52.8 348.6671 L 54.2 348.0008 L 55.6 347.33435 L 57.0 346.6679 L 58.4 346.0016 L 59.8 345.3353 L 61.2 344.66915 L 62.6 344.00285 L 64.0 343.3367 L 65.4 342.6707 L 66.8 342.0047 L 68.2 341.33885 L 69.6 340.673 L 71.0 340.00715 L 72.4 339.3416 L 73.8 338.67605 L 75.2 338.01065 L 76.6 337.34525 L 78.0 336.68015 L 79.4 336.01505 L 80.8 335.3501 L 82.2 334.68545 L 83.6 334.0208 L 85.0 333.3563 L 86.4 332.69195 L 87.8 332.0279 L 89.2 331.364 L 90.6 330.70025 L 92.0 330.03665 L 93.4 329.3732 L 94.80000000000001 328.71005 L 96.2 328.04705 L 97.6 327.38435 L 99.0 326.72180000000003 L 100.4 326.05955 L 101.8 325.39745 L 103.19999999999999 324.73565 L 104.6 324.07415 L 106.0 323.4128 L 107.4 322.75175 L 108.80000000000001 322.091 L 110.19999999999999 321.43055 L 111.6 320.77025 L 113.0 320.1104 L 114.4 319.4507 L 115.8 318.79145 L 117.2 318.13235 L 118.60000000000001 317.4737 L 120.0 316.8152 L 121.39999999999999 316.15715 L 122.8 315.4994 L 124.2 314.8421 L 125.6 314.1851 L 127.0 313.5284 L 128.4 312.872 L 129.8 312.21605 L 131.2 311.56055 L 132.6 310.9052 L 134.0 310.25045 L 135.39999999999998 309.596 L 136.8 308.942 L 138.2 308.2883 L 139.60000000000002 307.6352 L 141.0 306.9824 L 142.4 306.33005 L 143.8 305.678 L 145.2 305.02655 L 146.60000000000002 304.37555 L 148.0 303.72485 L 149.39999999999998 303.07475 L 150.8 302.42495 L 152.2 301.77575 L 153.6 301.127 L 155.0 300.47884999999997 L 156.39999999999998 299.831 L 157.8 299.18375000000003 L 159.2 298.53695 L 160.6 297.89075 L 162.0 297.245 L 163.4 296.5997 L 164.8 295.955 L 166.2 295.3109 L 167.60000000000002 294.66724999999997 L 169.0 294.02405 L 170.39999999999998 293.3816 L 171.8 292.7396 L 173.2 292.0982 L 174.6 291.4574 L 176.0 290.81705 L 177.39999999999998 290.17745 L 178.8 289.5383 L 180.2 288.89975 L 181.6 288.26195 L 183.0 287.6246 L 184.4 286.988 L 185.8 286.352 L 187.20000000000002 285.71659999999997 L 188.6 285.0818 L 190.0 284.44759999999997 L 191.4 283.81415 L 192.79999999999998 283.18129999999996 L 194.2 282.54905 L 195.6 281.91755 L 197.0 281.28679999999997 L 198.4 280.65665 L 199.79999999999998 280.0271 L 201.2 279.3983 L 202.6 278.77025000000003 L 204.0 278.1428 L 205.4 277.5161 L 206.8 276.89015 L 208.20000000000002 276.26495 L 209.6 275.6405 L 211.0 275.01665 L 212.4 274.39355 L 213.8 273.77135 L 215.2 273.14975 L 216.6 272.52905 L 218.0 271.90895 L 219.4 271.28975 L 220.79999999999998 270.6713 L 222.2 270.0536 L 223.6 269.43665 L 225.0 268.8206 L 226.4 268.2053 L 227.8 267.59075 L 229.20000000000002 266.9771 L 230.6 266.3642 L 232.0 265.7522 L 233.4 265.14095 L 234.8 264.5306 L 236.20000000000002 263.921 L 237.60000000000002 263.3123 L 239.0 262.7045 L 240.4 262.0976 L 241.8 261.49145 L 243.20000000000002 260.88635 L 244.60000000000002 260.282 L 246.00000000000003 259.67855 L 247.39999999999998 259.07585 L 248.79999999999998 258.4742 L 250.2 257.87345 L 251.6 257.2736 L 253.0 256.67465 L 254.39999999999998 256.07675 L 255.79999999999998 255.4796 L 257.2 254.88350000000003 L 258.6 254.2883 L 260.0 253.694 L 261.4 253.1006 L 262.79999999999995 252.50825 L 264.2 251.9168 L 265.6 251.3264 L 267.0 250.73705 L 268.4 250.14845000000003 L 269.8 249.56105 L 271.2 248.97455000000002 L 272.6 248.38895000000002 L 274.0 247.80455 L 275.4 247.22105 L 276.8 246.63844999999998 L 278.20000000000005 246.05705 L 279.6 245.47655 L 281.0 244.89724999999999 L 282.4 244.31885 L 283.8 243.7415 L 285.20000000000005 243.1652 L 286.6 242.5901 L 288.0 242.0159 L 289.4 241.44275 L 290.79999999999995 240.8708 L 292.2 240.29989999999998 L 293.6 239.7299 L 295.0 239.16125 L 296.4 238.5935 L 297.79999999999995 238.02695 L 299.2 237.46145 L 300.6 236.89715 L 302.0 236.33390000000003 L 303.4 235.7717 L 304.79999999999995 235.2107 L 306.2 234.6509 L 307.6 234.09215 L 309.0 233.5346 L 310.4 232.97809999999998 L 311.8 232.4228 L 313.2 231.8687 L 314.6 231.3158 L 316.0 230.76409999999998 L 317.4 230.21345000000002 L 318.8 229.664 L 320.2 229.11575 L 321.6 228.5687 L 323.0 228.02285 L 324.40000000000003 227.47820000000002 L 325.8 226.9349 L 327.2 226.39265 L 328.6 225.85160000000002 L 330.0 225.31189999999998 L 331.40000000000003 224.77339999999998 L 332.8 224.2361 L 334.20000000000005 223.7 L 335.59999999999997 223.16525000000001 L 337.0 222.63155 L 338.4 222.09935000000002 L 339.8 221.56834999999998 L 341.2 221.03855 L 342.59999999999997 220.50995 L 344.0 219.98284999999998 L 345.4 219.45680000000002 L 346.8 218.93224999999998 L 348.2 218.4089 L 349.59999999999997 217.88675 L 351.0 217.36610000000002 L 352.4 216.84665 L 353.8 216.3284 L 355.2 215.81165000000001 L 356.6 215.29625000000001 L 358.0 214.78205 L 359.4 214.2692 L 360.8 213.7577 L 362.2 213.24755 L 363.6 212.73875 L 365.0 212.2313 L 366.40000000000003 211.72535000000002 L 367.8 211.2206 L 369.2 210.7172 L 370.6 210.2153 L 372.0 209.71474999999998 L 373.40000000000003 209.21555 L 374.8 208.7177 L 376.20000000000005 208.22119999999998 L 377.6 207.7262 L 379.0 207.23255 L 380.4 206.7404 L 381.8 206.24960000000002 L 383.2 205.7603 L 384.59999999999997 205.27235 L 386.0 204.78575 L 387.4 204.30065 L 388.8 203.81705 L 390.2 203.3348 L 391.59999999999997 202.85405 L 393.0 202.3748 L 394.4 201.89690000000002 L 395.8 201.4205 L 397.2 200.94559999999998 L 398.6 200.47220000000002 L 400.0 200.00015 L 401.4 199.5296 L 402.8 199.0607 L 404.2 198.59315 L 405.6 198.1271 L 407.0 197.66255 L 408.40000000000003 197.1995 L 409.8 196.73795 L 411.2 196.27805 L 412.6 195.8195 L 414.0 195.36260000000001 L 415.40000000000003 194.90705000000003 L 416.8 194.45315 L 418.2 194.0009 L 419.6 193.55 L 421.0 193.10075 L 422.40000000000003 192.653 L 423.8 192.20675 L 425.20000000000005 191.76215000000002 L 426.6 191.31905 L 428.0 190.8776 L 429.40000000000003 190.43765 L 430.8 189.9992 L 432.20000000000005 189.5624 L 433.6 189.12725 L 435.00000000000006 188.69359999999998 L 436.40000000000003 188.2616 L 437.8 187.83125 L 439.20000000000005 187.4024 L 440.6 186.9752 L 442.00000000000006 186.54950000000002 L 443.40000000000003 186.12560000000002 L 444.79999999999995 185.70319999999998 L 446.2 185.28245 L 447.59999999999997 184.8632 L 448.99999999999994 184.44574999999998 L 450.4 184.02994999999999 L 451.79999999999995 183.61565 L 453.2 183.203 L 454.59999999999997 182.79215 L 456.0 182.3828 L 457.4 181.97525 L 458.79999999999995 181.5692 L 460.2 181.16495 L 461.59999999999997 180.7622 L 463.0 180.36125 L 464.4 179.96195 L 465.79999999999995 179.56429999999997 L 467.2 179.1683 L 468.59999999999997 178.7741 L 470.0 178.38155 L 471.4 177.99065 L 472.8 177.6014 L 474.2 177.21395 L 475.59999999999997 176.82815 L 477.0 176.44415 L 478.4 176.06179999999998 L 479.8 175.68110000000001 L 481.2 175.3022 L 482.6 174.92510000000001 L 484.0 174.54964999999999 L 485.4 174.17585 L 486.8 173.80384999999998 L 488.2 173.43365 L 489.6 173.06510000000003 L 491.0 172.69835 L 492.4 172.33325 L 493.8 171.9701 L 495.2 171.6086 L 496.6 171.24875 L 498.0 170.89085 L 499.40000000000003 170.53459999999998 L 500.8 170.18015 L 502.2 169.82750000000001 L 503.6 169.47665 L 505.0 169.12745 L 506.40000000000003 168.7802 L 507.8 168.4346 L 509.20000000000005 168.09095 L 510.6 167.74895 L 512.0 167.40890000000002 L 513.4000000000001 167.0705 L 514.8 166.7339 L 516.2 166.39925 L 517.6 166.06625000000003 L 519.0 165.7352 L 520.4000000000001 165.40595000000002 L 521.8 165.07850000000002 L 523.2 164.75285 L 524.6 164.429 L 526.0 164.10709999999997 L 527.4000000000001 163.78685 L 528.8 163.46855 L 530.2 163.1522 L 531.5999999999999 162.8375 L 533.0 162.52474999999998 L 534.4 162.2138 L 535.8 161.9048 L 537.2 161.5976 L 538.5999999999999 161.2922 L 540.0 160.98874999999998 L 541.4 160.6871 L 542.8 160.3874 L 544.2 160.0895 L 545.5999999999999 159.79354999999998 L 547.0 159.4994 L 548.4 159.2072 L 549.8 158.91680000000002 L 551.2 158.62834999999998 L 552.5999999999999 158.3417 L 554.0 158.05700000000002 L 555.4 157.77425000000002 L 556.8 157.4933 L 558.2 157.21429999999998 L 559.5999999999999 156.93725 L 561.0 156.66199999999998 L 562.4 156.3887 L 563.8 156.11735 L 565.2 155.84795000000003 L 566.6 155.58035 L 568.0 155.31470000000002 L 569.4 155.051 L 570.8 154.78925 L 572.2 154.5293 L 573.6 154.27145000000002 L 575.0 154.0154 L 576.4 153.76145 L 577.8 153.5093 L 579.2 153.2591 L 580.6 153.01085 L 582.0 152.76455 L 583.4 152.5202 L 584.8 152.27779999999998 L 586.2 152.03735 L 587.6 151.79885 L 589.0 151.5623 L 590.4 151.32770000000002 L 591.8000000000001 151.09505 L 593.2 150.86450000000002 L 594.6 150.63575 L 596.0 150.4091 L 597.4 150.18425 L 598.8000000000001 149.9615 L 600.2 149.7407 L 601.6 149.52185 L 603.0 149.30495000000002 L 604.4 149.09015 L 605.8000000000001 148.8773 L 607.2 148.66639999999998 L 608.6 148.45745 L 610.0 148.25045 L 611.4 148.04555 L 612.8000000000001 147.8426 L 614.2 147.64175 L 615.6 147.4427 L 617.0 147.24575 L 618.4000000000001 147.05075 L 619.8 146.85784999999998 L 621.1999999999999 146.6669 L 622.5999999999999 146.47805 L 624.0 146.291 L 625.4 146.1062 L 626.8 145.9232 L 628.1999999999999 145.7423 L 629.6 145.56349999999998 L 631.0 145.38664999999997 L 632.4 145.21175 L 633.8 145.03895 L 635.1999999999999 144.8681 L 636.6 144.69935 L 638.0 144.5327 L 639.4 144.36785 L 640.8 144.20524999999998 L 642.1999999999999 144.0446 L 643.6 143.88590000000002 L 645.0 143.7293 L 646.4 143.57479999999998 L 647.8 143.42225 L 649.1999999999999 143.2718 L 650.6 143.1233 L 652.0 142.97689999999997 L 653.4 142.83259999999999 L 654.8 142.69025 L 656.2 142.55 L 657.6 142.41185000000002 L 659.0 142.27564999999998 L 660.4 142.14155 L 661.8 142.0094 L 663.2 141.8795 L 664.6 141.75140000000002 L 666.0 141.62555 L 667.4 141.50165 L 668.8 141.37985 L 670.2 141.26014999999998 L 671.6 141.14255 L 673.0 141.0269 L 674.4 140.91335 L 675.8000000000001 140.8019 L 677.2 140.69240000000002 L 678.6 140.58515 L 680.0 140.47985 L 681.4 140.37650000000002 L 682.8000000000001 140.27540000000002 L 684.2 140.1764 L 685.6 140.07935 L 687.0 139.9844 L 688.4 139.89155 L 689.8000000000001 139.80065 L 691.2 139.712 L 692.6 139.6253 L 694.0 139.54085 L 695.4 139.45835 L 696.8000000000001 139.37795 L 698.2 139.2995 L 699.6 139.2233 L 701.0 139.14905000000002 L 702.4000000000001 139.07705 L 703.8000000000001 139.007 L 705.2 138.93905 L 706.5999999999999 138.8732 L 708.0 138.80945 L 709.4 138.7478 L 710.8 138.68825 L 712.1999999999999 138.63065 L 713.6 138.5753 L 715.0 138.52190000000002 L 716.4 138.47074999999998 L 717.8 138.42155 L 719.1999999999999 138.37445000000002 L 720.6 138.32944999999998 L 722.0 138.28654999999998 L 723.4 138.24575000000002 L 724.8 138.20705 L 726.1999999999999 138.17045000000002 L 727.6 138.13594999999998 L 729.0 138.10354999999998 L 730.4 138.07309999999998 L 731.8 138.0449 L 733.1999999999999 138.01865 L 734.6 137.99464999999998 L 736.0 137.9726 L 737.4 137.9528 L 738.8 137.93495000000001 L 740.2 137.9192 L 741.6 137.9057 L 743.0 137.89415 L 744.4 137.8847 L 745.8 137.87735 L 747.2 137.87210000000002 L 748.6 137.86895" fill="none" stroke="red" stroke-width="2"/>
<path d="M 50.0 137.8679 L 51.4 137.8679 L 52.8 137.8679 L 54.2 137.8679 L 55.6 137.8679 L 57.0 137.8679 L 58.4 137.8679 L 59.8 137.8679 L 61.2 137.8679 L 62.6 137.8679 L 64.0 137.8679 L 65.4 137.86805 L 66.8 137.86805 L 68.2 137.86805 L 69.6 137.86805 L 71.0 137.86805 L 72.4 137.86805 L 73.8 137.86805 L 75.2 137.86805 L 76.6 137.86805 L 78.0 137.86805 L 79.4 137.86805 L 80.8 137.86805 L 82.2 137.86805 L 83.6 137.86805 L 85.0 137.86805 L 86.4 137.86805 L 87.8 137.86805 L 89.2 137.86805 L 90.6 137.86805 L 92.0 137.86805 L 93.4 137.86805 L 94.80000000000001 137.86805 L 96.2 137.86805 L 97.6 137.86805 L 99.0 137.86805 L 100.4 137.86805 L 101.8 137.86805 L 103.19999999999999 137.86805 L 104.6 137.86805 L 106.0 137.86805 L 107.4 137.86805 L 108.80000000000001 137.86805 L 110.19999999999999 137.86805 L 111.6 137.86805 L 113.0 137.86805 L 114.4 137.86805 L 115.8 137.86805 L 117.2 137.86805 L 118.60000000000001 137.86805 L 120.0 137.86805 L 121.39999999999999 137.86805 L 122.8 137.86805 L 124.2 137.86805 L 125.6 137.86805 L 127.0 137.86805 L 128.4 137.86805 L 129.8 137.86805 L 131.2 137.86805 L 132.6 137.86805 L 134.0 137.86805 L 135.39999999999998 137.86805 L 136.8 137.8682 L 138.2 137.8682 L 139.60000000000002 137.8682 L 141.0 137.8682 L 142.4 137.8682 L 143.8 137.8682 L 145.2 137.8682 L 146.60000000000002 137.8682 L 148.0 137.8682 L 149.39999999999998 137.8682 L 150.8 137.8682 L 152.2 137.8682 L 153.6 137.8682 L 155.0 137.8682 L 156.39999999999998 137.86805 L 157.8 137.86805 L 159.2 137.86805 L 160.6 137.86805 L 162.0 137.86805 L 163.4 137.86805 L 164.8 137.86805 L 166.2 137.86805 L 167.60000000000002 137.86805 L 169.0 137.86805 L 170.39999999999998 137.86805 L 171.8 137.86805 L 173.2 137.86805 L 174.6 137.86805 L 176.0 137.86805 L 177.39999999999998 137.86805 L 178.8 137.86805 L 180.2 137.86805 L 181.6 137.86805 L 183.0 137.86805 L 184.4 137.86805 L 185.8 137.86805 L 187.20000000000002 137.86805 L 188.6 137.86805 L 190.0 137.86805 L 191.4 137.86805 L 192.79999999999998 137.86805 L 194.2 137.86805 L 195.6 137.86805 L 197.0 137.86805 L 198.4 137.86805 L 199.79999999999998 137.86805 L 201.2 137.8679 L 202.6 137.8679 L 204.0 137.8679 L 205.4 137.8679 L 206.8 137.8679 L 208.20000000000002 137.8679 L 209.6 137.8679 L 211.0 137.8679 L 212.4 137.8679 L 213.8 137.8679 L 215.2 137.8679 L 216.6 137.8679 L 218.0 137.8679 L 219.4 137.8679 L 220.79999999999998 137.8679 L 222.2 137.8679 L 223.6 137.8679 L 225.0 137.8679 L 226.4 137.8679 L 227.8 137.8679 L 229.20000000000002 137.8679 L 230.6 137.86775 L 232.0 137.86775 L 233.4 137.86775 L 234.8 137.86775 L 236.20000000000002 137.86775 L 237.60000000000002 137.86775 L 239.0 137.86775 L 240.4 137.86775 L 241.8 137.86775 L 243.20000000000002 137.86775 L 244.60000000000002 137.86775 L 246.00000000000003 137.86775 L 247.39999999999998 137.86775 L 248.79999999999998 137.86775 L 250.2 137.86775 L 251.6 137.86775 L 253.0 137.86775 L 254.39999999999998 137.86775 L 255.79999999999998 137.86775 L 257.2 137.86775 L 258.6 137.86775 L 260.0 137.86775 L 261.4 137.86775 L 262.79999999999995 137.86775 L 264.2 137.86775 L 265.6 137.86775 L 267.0 137.86775 L 268.4 137.86775 L 269.8 137.86775 L 271.2 137.86775 L 272.6 137.86775 L 274.0 137.86775 L 275.4 137.86775 L 276.8 137.86775 L 278.20000000000005 137.86775 L 279.6 137.86775 L 281.0 137.86775 L 282.4 137.86775 L 283.8 137.86775 L 285.20000000000005 137.86775 L 286.6 137.86775 L 288.0 137.86775 L 289.4 137.86775 L 290.79999999999995 137.86775 L 292.2 137.86775 L 293.6 137.86775 L 295.0 137.86775 L 296.4 137.86775 L 297.79999999999995 137.86775 L 299.2 137.86775 L 300.6 137.86775 L 302.0 137.86775 L 303.4 137.86775 L 304.79999999999995 137.86775 L 306.2 137.86775 L 307.6 137.86775 L 309.0 137.86775 L 310.4 137.86775 L 311.8 137.86775 L 313.2 137.86775 L 314.6 137.86775 L 316.0 137.86775 L 317.4 137.8679 L 318.8 137.8679 L 320.2 137.8679 L 321.6 137.8679 L 323.0 137.8679 L 324.40000000000003 137.8679 L 325.8 137.8679 L 327.2 137.8679 L 328.6 137.8679 L 330.0 137.8679 L 331.40000000000003 137.8679 L 332.8 137.8679 L 334.20000000000005 137.8679 L 335.59999999999997 137.8679 L 337.0 137.8679 L 338.4 137.8679 L 339.8 137.8679 L 341.2 137.8679 L 342.59999999999997 137.86805 L 344.0 137.86805 L 345.4 137.86805 L 346.8 137.86805 L 348.2 137.86805 L 349.59999999999997 137.86805 L 351.0 137.86805 L 352.4 137.86805 L 353.8 137.86805 L 355.2 137.86805 L 356.6 137.86805 L 358.0 137.86805 L 359.4 137.86805 L 360.8 137.86805 L 362.2 137.86805 L 363.6 137.86805 L 365.0 137.86805 L 366.40000000000003 137.86805 L 367.8 137.86805 L 369.2 137.8682 L 370.6 137.8682 L 372.0 137.8682 L 373.40000000000003 137.8682 L 374.8 137.8682 L 376.20000000000005 137.8682 L 377.6 137.8682 L 379.0 137.8682 L 380.4 137.8682 L 381.8 137.8682 L 383.2 137.8682 L 384.59999999999997 137.8682 L 386.0 137.8682 L 387.4 137.8682 L 388.8 137.8682 L 390.2 137.8682 L 391.59999999999997 137.8682 L 393.0 137.8682 L 394.4 137.8682 L 395.8 137.8682 L 397.2 137.8682 L 398.6 137.8682 L 400.0 137.8682 L 401.4 137.8682 L 402.8 137.8682 L 404.2 137.8682 L 405.6 137.8682 L 407.0 137.8682 L 408.40000000000003 137.8682 L 409.8 137.8682 L 411.2 137.8682 L 412.6 137.8682 L 414.0 137.8682 L 415.40000000000003 137.8682 L 416.8 137.8682 L 418.2 137.8682 L 419.6 137.8682 L 421.0 137.8682 L 422.40000000000003 137.8682 L 423.8 137.8682 L 425.20000000000005 137.8682 L 426.6 137.8682 L 428.0 137.8682 L 429.40000000000003 137.8682 L 430.8 137.8682 L 432.20000000000005 137.86805 L 433.6 137.86805 L 435.00000000000006 137.86805 L 436.40000000000003 137.86805 L 437.8 137.86805 L 439.20000000000005 137.86805 L 440.6 137.86805 L 442.00000000000006 137.86805 L 443.40000000000003 137.86805 L 444.79999999999995 137.86805 L 446.2 137.86805 L 447.59999999999997 137.86805 L 448.99999999999994 137.86805 L 450.4 137.86805 L 451.79999999999995 137.86805 L 453.2 137.86805 L 454.59999999999997 137.86805 L 456.0 137.86805 L 457.4 137.86805 L 458.79999999999995 137.8679 L 460.2 137.8679 L 461.59999999999997 137.8679 L 463.0 137.8679 L 464.4 137.8679 L 465.79999999999995 137.8679 L 467.2 137.8679 L 468.59999999999997 137.8679 L 470.0 137.8679 L 471.4 137.8679 L 472.8 137.8679 L 474.2 137.8679 L 475.59999999999997 137.8679 L 477.0 137.8679 L 478.4 137.8679 L 479.8 137.8679 L 481.2 137.8679 L 482.6 137.8679 L 484.0 137.86775 L 485.4 137.86775 L 486.8 137.86775 L 488.2 137.86775 L 489.6 137.86775 L 491.0 137.86775 L 492.4 137.86775 L 493.8 137.86775 L 495.2 137.86775 L 496.6 137.86775 L 498.0 137.86775 L 499.40000000000003 137.86775 L 500.8 137.86775 L 502.2 137.86775 L 503.6 137.86775 L 505.0 137.86775 L 506.40000000000003 137.86775 L 507.8 137.86775 L 509.20000000000005 137.86775 L 510.6 137.86775 L 512.0 137.86775 L 513.4000000000001 137.86775 L 514.8 137.86775 L 516.2 137.86775 L 517.6 137.86775 L 519.0 137.86775 L 520.4000000000001 137.86775 L 521.8 137.86775 L 523.2 137.86775 L 524.6 137.86775 L 526.0 137.86775 L 527.4000000000001 137.86775 L 528.8 137.86775 L 530.2 137.86775 L 531.5999999999999 137.86775 L 533.0 137.86775 L 534.4 137.86775 L 535.8 137.86775 L 537.2 137.86775 L 538.5999999999999 137.86775 L 540.0 137.86775 L 541.4 137.86775 L 542.8 137.86775 L 544.2 137.86775 L 545.5999999999999 137.86775 L 547.0 137.86775 L 548.4 137.86775 L 549.8 137.86775 L 551.2 137.86775 L 552.5999999999999 137.86775 L 554.0 137.86775 L 555.4 137.86775 L 556.8 137.86775 L 558.2 137.86775 L 559.5999999999999 137.86775 L 561.0 137.86775 L 562.4 137.86775 L 563.8 137.86775 L 565.2 137.86775 L 566.6 137.86775 L 568.0 137.86775 L 569.4 137.86775 L 570.8 137.8679 L 572.2 137.8679 L 573.6 137.8679 L 575.0 137.8679 L 576.4 137.8679 L 577.8 137.8679 L 579.2 137.8679 L 580.6 137.8679 L 582.0 137.8679 L 583.4 137.8679 L 584.8 137.8679 L 586.2 137.8679 L 587.6 137.8679 L 589.0 137.8679 L 590.4 137.8679 L 591.8000000000001 137.8679 L 593.2 137.8679 L 594.6 137.8679 L 596.0 137.8679 L 597.4 137.8679 L 598.8000000000001 137.8679 L 600.2 137.86805 L 601.6 137.86805 L 603.0 137.86805 L 604.4 137.86805 L 605.8000000000001 137.86805 L 607.2 137.86805 L 608.6 137.86805 L 610.0 137.86805 L 611.4 137.86805 L 612.8000000000001 137.86805 L 614.2 137.86805 L 615.6 137.86805 L 617.0 137.86805 L 618.4000000000001 137.86805 L 619.8 137.86805 L 621.1999999999999 137.86805 L 622.5999999999999 137.86805 L 624.0 137.86805 L 625.4 137.86805 L 626.8 137.86805 L 628.1999999999999 137.86805 L 629.6 137.86805 L 631.0 137.86805 L 632.4 137.86805 L 633.8 137.86805 L 635.1999999999999 137.86805 L 636.6 137.86805 L 638.0 137.86805 L 639.4 137.86805 L 640.8 137.86805 L 642.1999999999999 137.86805 L 643.6 137.86805 L 645.0 137.8682 L 646.4 137.8682 L 647.8 137.8682 L 649.1999999999999 137.8682 L 650.6 137.8682 L 652.0 137.8682 L 653.4 137.8682 L 654.8 137.8682 L 656.2 137.8682 L 657.6 137.8682 L 659.0 137.8682 L 660.4 137.8682 L 661.8 137.8682 L 663.2 137.8682 L 664.6 137.86805 L 666.0 137.86805 L 667.4 137.86805 L 668.8 137.86805 L 670.2 137.86805 L 671.6 137.86805 L 673.0 137.86805 L 674.4 137.86805 L 675.8000000000001 137.86805 L 677.2 137.86805 L 678.6 137.86805 L 680.0 137.86805 L 681.4 137.86805 L 682.8000000000001 137.86805 L 684.2 137.86805 L 685.6 137.86805 L 687.0 137.86805 L 688.4 137.86805 L 689.8000000000001 137.86805 L 691.2 137.86805 L 692.6 137.86805 L 694.0 137.86805 L 695.4 137.86805 L 696.8000000000001 137.86805 L 698.2 137.86805 L 699.6 137.86805 L 701.0 137.86805 L 702.4000000000001 137.86805 L 703.8000000000001 137.86805 L 705.2 137.86805 L 706.5999999999999 137.86805 L 708.0 137.86805 L 709.4 137.86805 L 710.8 137.86805 L 712.1999999999999 137.86805 L 713.6 137.86805 L 715.0 137.86805 L 716.4 137.86805 L 717.8 137.86805 L 719.1999999999999 137.86805 L 720.6 137.86805 L 722.0 137.86805 L 723.4 137.86805 L 724.8 137.86805 L 726.1999999999999 137.86805 L 727.6 137.86805 L 729.0 137.86805 L 730.4 137.86805 L 731.8 137.86805 L 733.1999999999999 137.86805 L 734.6 137.86805 L 736.0 137.8679 L 737.4 137.8679 L 738.8 137.8679 L 740.2 137.8679 L 741.6 137.8679 L 743.0 137.8679 L 744.4 137.8679 L 745.8 137.8679 L 747.2 137.8679 L 748.6 137.8679" fill="none" stroke="green" stroke-width="1" stroke-dasharray="4,4"/>
<text x="600" y="80" fill="blue">Low-pass</text>
<text x="600" y="100" fill="red">High-pass</text>
<text x="600" y="120" fill="green">Total Power (Ideal flat)</text>
<g transform="translate(0, 400)">
<text x="400.0" y="30" text-anchor="middle" font-weight="bold">Phase Response (Radians)</text>
<line x1="50" y1="350" x2="750" y2="350" stroke="black" stroke-width="2"/>
<line x1="50" y1="50" x2="50" y2="350" stroke="black" stroke-width="2"/>
<line x1="50" y1="200.0" x2="750" y2="200.0" stroke="#ccc" stroke-dasharray="5,5"/>
<path d="M 50.0 200.0 L 51.4 201.95001410924482 L 52.8 203.89998047200672 L 54.2 205.84999458125156 L 55.6 207.80000869049638 L 57.0 209.74997505325828 L 58.4 211.69998916250313 L 59.8 213.65000327174795 L 61.2 215.60001738099277 L 62.6 217.5499837437547 L 64.0 219.4999978529995 L 65.4 221.45001196224433 L 66.8 223.39997832500623 L 68.2 225.34999243425108 L 69.6 227.3000065434959 L 71.0 229.2499729062578 L 72.4 231.19998701550264 L 73.8 233.15000112474746 L 75.2 235.09996748750936 L 76.6 237.0499815967542 L 78.0 238.99999570599903 L 79.4 240.95000981524385 L 80.8 242.89997617800574 L 82.2 244.8499902872506 L 83.6 246.8000043964954 L 85.0 248.7499707592573 L 86.4 250.69998486850216 L 87.8 252.64999897774698 L 89.2 254.59996534050887 L 90.6 256.5499794497537 L 92.0 258.49999355899854 L 93.4 260.45000766824336 L 94.80000000000001 262.3999740310053 L 96.2 264.3499881402501 L 97.6 266.3000022494949 L 99.0 268.2499686122568 L 100.4 270.19998272150167 L 101.8 272.1499968307465 L 103.19999999999999 274.1000109399913 L 104.6 276.0499773027532 L 106.0 277.99999141199805 L 107.4 279.9500055212429 L 108.80000000000001 281.8999718840048 L 110.19999999999999 283.8499859932496 L 111.6 285.80000010249444 L 113.0 287.75001421173926 L 114.4 289.6999805745012 L 115.8 291.649994683746 L 117.2 293.6000087929908 L 118.60000000000001 295.5499751557527 L 120.0 297.49998926499757 L 121.39999999999999 299.4500033742424 L 122.8 301.4000174834872 L 124.2 303.3499838462491 L 125.6 305.29999795549395 L 127.0 307.25001206473877 L 128.4 309.19997842750064 L 129.8 311.1499925367455 L 131.2 313.10000664599033 L 132.6 315.05002075523515 L 134.0 316.9999871179971 L 135.39999999999998 318.9500012272419 L 136.8 320.9000153364867 L 138.2 322.85002944573154 L 139.60000000000002 324.79999580849346 L 141.0 326.7500099177383 L 142.4 328.7000240269831 L 143.8 330.649990389745 L 145.2 332.60000449898985 L 146.60000000000002 334.55001860823467 L 148.0 336.5000327174795 L 149.39999999999998 338.4499990802414 L 150.8 340.40001318948623 L 152.2 342.35002729873105 L 153.6 344.30004140797587 L 155.0 346.2500077707378 L 156.39999999999998 348.2000218799826 M 157.8 50.15000290948939 L 159.2 52.100017018734235 L 160.6 54.050031127979054 L 162.0 56.00004523722387 L 163.4 57.95001159998577 L 164.8 59.90002570923059 L 166.2 61.85003981847544 L 167.60000000000002 63.800053927720285 L 169.0 65.75002029048218 L 170.39999999999998 67.700034399727 L 171.8 69.65004850897182 L 173.2 71.60006261821667 L 174.6 73.55002898097855 L 176.0 75.50004309022339 L 177.39999999999998 77.45005719946822 L 178.8 79.4000235622301 L 180.2 81.35003767147494 L 181.6 83.3000517807198 L 183.0 85.25006588996462 L 184.4 87.2000322527265 L 185.8 89.15004636197135 L 187.20000000000002 91.10006047121617 L 188.6 93.05002683397807 L 190.0 95.0000409432229 L 191.4 96.95005505246775 L 192.79999999999998 98.90006916171257 L 194.2 100.85003552447446 L 195.6 102.8000496337193 L 197.0 104.75006374296412 L 198.4 106.70003010572603 L 199.79999999999998 108.65004421497085 L 201.2 110.60005832421568 L 202.6 112.5500724334605 L 204.0 114.50003879622241 L 205.4 116.45005290546725 L 206.8 118.40006701471208 L 208.20000000000002 120.35003337747396 L 209.6 122.30004748671881 L 211.0 124.25006159596363 L 212.4 126.20007570520845 L 213.8 128.15004206797033 L 215.2 130.1000561772152 L 216.6 132.05007028646003 L 218.0 134.0000366492219 L 219.4 135.95005075846677 L 220.79999999999998 137.9000648677116 L 222.2 139.85003123047346 L 223.6 141.8000453397183 L 225.0 143.75005944896313 L 226.4 145.70007355820798 L 227.8 147.65003992096987 L 229.20000000000002 149.6000540302147 L 230.6 151.55006813945954 L 232.0 153.50003450222144 L 233.4 155.45004861146626 L 234.8 157.40006272071108 L 236.20000000000002 159.350029083473 L 237.60000000000002 161.30004319271782 L 239.0 163.25005730196264 L 240.4 165.20002366472454 L 241.8 167.1500377739694 L 243.20000000000002 169.1000518832142 L 244.60000000000002 171.0500182459761 L 246.00000000000003 173.00003235522095 L 247.39999999999998 174.95004646446577 L 248.79999999999998 176.90001282722767 L 250.2 178.8500269364725 L 251.6 180.80004104571734 L 253.0 182.75000740847923 L 254.39999999999998 184.70002151772405 L 255.79999999999998 186.6500356269689 L 257.2 188.6000019897308 L 258.6 190.55001609897562 L 260.0 192.50003020822044 L 261.4 194.44999657098236 L 262.79999999999995 196.40001068022718 L 264.2 198.350024789472 L 265.6 200.2999911522339 L 267.0 202.25000526147875 L 268.4 204.20001937072357 L 269.8 206.14998573348547 L 271.2 208.0999998427303 L 272.6 210.05001395197513 L 274.0 211.99998031473703 L 275.4 213.94999442398188 L 276.8 215.9000085332267 L 278.20000000000005 217.8499748959886 L 279.6 219.7999890052334 L 281.0 221.75000311447826 L 282.4 223.69996947724016 L 283.8 225.64998358648498 L 285.20000000000005 227.59999769572983 L 286.6 229.54996405849172 L 288.0 231.49997816773654 L 289.4 233.44999227698136 L 290.79999999999995 235.39995863974326 L 292.2 237.3499727489881 L 293.6 239.29998685823293 L 295.0 241.24995322099483 L 296.4 243.19996733023967 L 297.79999999999995 245.1499814394845 L 299.2 247.0999478022464 L 300.6 249.04996191149124 L 302.0 250.99997602073606 L 303.4 252.94994238349796 L 304.79999999999995 254.89995649274277 L 306.2 256.8499706019876 L 307.6 258.7999369647495 L 309.0 260.74995107399434 L 310.4 262.69996518323916 L 311.8 264.649979292484 L 313.2 266.5999456552459 L 314.6 268.5499597644907 L 316.0 270.49997387373554 L 317.4 272.44994023649747 L 318.8 274.3999543457423 L 320.2 276.3499684549871 L 321.6 278.29993481774903 L 323.0 280.24994892699385 L 324.40000000000003 282.19996303623867 L 325.8 284.1499293990006 L 327.2 286.0999435082454 L 328.6 288.04995761749024 L 330.0 289.99992398025216 L 331.40000000000003 291.949938089497 L 332.8 293.8999521987418 L 334.20000000000005 295.8499663079866 L 335.59999999999997 297.79993267074855 L 337.0 299.74994677999337 L 338.4 301.69996088923824 L 339.8 303.6499272520001 L 341.2 305.59994136124493 L 342.59999999999997 307.54995547048975 L 344.0 309.4999218332517 L 345.4 311.4499359424965 L 346.8 313.3999500517413 L 348.2 315.34996416098613 L 349.59999999999997 317.299930523748 L 351.0 319.2499446329929 L 352.4 321.1999587422377 L 353.8 323.1499728514825 L 355.2 325.09993921424444 L 356.6 327.04995332348926 L 358.0 328.99996743273414 L 359.4 330.949933795496 L 360.8 332.8999479047408 L 362.2 334.84996201398565 L 363.6 336.7999761232305 L 365.0 338.7499424859924 L 366.40000000000003 340.6999565952372 L 367.8 342.64997070448203 L 369.2 344.5999848137269 L 370.6 346.5499511764888 L 372.0 348.4999652857336 M 373.40000000000003 50.44994631524037 L 374.8 52.399960424485215 L 376.20000000000005 54.349974533730034 L 377.6 56.29998864297488 L 379.0 58.24995500573678 L 380.4 60.1999691149816 L 381.8 62.14998322422642 L 383.2 64.09999733347124 L 384.59999999999997 66.04996369623316 L 386.0 67.99997780547798 L 387.4 69.9499919147228 L 388.8 71.90000602396762 L 390.2 73.84997238672955 L 391.59999999999997 75.79998649597438 L 393.0 77.7500006052192 L 394.4 79.70001471446405 L 395.8 81.64998107722593 L 397.2 83.59999518647075 L 398.6 85.55000929571561 L 400.0 87.50002340496043 L 401.4 89.44998976772233 L 402.8 91.40000387696716 L 404.2 93.350017986212 L 405.6 95.29998434897388 L 407.0 97.24999845821871 L 408.40000000000003 99.20001256746355 L 409.8 101.15002667670836 L 411.2 103.09999303947026 L 412.6 105.0500071487151 L 414.0 107.00002125795994 L 415.40000000000003 108.95003536720476 L 416.8 110.90000172996666 L 418.2 112.8500158392115 L 419.6 114.80002994845633 L 421.0 116.75004405770115 L 422.40000000000003 118.70001042046306 L 423.8 120.65002452970788 L 425.20000000000005 122.6000386389527 L 426.6 124.55005274819754 L 428.0 126.50001911095944 L 429.40000000000003 128.45003322020426 L 430.8 130.4000473294491 L 432.20000000000005 132.35006143869393 L 433.6 134.30002780145583 L 435.00000000000006 136.25004191070067 L 436.40000000000003 138.2000560199455 L 437.8 140.1500223827074 L 439.20000000000005 142.1000364919522 L 440.6 144.05005060119706 L 442.00000000000006 146.00006471044188 L 443.40000000000003 147.95003107320377 L 444.79999999999995 149.90004518244862 L 446.2 151.85005929169344 L 447.59999999999997 153.80007340093826 L 448.99999999999994 155.7500397637002 L 450.4 157.700053872945 L 451.79999999999995 159.65006798218982 L 453.2 161.60003434495172 L 454.59999999999997 163.55004845419657 L 456.0 165.5000625634414 L 457.4 167.45007667268624 L 458.79999999999995 169.40004303544814 L 460.2 171.35005714469295 L 461.59999999999997 173.30007125393777 L 463.0 175.25003761669967 L 464.4 177.20005172594452 L 465.79999999999995 179.15006583518934 L 467.2 181.10003219795124 L 468.59999999999997 183.05004630719608 L 470.0 185.0000604164409 L 471.4 186.95007452568572 L 472.8 188.90004088844762 L 474.2 190.85005499769247 L 475.59999999999997 192.8000691069373 L 477.0 194.75003546969918 L 478.4 196.70004957894403 L 479.8 198.65006368818885 L 481.2 200.60003005095075 L 482.6 202.5500441601956 L 484.0 204.50005826944042 L 485.4 206.45002463220231 L 486.8 208.40003874144713 L 488.2 210.35005285069198 L 489.6 212.30001921345388 L 491.0 214.2500333226987 L 492.4 216.20004743194355 L 493.8 218.15006154118836 L 495.2 220.10002790395026 L 496.6 222.05004201319508 L 498.0 224.00005612243993 L 499.40000000000003 225.95002248520183 L 500.8 227.90003659444665 L 502.2 229.8500507036915 L 503.6 231.8000170664534 L 505.0 233.7500311756982 L 506.40000000000003 235.70004528494303 L 507.8 237.65001164770496 L 509.20000000000005 239.60002575694978 L 510.6 241.5500398661946 L 512.0 243.50000622895652 L 513.4000000000001 245.45002033820134 L 514.8 247.40003444744616 L 516.2 249.3500008102081 L 517.6 251.3000149194529 L 519.0 253.25002902869772 L 520.4000000000001 255.19999539145962 L 521.8 257.15000950070447 L 523.2 259.1000236099493 L 524.6 261.04998997271116 L 526.0 263.00000408195604 L 527.4000000000001 264.95001819120085 L 528.8 266.8999845539627 L 530.2 268.84999866320754 L 531.5999999999999 270.8000127724524 L 533.0 272.7499791352143 L 534.4 274.69999324445916 L 535.8 276.650007353704 L 537.2 278.59997371646585 L 538.5999999999999 280.5499878257107 L 540.0 282.50000193495555 L 541.4 284.4499682977174 L 542.8 286.3999824069623 L 544.2 288.34999651620706 L 545.5999999999999 290.299962878969 L 547.0 292.2499769882138 L 548.4 294.1999910974587 L 549.8 296.14995746022055 L 551.2 298.09997156946537 L 552.5999999999999 300.0499856787102 L 554.0 301.9999520414721 L 555.4 303.94996615071693 L 556.8 305.89998025996175 L 558.2 307.8499466227237 L 559.5999999999999 309.7999607319685 L 561.0 311.7499748412133 L 562.4 313.69994120397524 L 563.8 315.64995531322006 L 565.2 317.5999694224649 L 566.6 319.5499357852268 L 568.0 321.4999498944716 L 569.4 323.44996400371645 L 570.8 325.3999303664784 L 572.2 327.3499444757232 L 573.6 329.299958584968 L 575.0 331.24997269421283 L 576.4 333.19993905697476 L 577.8 335.1499531662196 L 579.2 337.0999672754644 L 580.6 339.0499336382263 L 582.0 340.9999477474711 L 583.4 342.94996185671596 L 584.8 344.89992821947783 L 586.2 346.8499423287227 L 587.6 348.7999564379675 M 589.0 50.7499374674743 L 590.4 52.699951576719116 L 591.8000000000001 54.649965685963934 L 593.2 56.59993204872586 L 594.6 58.54994615797068 L 596.0 60.4999602672155 L 597.4 62.449926629977426 L 598.8000000000001 64.39994073922225 L 600.2 66.34995484846706 L 601.6 68.29996895771188 L 603.0 70.24993532047381 L 604.4 72.19994942971863 L 605.8000000000001 74.14996353896345 L 607.2 76.09992990172537 L 608.6 78.0499440109702 L 610.0 79.99995812021503 L 611.4 81.94997222945986 L 612.8000000000001 83.89993859222174 L 614.2 85.84995270146658 L 615.6 87.79996681071141 L 617.0 89.74993317347331 L 618.4000000000001 91.69994728271813 L 619.8 93.64996139196296 L 621.1999999999999 95.59997550120781 L 622.5999999999999 97.5499418639697 L 624.0 99.49995597321453 L 625.4 101.44997008245937 L 626.8 103.39998419170419 L 628.1999999999999 105.3499505544661 L 629.6 107.29996466371092 L 631.0 109.24997877295574 L 632.4 111.19994513571766 L 633.8 113.14995924496247 L 635.1999999999999 115.09997335420732 L 636.6 117.04998746345214 L 638.0 118.99995382621404 L 639.4 120.94996793545886 L 640.8 122.8999820447037 L 642.1999999999999 124.84999615394852 L 643.6 126.79996251671042 L 645.0 128.74997662595524 L 646.4 130.6999907352001 L 647.8 132.649957097962 L 649.1999999999999 134.5999712072068 L 650.6 136.54998531645165 L 652.0 138.49999942569647 L 653.4 140.4499657884584 L 654.8 142.39997989770322 L 656.2 144.34999400694804 L 657.6 146.30000811619288 L 659.0 148.24997447895475 L 660.4 150.1999885881996 L 661.8 152.15000269744445 L 663.2 154.10001680668927 L 664.6 156.04998316945114 L 666.0 157.999997278696 L 667.4 159.9500113879408 L 668.8 161.8999777507027 L 670.2 163.84999185994755 L 671.6 165.80000596919237 L 673.0 167.75002007843722 L 674.4 169.69998644119912 L 675.8000000000001 171.65000055044393 L 677.2 173.60001465968878 L 678.6 175.54998102245068 L 680.0 177.4999951316955 L 681.4 179.45000924094032 L 682.8000000000001 181.40002335018517 L 684.2 183.34998971294706 L 685.6 185.30000382219188 L 687.0 187.25001793143673 L 688.4 189.20003204068155 L 689.8000000000001 191.14999840344345 L 691.2 193.10001251268827 L 692.6 195.0500266219331 L 694.0 196.999992984695 L 695.4 198.95000709393983 L 696.8000000000001 200.90002120318468 L 698.2 202.8500353124295 L 699.6 204.8000016751914 L 701.0 206.75001578443621 L 702.4000000000001 208.70002989368106 L 703.8000000000001 210.64999625644296 L 705.2 212.60001036568778 L 706.5999999999999 214.55002447493263 L 708.0 216.49999083769453 L 709.4 218.45000494693934 L 710.8 220.4000190561842 L 712.1999999999999 222.350033165429 L 713.6 224.2999995281909 L 715.0 226.25001363743576 L 716.4 228.20002774668058 L 717.8 230.14999410944247 L 719.1999999999999 232.1000082186873 L 720.6 234.05002232793214 L 722.0 235.99998869069404 L 723.4 237.95000279993886 L 724.8 239.9000169091837 L 726.1999999999999 241.85003101842852 L 727.6 243.79999738119042 L 729.0 245.75001149043527 L 730.4 247.7000255996801 L 731.8 249.649991962442 L 733.1999999999999 251.6000060716868 L 734.6 253.55002018093163 L 736.0 255.49998654369352 L 737.4 257.45000065293834 L 738.8 259.4000147621832 L 740.2 261.3499811249451 L 741.6 263.29999523418996 L 743.0 265.2500093434347 L 744.4 267.2000234526796 L 745.8 269.1499898154415 L 747.2 271.10000392468635 L 748.6 273.05001803393117" fill="none" stroke="blue" stroke-width="2"/>
<path d="M 50.0 200.0 M 51.4 125.14998730618244 L 52.8 125.30000675554086 L 54.2 125.44997845841635 L 55.6 125.59999790777478 L 57.0 125.7500173571332 L 58.4 125.89998906000869 L 59.8 126.05000850936712 L 61.2 126.20002795872553 L 62.6 126.34999966160103 L 64.0 126.50001911095944 L 65.4 126.64999081383493 L 66.8 126.80001026319336 L 68.2 126.95002971255178 L 69.6 127.10000141542727 L 71.0 127.2500208647857 L 72.4 127.39999256766119 L 73.8 127.5500120170196 L 75.2 127.70003146637804 L 76.6 127.85000316925353 L 78.0 128.00002261861192 L 79.4 128.14999432148744 L 80.8 128.30001377084585 L 82.2 128.45003322020426 L 83.6 128.60000492307978 L 85.0 128.7500243724382 L 86.4 128.89999607531368 L 87.8 129.05001552467212 L 89.2 129.20003497403053 L 90.6 129.35000667690602 L 92.0 129.50002612626446 L 93.4 129.64999782913992 L 94.80000000000001 129.80001727849836 L 96.2 129.94998898137385 L 97.6 130.10000843073226 L 99.0 130.25002788009067 L 100.4 130.3999995829662 L 101.8 130.5500190323246 L 103.19999999999999 130.6999907352001 L 104.6 130.85001018455853 L 106.0 131.00002963391694 L 107.4 131.15000133679243 L 108.80000000000001 131.30002078615084 L 110.19999999999999 131.44999248902633 L 111.6 131.60001193838474 L 113.0 131.75003138774318 L 114.4 131.90000309061867 L 115.8 132.05002253997708 L 117.2 132.1999942428526 L 118.60000000000001 132.350013692211 L 120.0 132.4999853950865 L 121.39999999999999 132.65000484444494 L 122.8 132.80002429380335 L 124.2 132.9499959966788 L 125.6 133.10001544603728 L 127.0 133.24998714891274 L 128.4 133.40000659827115 L 129.8 133.54997830114667 L 131.2 133.69999775050508 L 132.6 133.8500171998635 L 134.0 133.999988902739 L 135.39999999999998 134.15000835209742 L 136.8 134.2999800549729 L 138.2 134.44999950433134 L 139.60000000000002 134.5999712072068 L 141.0 134.74999065656525 L 142.4 134.90001010592368 L 143.8 135.04998180879915 L 145.2 135.20000125815758 L 146.60000000000002 135.34997296103307 L 148.0 135.49999241039149 L 149.39999999999998 135.649964113267 L 150.8 135.7999835626254 L 152.2 135.95000301198382 L 153.6 136.09997471485931 L 155.0 136.24999416421775 L 156.39999999999998 136.39996586709321 L 157.8 136.54998531645165 L 159.2 136.69995701932714 L 160.6 136.84997646868555 L 162.0 136.99994817156107 L 163.4 137.14996762091948 L 164.8 137.2999870702779 L 166.2 137.44995877315338 L 167.60000000000002 137.59997822251182 L 169.0 137.74994992538728 L 170.39999999999998 137.89996937474572 L 171.8 138.0499410776212 L 173.2 138.19996052697962 L 174.6 138.34997997633803 L 176.0 138.49995167921355 L 177.39999999999998 138.64997112857196 L 178.8 138.79994283144745 L 180.2 138.9499622808059 L 181.6 139.09993398368138 L 183.0 139.2499534330398 L 184.4 139.39997288239823 L 185.8 139.54994458527372 L 187.20000000000002 139.69996403463213 L 188.6 139.84993573750762 L 190.0 139.99995518686606 L 191.4 140.14992688974155 L 192.79999999999998 140.29994633909996 L 194.2 140.4499657884584 L 195.6 140.59993749133386 L 197.0 140.7499569406923 L 198.4 140.8999286435678 L 199.79999999999998 141.0499480929262 L 201.2 141.19996754228464 L 202.6 141.34993924516013 L 204.0 141.49995869451854 L 205.4 141.64993039739403 L 206.8 141.79994984675244 L 208.20000000000002 141.94992154962796 L 209.6 142.09994099898637 L 211.0 142.24996044834478 L 212.4 142.3999321512203 L 213.8 142.5499516005787 L 215.2 142.6999233034542 L 216.6 142.8499427528126 L 218.0 142.99996220217105 L 219.4 143.1499339050465 L 220.79999999999998 143.29995335440495 L 222.2 143.44992505728044 L 223.6 143.59994450663885 L 225.0 143.7499639559973 L 226.4 143.89993565887278 L 227.8 144.0499551082312 L 229.20000000000002 144.1999745575896 L 230.6 144.34994626046512 L 232.0 144.49996570982353 L 233.4 144.64993741269902 L 234.8 144.79995686205746 L 236.20000000000002 144.94997631141587 L 237.60000000000002 145.09994801429136 L 239.0 145.2499674636498 L 240.4 145.3999391665253 L 241.8 145.5499586158837 L 243.20000000000002 145.6999780652421 L 244.60000000000002 145.84994976811763 L 246.00000000000003 145.99996921747604 L 247.39999999999998 146.14998866683445 L 248.79999999999998 146.29996036970994 L 250.2 146.44997981906837 L 251.6 146.59995152194386 L 253.0 146.74997097130228 L 254.39999999999998 146.89999042066069 L 255.79999999999998 147.0499621235362 L 257.2 147.19998157289461 L 258.6 147.35000102225302 L 260.0 147.49997272512852 L 261.4 147.64999217448695 L 262.79999999999995 147.79996387736244 L 264.2 147.94998332672085 L 265.6 148.1000027760793 L 267.0 148.24997447895475 L 268.4 148.3999939283132 L 269.8 148.5500133776716 L 271.2 148.6999850805471 L 272.6 148.8500045299055 L 274.0 148.99997623278102 L 275.4 149.14999568213943 L 276.8 149.30001513149784 L 278.20000000000005 149.44998683437336 L 279.6 149.60000628373177 L 281.0 149.75002573309018 L 282.4 149.8999974359657 L 283.8 150.0500168853241 L 285.20000000000005 150.20003633468252 L 286.6 150.350008037558 L 288.0 150.50002748691645 L 289.4 150.6499991897919 L 290.79999999999995 150.80001863915035 L 292.2 150.95003808850876 L 293.6 151.10000979138425 L 295.0 151.2500292407427 L 296.4 151.4000486901011 L 297.79999999999995 151.5500203929766 L 299.2 151.70003984233503 L 300.6 151.85001154521052 L 302.0 152.00003099456893 L 303.4 152.15005044392734 L 304.79999999999995 152.30002214680286 L 306.2 152.45004159616127 L 307.6 152.60006104551968 L 309.0 152.7500327483952 L 310.4 152.9000521977536 L 311.8 153.0500239006291 L 313.2 153.2000433499875 L 314.6 153.35006279934595 L 316.0 153.50003450222144 L 317.4 153.65005395157985 L 318.8 153.80002565445534 L 320.2 153.95004510381378 L 321.6 154.1000645531722 L 323.0 154.25003625604768 L 324.40000000000003 154.4000557054061 L 325.8 154.55007515476453 L 327.2 154.70004685764002 L 328.6 154.85006630699843 L 330.0 155.00003800987392 L 331.40000000000003 155.15005745923236 L 332.8 155.30007690859077 L 334.20000000000005 155.45004861146626 L 335.59999999999997 155.60006806082467 L 337.0 155.7500397637002 L 338.4 155.9000592130586 L 339.8 156.050078662417 L 341.2 156.2000503652925 L 342.59999999999997 156.35006981465094 L 344.0 156.50004151752643 L 345.4 156.65006096688484 L 346.8 156.80003266976033 L 348.2 156.95005211911877 L 349.59999999999997 157.10007156847718 L 351.0 157.25004327135267 L 352.4 157.40006272071108 L 353.8 157.5500344235866 L 355.2 157.700053872945 L 356.6 157.8500255758205 L 358.0 158.0000450251789 L 359.4 158.15006447453734 L 360.8 158.30003617741284 L 362.2 158.45005562677125 L 363.6 158.60002732964674 L 365.0 158.75004677900517 L 366.40000000000003 158.90001848188066 L 367.8 159.05003793123907 L 369.2 159.20005738059749 L 370.6 159.350029083473 L 372.0 159.5000485328314 L 373.40000000000003 159.6500202357069 L 374.8 159.80003968506531 L 376.20000000000005 159.9500113879408 L 377.6 160.10003083729924 L 379.0 160.25005028665765 L 380.4 160.40002198953314 L 381.8 160.55004143889158 L 383.2 160.70001314176707 L 384.59999999999997 160.85003259112548 L 386.0 161.00000429400097 L 387.4 161.1500237433594 L 388.8 161.2999954462349 L 390.2 161.4500148955933 L 391.59999999999997 161.60003434495172 L 393.0 161.75000604782724 L 394.4 161.90002549718565 L 395.8 162.04999720006114 L 397.2 162.20001664941955 L 398.6 162.34998835229504 L 400.0 162.50000780165348 L 401.4 162.64997950452897 L 402.8 162.79999895388738 L 404.2 162.94997065676287 L 405.6 163.0999901061213 L 407.0 163.25000955547972 L 408.40000000000003 163.3999812583552 L 409.8 163.55000070771365 L 411.2 163.6999724105891 L 412.6 163.84999185994755 L 414.0 163.99996356282304 L 415.40000000000003 164.14998301218145 L 416.8 164.29995471505697 L 418.2 164.44997416441538 L 419.6 164.5999936137738 L 421.0 164.74996531664928 L 422.40000000000003 164.89998476600772 L 423.8 165.0499564688832 L 425.20000000000005 165.19997591824162 L 426.6 165.3499476211171 L 428.0 165.49996707047555 L 429.40000000000003 165.64998651983396 L 430.8 165.79995822270945 L 432.20000000000005 165.94997767206786 L 433.6 166.09994937494338 L 435.00000000000006 166.2499688243018 L 436.40000000000003 166.39994052717728 L 437.8 166.5499599765357 L 439.20000000000005 166.69993167941118 L 440.6 166.84995112876962 L 442.00000000000006 166.99997057812803 L 443.40000000000003 167.14994228100352 L 444.79999999999995 167.29996173036193 L 446.2 167.44993343323745 L 447.59999999999997 167.59995288259586 L 448.99999999999994 167.74992458547135 L 450.4 167.8999440348298 L 451.79999999999995 168.0499634841882 L 453.2 168.1999351870637 L 454.59999999999997 168.3499546364221 L 456.0 168.4999263392976 L 457.4 168.64994578865603 L 458.79999999999995 168.79996523801444 L 460.2 168.94993694088993 L 461.59999999999997 169.09995639024837 L 463.0 169.24992809312386 L 464.4 169.39994754248227 L 465.79999999999995 169.54996699184068 L 467.2 169.6999386947162 L 468.59999999999997 169.8499581440746 L 470.0 169.9999298469501 L 471.4 170.1499492963085 L 472.8 170.29996874566694 L 474.2 170.44994044854243 L 475.59999999999997 170.59995989790085 L 477.0 170.74993160077634 L 478.4 170.89995105013477 L 479.8 171.04997049949318 L 481.2 171.19994220236867 L 482.6 171.34996165172709 L 484.0 171.4999333546026 L 485.4 171.649952803961 L 486.8 171.79997225331942 L 488.2 171.94994395619491 L 489.6 172.09996340555335 L 491.0 172.24993510842884 L 492.4 172.39995455778725 L 493.8 172.5499740071457 L 495.2 172.69994571002118 L 496.6 172.8499651593796 L 498.0 172.999984608738 L 499.40000000000003 173.1499563116135 L 500.8 173.29997576097193 L 502.2 173.44994746384742 L 503.6 173.59996691320583 L 505.0 173.74998636256424 L 506.40000000000003 173.89995806543976 L 507.8 174.04997751479817 L 509.20000000000005 174.19999696415658 L 510.6 174.3499686670321 L 512.0 174.4999881163905 L 513.4000000000001 174.65000756574892 L 514.8 174.7999792686244 L 516.2 174.94999871798285 L 517.6 175.09997042085834 L 519.0 175.24998987021675 L 520.4000000000001 175.40000931957516 L 521.8 175.54998102245068 L 523.2 175.7000004718091 L 524.6 175.8500199211675 L 526.0 175.999991624043 L 527.4000000000001 176.15001107340143 L 528.8 176.29998277627692 L 530.2 176.45000222563533 L 531.5999999999999 176.60002167499377 L 533.0 176.74999337786926 L 534.4 176.90001282722767 L 535.8 177.05003227658608 L 537.2 177.2000039794616 L 538.5999999999999 177.35002342882 L 540.0 177.50004287817842 L 541.4 177.6500145810539 L 542.8 177.80003403041235 L 544.2 177.95000573328784 L 545.5999999999999 178.10002518264625 L 547.0 178.2500446320047 L 548.4 178.40001633488018 L 549.8 178.5500357842386 L 551.2 178.700055233597 L 552.5999999999999 178.8500269364725 L 554.0 179.00004638583093 L 555.4 179.15001808870642 L 556.8 179.30003753806483 L 558.2 179.45005698742327 L 559.5999999999999 179.60002869029876 L 561.0 179.75004813965717 L 562.4 179.90001984253266 L 563.8 180.0500392918911 L 565.2 180.2000587412495 L 566.6 180.350030444125 L 568.0 180.5000498934834 L 569.4 180.65006934284185 L 570.8 180.80004104571734 L 572.2 180.95006049507575 L 573.6 181.10003219795124 L 575.0 181.25005164730968 L 576.4 181.40007109666809 L 577.8 181.55004279954358 L 579.2 181.700062248902 L 580.6 181.8500339517775 L 582.0 182.00005340113592 L 583.4 182.15007285049433 L 584.8 182.30004455336982 L 586.2 182.45006400272825 L 587.6 182.60003570560374 L 589.0 182.75005515496215 L 590.4 182.9000746043206 L 591.8000000000001 183.05004630719608 L 593.2 183.2000657565545 L 594.6 183.35003745942998 L 596.0 183.5000569087884 L 597.4 183.65007635814683 L 598.8000000000001 183.80004806102232 L 600.2 183.95006751038073 L 601.6 184.10003921325622 L 603.0 184.25005866261466 L 604.4 184.40003036549015 L 605.8000000000001 184.55004981484856 L 607.2 184.700069264207 L 608.6 184.8500409670825 L 610.0 185.0000604164409 L 611.4 185.1500321193164 L 612.8000000000001 185.3000515686748 L 614.2 185.45007101803324 L 615.6 185.60004272090873 L 617.0 185.75006217026714 L 618.4000000000001 185.90003387314263 L 619.8 186.05005332250107 L 621.1999999999999 186.20002502537656 L 622.5999999999999 186.35004447473497 L 624.0 186.5000639240934 L 625.4 186.6500356269689 L 626.8 186.8000550763273 L 628.1999999999999 186.9500267792028 L 629.6 187.1000462285612 L 631.0 187.25001793143673 L 632.4 187.40003738079514 L 633.8 187.55005683015355 L 635.1999999999999 187.70002853302904 L 636.6 187.85004798238748 L 638.0 188.00001968526297 L 639.4 188.15003913462138 L 640.8 188.30001083749687 L 642.1999999999999 188.4500302868553 L 643.6 188.6000019897308 L 645.0 188.7500214390892 L 646.4 188.90004088844762 L 647.8 189.05001259132314 L 649.1999999999999 189.20003204068155 L 650.6 189.35000374355704 L 652.0 189.50002319291545 L 653.4 189.64999489579094 L 654.8 189.80001434514938 L 656.2 189.9500337945078 L 657.6 190.10000549738328 L 659.0 190.25002494674172 L 660.4 190.3999966496172 L 661.8 190.55001609897562 L 663.2 190.6999878018511 L 664.6 190.85000725120955 L 666.0 191.00002670056796 L 667.4 191.14999840344345 L 668.8 191.30001785280186 L 670.2 191.44998955567735 L 671.6 191.6000090050358 L 673.0 191.74998070791128 L 674.4 191.9000001572697 L 675.8000000000001 192.05001960662813 L 677.2 192.19999130950362 L 678.6 192.35001075886203 L 680.0 192.49998246173752 L 681.4 192.65000191109596 L 682.8000000000001 192.79997361397145 L 684.2 192.94999306332986 L 685.6 193.10001251268827 L 687.0 193.24998421556379 L 688.4 193.4000036649222 L 689.8000000000001 193.54997536779769 L 691.2 193.6999948171561 L 692.6 193.8499665200316 L 694.0 193.99998596939002 L 695.4 194.15000541874844 L 696.8000000000001 194.29997712162393 L 698.2 194.44999657098236 L 699.6 194.59996827385785 L 701.0 194.74998772321626 L 702.4000000000001 194.90000717257467 L 703.8000000000001 195.0499788754502 L 705.2 195.1999983248086 L 706.5999999999999 195.3499700276841 L 708.0 195.4999894770425 L 709.4 195.65000892640094 L 710.8 195.79998062927643 L 712.1999999999999 195.95000007863484 L 713.6 196.09997178151033 L 715.0 196.24999123086877 L 716.4 196.40001068022718 L 717.8 196.54998238310267 L 719.1999999999999 196.70000183246108 L 720.6 196.8499735353366 L 722.0 196.999992984695 L 723.4 197.15001243405342 L 724.8 197.2999841369289 L 726.1999999999999 197.45000358628735 L 727.6 197.59997528916284 L 729.0 197.74999473852125 L 730.4 197.9000141878797 L 731.8 198.04998589075518 L 733.1999999999999 198.2000053401136 L 734.6 198.34997704298908 L 736.0 198.4999964923475 L 737.4 198.65001594170593 L 738.8 198.79998764458142 L 740.2 198.95000709393983 L 741.6 199.09997879681532 L 743.0 199.24999824617376 L 744.4 199.40001769553217 L 745.8 199.54998939840766 L 747.2 199.7000088477661 L 748.6 199.8499805506416" fill="none" stroke="red" stroke-width="2"/>
</g>
</svg>