<svg width="800" height="800" xmlns="http://www.w3.org/2000/svg" font-family="Arial, sans-serif">
<rect width="100%" height="100%" fill="#ffffff"/>
<line x1="50.0" y1="50" x2="50.0" y2="350" stroke="#eeeeee" stroke-width="1"/>
<line x1="120.0" y1="50" x2="120.0" y2="350" stroke="#eeeeee" stroke-width="1"/>
<line x1="190.0" y1="50" x2="190.0" y2="350" stroke="#eeeeee" stroke-width="1"/>
<line x1="260.0" y1="50" x2="260.0" y2="350" stroke="#eeeeee" stroke-width="1"/>
<line x1="330.0" y1="50" x2="330.0" y2="350" stroke="#eeeeee" stroke-width="1"/>
<line x1="400.0" y1="50" x2="400.0" y2="350" stroke="#eeeeee" stroke-width="1"/>
<line x1="470.00000000000006" y1="50" x2="470.00000000000006" y2="350" stroke="#eeeeee" stroke-width="1"/>
<line x1="540.0" y1="50" x2="540.0" y2="350" stroke="#eeeeee" stroke-width="1"/>
<line x1="610.0" y1="50" x2="610.0" y2="350" stroke="#eeeeee" stroke-width="1"/>
<line x1="680.0" y1="50" x2="680.0" y2="350" stroke="#eeeeee" stroke-width="1"/>
<line x1="750.0" y1="50" x2="750.0" y2="350" stroke="#eeeeee" stroke-width="1"/>
<text x="400.0" y="30" text-anchor="middle" font-weight="bold" font-size="16">Frequency Response (Magnitude)</text>
<line x1="50" y1="350" x2="750" y2="350" stroke="black" stroke-width="2"/>
<line x1="50" y1="50" x2="50" y2="350" stroke="black" stroke-width="2"/>
<text x="50.0" y="370" text-anchor="middle">0.0</text>
<line x1="50.0" y1="50" x2="50.0" y2="350" stroke="#ccc" stroke-dasharray="2,2"/>
<text x="190.0" y="370" text-anchor="middle">0.1</text>
<line x1="190.0" y1="50" x2="190.0" y2="350" stroke="#ccc" stroke-dasharray="2,2"/>
<text x="330.0" y="370" text-anchor="middle">0.2</text>
<line x1="330.0" y1="50" x2="330.0" y2="350" stroke="#ccc" stroke-dasharray="2,2"/>
<text x="470.0" y="370" text-anchor="middle">0.3</text>
<line x1="470.0" y1="50" x2="470.0" y2="350" stroke="#ccc" stroke-dasharray="2,2"/>
<text x="610.0" y="370" text-anchor="middle">0.4</text>
<line x1="610.0" y1="50" x2="610.0" y2="350" stroke="#ccc" stroke-dasharray="2,2"/>
<text x="750.0" y="370" text-anchor="middle">0.5</text>
<line x1="750.0" y1="50" x2="750.0" y2="350" stroke="#ccc" stroke-dasharray="2,2"/>
<path d="M 50.0 137.8679 L 51.4 137.86895 L 52.8 137.87210000000002 L 54.2 137.87735 L 55.6 137.8847 L 57.0 137.89415 L 58.4 137.9057 L 59.8 137.9192 L 61.2 137.93495000000001 L 62.6 137.9528 L 64.0 137.9726 L 65.4 137.99464999999998 L 66.8 138.01865 L 68.2 138.0449 L 69.6 138.07309999999998 L 71.0 138.1034 L 72.4 138.13594999999998 L 73.8 138.17045000000002 L 75.2 138.20705 L 76.6 138.24575000000002 L 78.0 138.28654999999998 L 79.4 138.32944999999998 L 80.8 138.37445000000002 L 82.2 138.42155 L 83.6 138.4706 L 85.0 138.52190000000002 L 86.4 138.5753 L 87.8 138.63065 L 89.2 138.6881 L 90.6 138.7478 L 92.0 138.80945 L 93.4 138.8732 L 94.80000000000001 138.93905 L 96.2 139.007 L 97.6 139.07690000000002 L 99.0 139.14905000000002 L 100.4 139.22315 L 101.8 139.2995 L 103.19999999999999 139.3778 L 104.6 139.45819999999998 L 106.0 139.5407 L 107.4 139.6253 L 108.80000000000001 139.71185 L 110.19999999999999 139.80065 L 111.6 139.89139999999998 L 113.0 139.98425 L 114.4 140.0792 L 115.8 140.17625 L 117.2 140.27524999999997 L 118.60000000000001 140.37650000000002 L 120.0 140.47969999999998 L 121.39999999999999 140.585 L 122.8 140.69224999999997 L 124.2 140.80175 L 125.6 140.9132 L 127.0 141.02675000000002 L 128.4 141.14239999999998 L 129.8 141.26000000000002 L 131.2 141.37969999999999 L 132.6 141.5015 L 134.0 141.62539999999998 L 135.39999999999998 141.75125 L 136.8 141.87935000000002 L 138.2 142.00924999999998 L 139.60000000000002 142.1414 L 141.0 142.2755 L 142.4 142.4117 L 143.8 142.54985000000002 L 145.2 142.6901 L 146.60000000000002 142.83245000000002 L 148.0 142.97675 L 149.39999999999998 143.12315 L 150.8 143.27165 L 152.2 143.4221 L 153.6 143.57465 L 155.0 143.72915 L 156.39999999999998 143.88575 L 157.8 144.04444999999998 L 159.2 144.2051 L 160.6 144.3677 L 162.0 144.53255000000001 L 163.4 144.6992 L 164.8 144.86794999999998 L 166.2 145.03879999999998 L 167.60000000000002 145.2116 L 169.0 145.38649999999998 L 170.39999999999998 145.56335 L 171.8 145.74215 L 173.2 145.92305 L 174.6 146.10604999999998 L 176.0 146.291 L 177.39999999999998 146.4779 L 178.8 146.66674999999998 L 180.2 146.8577 L 181.6 147.05075 L 183.0 147.24575 L 184.4 147.4427 L 185.8 147.64159999999998 L 187.20000000000002 147.8426 L 188.6 148.04555 L 190.0 148.25045 L 191.4 148.45745 L 192.79999999999998 148.66625 L 194.2 148.87715 L 195.6 149.09015 L 197.0 149.30495000000002 L 198.4 149.52185 L 199.79999999999998 149.7407 L 201.2 149.9615 L 202.6 150.18425 L 204.0 150.4091 L 205.4 150.63575 L 206.8 150.86450000000002 L 208.20000000000002 151.09519999999998 L 209.6 151.32770000000002 L 211.0 151.5623 L 212.4 151.79885 L 213.8 152.03735 L 215.2 152.27779999999998 L 216.6 152.5202 L 218.0 152.76455 L 219.4 153.01085 L 220.79999999999998 153.2591 L 222.2 153.5093 L 223.6 153.76145 L 225.0 154.01555000000002 L 226.4 154.2716 L 227.8 154.52945 L 229.20000000000002 154.7894 L 230.6 155.05115 L 232.0 155.31485 L 233.4 155.5805 L 234.8 155.84795000000003 L 236.20000000000002 156.11749999999998 L 237.60000000000002 156.38885000000002 L 239.0 156.66215 L 240.4 156.93740000000003 L 241.8 157.21445 L 243.20000000000002 157.49345 L 244.60000000000002 157.7744 L 246.00000000000003 158.05714999999998 L 247.39999999999998 158.34185 L 248.79999999999998 158.62849999999997 L 250.2 158.91695 L 251.6 159.20735 L 253.0 159.49955 L 254.39999999999998 159.79370000000003 L 255.79999999999998 160.08964999999998 L 257.2 160.38754999999998 L 258.6 160.6874 L 260.0 160.9889 L 261.4 161.29250000000002 L 262.79999999999995 161.59775 L 264.2 161.90494999999999 L 265.6 162.2141 L 267.0 162.52505 L 268.4 162.8378 L 269.8 163.15234999999998 L 271.2 163.46885 L 272.6 163.78715 L 274.0 164.10725 L 275.4 164.42929999999998 L 276.8 164.75300000000001 L 278.20000000000005 165.07864999999998 L 279.6 165.4061 L 281.0 165.73534999999998 L 282.4 166.06654999999998 L 283.8 166.39939999999999 L 285.20000000000005 166.7342 L 286.6 167.07065 L 288.0 167.40904999999998 L 289.4 167.74925000000002 L 290.79999999999995 168.0911 L 292.2 168.4349 L 293.6 168.78035 L 295.0 169.12775 L 296.4 169.47680000000003 L 297.79999999999995 169.82765 L 299.2 170.1803 L 300.6 170.53475 L 302.0 170.89100000000002 L 303.4 171.24890000000002 L 304.79999999999995 171.60875 L 306.2 171.97025 L 307.6 172.33339999999998 L 309.0 172.6985 L 310.4 173.06525 L 311.8 173.4338 L 313.2 173.804 L 314.6 174.176 L 316.0 174.54964999999999 L 317.4 174.92510000000001 L 318.8 175.30235 L 320.2 175.68124999999998 L 321.6 176.06195000000002 L 323.0 176.4443 L 324.40000000000003 176.8283 L 325.8 177.21409999999997 L 327.2 177.60154999999997 L 328.6 177.99065 L 330.0 178.38155 L 331.40000000000003 178.7741 L 332.8 179.16845 L 334.20000000000005 179.56429999999997 L 335.59999999999997 179.96195 L 337.0 180.36125 L 338.4 180.7622 L 339.8 181.16495 L 341.2 181.5692 L 342.59999999999997 181.97525 L 344.0 182.3828 L 345.4 182.79215 L 346.8 183.203 L 348.2 183.61565 L 349.59999999999997 184.0298 L 351.0 184.44574999999998 L 352.4 184.8632 L 353.8 185.28230000000002 L 355.2 185.70305 L 356.6 186.12545 L 358.0 186.54950000000002 L 359.4 186.97505 L 360.8 187.40225 L 362.2 187.8311 L 363.6 188.26145 L 365.0 188.69359999999998 L 366.40000000000003 189.12709999999998 L 367.8 189.5624 L 369.2 189.99905 L 370.6 190.4375 L 372.0 190.87745 L 373.40000000000003 191.3189 L 374.8 191.762 L 376.20000000000005 192.2066 L 377.6 192.65285 L 379.0 193.10060000000001 L 380.4 193.54985 L 381.8 194.00075 L 383.2 194.453 L 384.59999999999997 194.9069 L 386.0 195.36245 L 387.4 195.81935000000001 L 388.8 196.27790000000002 L 390.2 196.7378 L 391.59999999999997 197.19934999999998 L 393.0 197.6624 L 394.4 198.12695000000002 L 395.8 198.59300000000002 L 397.2 199.06055 L 398.6 199.52945 L 400.0 200.0 L 401.4 200.47205 L 402.8 200.94545 L 404.2 201.42034999999998 L 405.6 201.89675 L 407.0 202.37465 L 408.40000000000003 202.8539 L 409.8 203.33465 L 411.2 203.8169 L 412.6 204.3005 L 414.0 204.78560000000002 L 415.40000000000003 205.2722 L 416.8 205.76015 L 418.2 206.24945 L 419.6 206.74025 L 421.0 207.23255 L 422.40000000000003 207.72605 L 423.8 208.22119999999998 L 425.20000000000005 208.71755 L 426.6 209.21540000000002 L 428.0 209.71460000000002 L 429.40000000000003 210.21515 L 430.8 210.7172 L 432.20000000000005 211.22045 L 433.6 211.7252 L 435.00000000000006 212.2313 L 436.40000000000003 212.73875 L 437.8 213.24755 L 439.20000000000005 213.7577 L 440.6 214.2692 L 442.00000000000006 214.7819 L 443.40000000000003 215.2961 L 444.79999999999995 215.81165000000001 L 446.2 216.3284 L 447.59999999999997 216.8465 L 448.99999999999994 217.36595 L 450.4 217.88675 L 451.79999999999995 218.40875 L 453.2 218.93224999999998 L 454.59999999999997 219.45680000000002 L 456.0 219.98284999999998 L 457.4 220.50995 L 458.79999999999995 221.03855 L 460.2 221.56834999999998 L 461.59999999999997 222.09935000000002 L 463.0 222.6317 L 464.4 223.16525000000001 L 465.79999999999995 223.7 L 467.2 224.2361 L 468.59999999999997 224.77339999999998 L 470.0 225.31189999999998 L 471.4 225.85174999999998 L 472.8 226.39265 L 474.2 226.9349 L 475.59999999999997 227.47835 L 477.0 228.023 L 478.4 228.56885 L 479.8 229.1159 L 481.2 229.66415 L 482.6 230.21345000000002 L 484.0 230.76409999999998 L 485.4 231.31595 L 486.8 231.86885 L 488.2 232.42295000000001 L 489.6 232.97825 L 491.0 233.5346 L 492.4 234.0923 L 493.8 234.65105 L 495.2 235.21085 L 496.6 235.77185 L 498.0 236.33390000000003 L 499.40000000000003 236.89715 L 500.8 237.46159999999998 L 502.2 238.02710000000002 L 503.6 238.59365000000003 L 505.0 239.16125 L 506.40000000000003 239.73005 L 507.8 240.29989999999998 L 509.20000000000005 240.87095 L 510.6 241.4429 L 512.0 242.01605 L 513.4000000000001 242.5901 L 514.8 243.16535 L 516.2 243.74165 L 517.6 244.319 L 519.0 244.8974 L 520.4000000000001 245.4767 L 521.8 246.0572 L 523.2 246.6386 L 524.6 247.22105 L 526.0 247.80455 L 527.4000000000001 248.3891 L 528.8 248.97455000000002 L 530.2 249.56105 L 531.5999999999999 250.1486 L 533.0 250.73705 L 534.4 251.32655 L 535.8 251.91694999999999 L 537.2 252.5084 L 538.5999999999999 253.10075 L 540.0 253.694 L 541.4 254.2883 L 542.8 254.88350000000003 L 544.2 255.47975 L 545.5999999999999 256.07675 L 547.0 256.6748 L 548.4 257.27375 L 549.8 257.8736 L 551.2 258.47435 L 552.5999999999999 259.076 L 554.0 259.67855 L 555.4 260.282 L 556.8 260.88635 L 558.2 261.4916 L 559.5999999999999 262.0976 L 561.0 262.70465 L 562.4 263.31245 L 563.8 263.92115 L 565.2 264.5306 L 566.6 265.14095 L 568.0 265.7522 L 569.4 266.3642 L 570.8 266.9771 L 572.2 267.59075 L 573.6 268.2053 L 575.0 268.8206 L 576.4 269.43665 L 577.8 270.0536 L 579.2 270.6713 L 580.6 271.28975 L 582.0 271.90895 L 583.4 272.52905 L 584.8 273.14975 L 586.2 273.77135 L 587.6 274.39355 L 589.0 275.01665 L 590.4 275.6405 L 591.8000000000001 276.26495 L 593.2 276.89015 L 594.6 277.5161 L 596.0 278.1428 L 597.4 278.77025000000003 L 598.8000000000001 279.3983 L 600.2 280.0271 L 601.6 280.65665 L 603.0 281.28679999999997 L 604.4 281.91755 L 605.8000000000001 282.54905 L 607.2 283.18129999999996 L 608.6 283.81415 L 610.0 284.44759999999997 L 611.4 285.0818 L 612.8000000000001 285.71645 L 614.2 286.35185 L 615.6 286.988 L 617.0 287.6246 L 618.4000000000001 288.26195 L 619.8 288.89975 L 621.1999999999999 289.5383 L 622.5999999999999 290.1773 L 624.0 290.81705 L 625.4 291.45725 L 626.8 292.0982 L 628.1999999999999 292.7396 L 629.6 293.3816 L 631.0 294.02405 L 632.4 294.6671 L 633.8 295.31075 L 635.1999999999999 295.955 L 636.6 296.5997 L 638.0 297.24485 L 639.4 297.8906 L 640.8 298.53695 L 642.1999999999999 299.18375000000003 L 643.6 299.831 L 645.0 300.4787 L 646.4 301.127 L 647.8 301.77575 L 649.1999999999999 302.42495 L 650.6 303.07475 L 652.0 303.72485 L 653.4 304.3754 L 654.8 305.02655 L 656.2 305.678 L 657.6 306.3299 L 659.0 306.98225 L 660.4 307.63505 L 661.8 308.2883 L 663.2 308.942 L 664.6 309.596 L 666.0 310.25045 L 667.4 310.9052 L 668.8 311.5604 L 670.2 312.21605 L 671.6 312.872 L 673.0 313.5284 L 674.4 314.18495 L 675.8000000000001 314.8421 L 677.2 315.4994 L 678.6 316.15715 L 680.0 316.8152 L 681.4 317.4737 L 682.8000000000001 318.13235 L 684.2 318.7913 L 685.6 319.4507 L 687.0 320.1104 L 688.4 320.77025 L 689.8000000000001 321.43055 L 691.2 322.091 L 692.6 322.75175 L 694.0 323.4128 L 695.4 324.07415 L 696.8000000000001 324.73565 L 698.2 325.39745 L 699.6 326.05955 L 701.0 326.72180000000003 L 702.4000000000001 327.38435 L 703.8000000000001 328.04705 L 705.2 328.71005 L 706.5999999999999 329.3732 L 708.0 330.03665 L 709.4 330.70025 L 710.8 331.364 L 712.1999999999999 332.0279 L 713.6 332.69195 L 715.0 333.3563 L 716.4 334.0208 L 717.8 334.68545 L 719.1999999999999 335.3501 L 720.6 336.01505 L 722.0 336.68015 L 723.4 337.34525 L 724.8 338.01065 L 726.1999999999999 338.67605 L 727.6 339.3416 L 729.0 340.00715 L 730.4 340.673 L 731.8 341.33885 L 733.1999999999999 342.0047 L 734.6 342.6707 L 736.0 343.3367 L 737.4 344.00285 L 738.8 344.66915 L 740.2 345.3353 L 741.6 346.0016 L 743.0 346.6679 L 744.4 347.33435 L 745.8 348.0008 L 747.2 348.6671 L 748.6 349.33355" fill="none" stroke="blue" stroke-width="2"/>
<path d="M 50.0 350.0 L 51.4 349.33355 L 52.8 348.6671 L 54.2 348.0008 L 55.6 347.33435 L 57.0 346.6679 L 58.4 346.0016 L 59.8 345.3353 L 61.2 344.66915 L 62.6 344.00285 L 64.0 343.3367 L 65.4 342.6707 L 66.8 342.0047 L 68.2 341.33885 L 69.6 340.673 L 71.0 340.00715 L 72.4 339.3416 L 73.8 338.67605 L 75.2 338.01065 L 76.6 337.34525 L 78.0 336.68015 L 79.4 336.01505 L 80.8 335.3501 L 82.2 334.68545 L 83.6 334.0208 L 85.0 333.3563 L 86.4 332.69195 L 87.8 332.0279 L 89.2 331.364 L 90.6 330.70025 L 92.0 330.03665 L 93.4 329.3732 L 94.80000000000001 328.71005 L 96.2 328.04705 L 97.6 327.38435 L 99.0 326.72180000000003 L 100.4 326.05955 L 101.8 325.39745 L 103.19999999999999 324.73565 L 104.6 324.07415 L 106.0 323.4128 L 107.4 322.75175 L 108.80000000000001 322.091 L 110.19999999999999 321.43055 L 111.6 320.77025 L 113.0 320.1104 L 114.4 319.4507 L 115.8 318.7913 L 117.2 318.13235 L 118.60000000000001 317.4737 L 120.0 316.8152 L 121.39999999999999 316.15715 L 122.8 315.4994 L 124.2 314.8421 L 125.6 314.18495 L 127.0 313.5284 L 128.4 312.872 L 129.8 312.21605 L 131.2 311.5604 L 132.6 310.9052 L 134.0 310.25045 L 135.39999999999998 309.596 L 136.8 308.942 L 138.2 308.2883 L 139.60000000000002 307.63505 L 141.0 306.98225 L 142.4 306.3299 L 143.8 305.678 L 145.2 305.02655 L 146.60000000000002 304.3754 L 148.0 303.72485 L 149.39999999999998 303.07475 L 150.8 302.42495 L 152.2 301.77575 L 153.6 301.127 L 155.0 300.4787 L 156.39999999999998 299.831 L 157.8 299.18375000000003 L 159.2 298.53695 L 160.6 297.8906 L 162.0 297.24485 L 163.4 296.5997 L 164.8 295.955 L 166.2 295.31075 L 167.60000000000002 294.6671 L 169.0 294.02405 L 170.39999999999998 293.3816 L 171.8 292.7396 L 173.2 292.0982 L 174.6 291.45725 L 176.0 290.81705 L 177.39999999999998 290.1773 L 178.8 289.5383 L 180.2 288.89975 L 181.6 288.26195 L 183.0 287.6246 L 184.4 286.988 L 185.8 286.35185 L 187.20000000000002 285.71645 L 188.6 285.0818 L 190.0 284.44759999999997 L 191.4 283.81415 L 192.79999999999998 283.18129999999996 L 194.2 282.54905 L 195.6 281.91755 L 197.0 281.28679999999997 L 198.4 280.65665 L 199.79999999999998 280.0271 L 201.2 279.3983 L 202.6 278.77025000000003 L 204.0 278.1428 L 205.4 277.5161 L 206.8 276.89015 L 208.20000000000002 276.26495 L 209.6 275.6405 L 211.0 275.01665 L 212.4 274.39355 L 213.8 273.77135 L 215.2 273.14975 L 216.6 272.52905 L 218.0 271.90895 L 219.4 271.28975 L 220.79999999999998 270.6713 L 222.2 270.0536 L 223.6 269.43665 L 225.0 268.8206 L 226.4 268.2053 L 227.8 267.59075 L 229.20000000000002 266.9771 L 230.6 266.3642 L 232.0 265.7522 L 233.4 265.14095 L 234.8 264.5306 L 236.20000000000002 263.92115 L 237.60000000000002 263.31245 L 239.0 262.70465 L 240.4 262.0976 L 241.8 261.4916 L 243.20000000000002 260.88635 L 244.60000000000002 260.282 L 246.00000000000003 259.67855 L 247.39999999999998 259.076 L 248.79999999999998 258.47435 L 250.2 257.8736 L 251.6 257.27375 L 253.0 256.6748 L 254.39999999999998 256.07675 L 255.79999999999998 255.47975 L 257.2 254.88350000000003 L 258.6 254.2883 L 260.0 253.694 L 261.4 253.10075 L 262.79999999999995 252.5084 L 264.2 251.91694999999999 L 265.6 251.32655 L 267.0 250.73705 L 268.4 250.1486 L 269.8 249.56105 L 271.2 248.97455000000002 L 272.6 248.3891 L 274.0 247.80455 L 275.4 247.22105 L 276.8 246.6386 L 278.20000000000005 246.0572 L 279.6 245.4767 L 281.0 244.8974 L 282.4 244.319 L 283.8 243.74165 L 285.20000000000005 243.16535 L 286.6 242.5901 L 288.0 242.01605 L 289.4 241.4429 L 290.79999999999995 240.87095 L 292.2 240.29989999999998 L 293.6 239.73005 L 295.0 239.16125 L 296.4 238.59365000000003 L 297.79999999999995 238.02710000000002 L 299.2 237.46159999999998 L 300.6 236.89715 L 302.0 236.33390000000003 L 303.4 235.77185 L 304.79999999999995 235.21085 L 306.2 234.65105 L 307.6 234.0923 L 309.0 233.5346 L 310.4 232.97825 L 311.8 232.42295000000001 L 313.2 231.86885 L 314.6 231.31595 L 316.0 230.76409999999998 L 317.4 230.21345000000002 L 318.8 229.66415 L 320.2 229.1159 L 321.6 228.56885 L 323.0 228.023 L 324.40000000000003 227.47835 L 325.8 226.9349 L 327.2 226.39265 L 328.6 225.85174999999998 L 330.0 225.31189999999998 L 331.40000000000003 224.77339999999998 L 332.8 224.2361 L 334.20000000000005 223.7 L 335.59999999999997 223.16525000000001 L 337.0 222.6317 L 338.4 222.09935000000002 L 339.8 221.56834999999998 L 341.2 221.03855 L 342.59999999999997 220.50995 L 344.0 219.98284999999998 L 345.4 219.45680000000002 L 346.8 218.93224999999998 L 348.2 218.40875 L 349.59999999999997 217.88675 L 351.0 217.36595 L 352.4 216.8465 L 353.8 216.3284 L 355.2 215.81165000000001 L 356.6 215.2961 L 358.0 214.7819 L 359.4 214.2692 L 360.8 213.7577 L 362.2 213.24755 L 363.6 212.73875 L 365.0 212.2313 L 366.40000000000003 211.7252 L 367.8 211.22045 L 369.2 210.7172 L 370.6 210.21515 L 372.0 209.71460000000002 L 373.40000000000003 209.21540000000002 L 374.8 208.71755 L 376.20000000000005 208.22119999999998 L 377.6 207.72605 L 379.0 207.23255 L 380.4 206.74025 L 381.8 206.24945 L 383.2 205.76015 L 384.59999999999997 205.2722 L 386.0 204.78560000000002 L 387.4 204.3005 L 388.8 203.8169 L 390.2 203.33465 L 391.59999999999997 202.8539 L 393.0 202.37465 L 394.4 201.89675 L 395.8 201.42034999999998 L 397.2 200.94545 L 398.6 200.47205 L 400.0 200.0 L 401.4 199.52945 L 402.8 199.06055 L 404.2 198.59300000000002 L 405.6 198.12695000000002 L 407.0 197.6624 L 408.40000000000003 197.19934999999998 L 409.8 196.7378 L 411.2 196.27790000000002 L 412.6 195.81935000000001 L 414.0 195.36245 L 415.40000000000003 194.9069 L 416.8 194.453 L 418.2 194.00075 L 419.6 193.54985 L 421.0 193.10060000000001 L 422.40000000000003 192.65285 L 423.8 192.2066 L 425.20000000000005 191.762 L 426.6 191.3189 L 428.0 190.87745 L 429.40000000000003 190.4375 L 430.8 189.99905 L 432.20000000000005 189.5624 L 433.6 189.12709999999998 L 435.00000000000006 188.69359999999998 L 436.40000000000003 188.26145 L 437.8 187.8311 L 439.20000000000005 187.40225 L 440.6 186.97505 L 442.00000000000006 186.54950000000002 L 443.40000000000003 186.12545 L 444.79999999999995 185.70305 L 446.2 185.28230000000002 L 447.59999999999997 184.8632 L 448.99999999999994 184.44574999999998 L 450.4 184.0298 L 451.79999999999995 183.61565 L 453.2 183.203 L 454.59999999999997 182.79215 L 456.0 182.3828 L 457.4 181.97525 L 458.79999999999995 181.5692 L 460.2 181.16495 L 461.59999999999997 180.7622 L 463.0 180.36125 L 464.4 179.96195 L 465.79999999999995 179.56429999999997 L 467.2 179.16845 L 468.59999999999997 178.7741 L 470.0 178.38155 L 471.4 177.99065 L 472.8 177.60154999999997 L 474.2 177.21409999999997 L 475.59999999999997 176.8283 L 477.0 176.4443 L 478.4 176.06195000000002 L 479.8 175.68124999999998 L 481.2 175.30235 L 482.6 174.92510000000001 L 484.0 174.54964999999999 L 485.4 174.176 L 486.8 173.804 L 488.2 173.4338 L 489.6 173.06525 L 491.0 172.6985 L 492.4 172.33339999999998 L 493.8 171.97025 L 495.2 171.60875 L 496.6 171.24890000000002 L 498.0 170.89100000000002 L 499.40000000000003 170.53475 L 500.8 170.1803 L 502.2 169.82765 L 503.6 169.47680000000003 L 505.0 169.12775 L 506.40000000000003 168.78035 L 507.8 168.4349 L 509.20000000000005 168.0911 L 510.6 167.74925000000002 L 512.0 167.40904999999998 L 513.4000000000001 167.07065 L 514.8 166.7342 L 516.2 166.39939999999999 L 517.6 166.06654999999998 L 519.0 165.73534999999998 L 520.4000000000001 165.4061 L 521.8 165.07864999999998 L 523.2 164.75300000000001 L 524.6 164.42929999999998 L 526.0 164.10725 L 527.4000000000001 163.78715 L 528.8 163.46885 L 530.2 163.15234999999998 L 531.5999999999999 162.8378 L 533.0 162.52505 L 534.4 162.2141 L 535.8 161.90494999999999 L 537.2 161.59775 L 538.5999999999999 161.29250000000002 L 540.0 160.9889 L 541.4 160.6874 L 542.8 160.38754999999998 L 544.2 160.08964999999998 L 545.5999999999999 159.79370000000003 L 547.0 159.49955 L 548.4 159.20735 L 549.8 158.91695 L 551.2 158.62849999999997 L 552.5999999999999 158.34185 L 554.0 158.05714999999998 L 555.4 157.7744 L 556.8 157.49345 L 558.2 157.21445 L 559.5999999999999 156.93740000000003 L 561.0 156.66215 L 562.4 156.38885000000002 L 563.8 156.11749999999998 L 565.2 155.84795000000003 L 566.6 155.5805 L 568.0 155.31485 L 569.4 155.05115 L 570.8 154.7894 L 572.2 154.52945 L 573.6 154.2716 L 575.0 154.01555000000002 L 576.4 153.76145 L 577.8 153.5093 L 579.2 153.2591 L 580.6 153.01085 L 582.0 152.76455 L 583.4 152.5202 L 584.8 152.27779999999998 L 586.2 152.03735 L 587.6 151.79885 L 589.0 151.5623 L 590.4 151.32770000000002 L 591.8000000000001 151.09519999999998 L 593.2 150.86450000000002 L 594.6 150.63575 L 596.0 150.4091 L 597.4 150.18425 L 598.8000000000001 149.9615 L 600.2 149.7407 L 601.6 149.52185 L 603.0 149.30495000000002 L 604.4 149.09015 L 605.8000000000001 148.87715 L 607.2 148.66625 L 608.6 148.45745 L 610.0 148.25045 L 611.4 148.04555 L 612.8000000000001 147.8426 L 614.2 147.64159999999998 L 615.6 147.4427 L 617.0 147.24575 L 618.4000000000001 147.05075 L 619.8 146.8577 L 621.1999999999999 146.66674999999998 L 622.5999999999999 146.4779 L 624.0 146.291 L 625.4 146.10604999999998 L 626.8 145.92305 L 628.1999999999999 145.74215 L 629.6 145.56335 L 631.0 145.38649999999998 L 632.4 145.2116 L 633.8 145.03879999999998 L 635.1999999999999 144.86794999999998 L 636.6 144.6992 L 638.0 144.53255000000001 L 639.4 144.3677 L 640.8 144.2051 L 642.1999999999999 144.04444999999998 L 643.6 143.88575 L 645.0 143.72915 L 646.4 143.57465 L 647.8 143.4221 L 649.1999999999999 143.27165 L 650.6 143.12315 L 652.0 142.97675 L 653.4 142.83245000000002 L 654.8 142.6901 L 656.2 142.54985000000002 L 657.6 142.4117 L 659.0 142.2755 L 660.4 142.1414 L 661.8 142.00924999999998 L 663.2 141.87935000000002 L 664.6 141.75125 L 666.0 141.62539999999998 L 667.4 141.5015 L 668.8 141.37969999999999 L 670.2 141.26000000000002 L 671.6 141.14239999999998 L 673.0 141.02675000000002 L 674.4 140.9132 L 675.8000000000001 140.80175 L 677.2 140.69224999999997 L 678.6 140.585 L 680.0 140.47969999999998 L 681.4 140.37650000000002 L 682.8000000000001 140.27524999999997 L 684.2 140.17625 L 685.6 140.0792 L 687.0 139.98425 L 688.4 139.89139999999998 L 689.8000000000001 139.80065 L 691.2 139.71185 L 692.6 139.6253 L 694.0 139.5407 L 695.4 139.45819999999998 L 696.8000000000001 139.3778 L 698.2 139.2995 L 699.6 139.22315 L 701.0 139.14905000000002 L 702.4000000000001 139.07690000000002 L 703.8000000000001 139.007 L 705.2 138.93905 L 706.5999999999999 138.8732 L 708.0 138.80945 L 709.4 138.7478 L 710.8 138.6881 L 712.1999999999999 138.63065 L 713.6 138.5753 L 715.0 138.52190000000002 L 716.4 138.4706 L 717.8 138.42155 L 719.1999999999999 138.37445000000002 L 720.6 138.32944999999998 L 722.0 138.28654999999998 L 723.4 138.24575000000002 L 724.8 138.20705 L 726.1999999999999 138.17045000000002 L 727.6 138.13594999999998 L 729.0 138.1034 L 730.4 138.07309999999998 L 731.8 138.0449 L 733.1999999999999 138.01865 L 734.6 137.99464999999998 L 736.0 137.9726 L 737.4 137.9528 L 738.8 137.93495000000001 L 740.2 137.9192 L 741.6 137.9057 L 743.0 137.89415 L 744.4 137.8847 L 745.8 137.87735 L 747.2 137.87210000000002 L 748.6 137.86895" fill="none" stroke="red" stroke-width="2"/>
<path d="M 50.0 137.8679 L 51.4 137.8679 L 52.8 137.8679 L 54.2 137.8679 L 55.6 137.8679 L 57.0 137.8679 L 58.4 137.8679 L 59.8 137.8679 L 61.2 137.8679 L 62.6 137.8679 L 64.0 137.8679 L 65.4 137.8679 L 66.8 137.8679 L 68.2 137.8679 L 69.6 137.8679 L 71.0 137.8679 L 72.4 137.8679 L 73.8 137.8679 L 75.2 137.8679 L 76.6 137.8679 L 78.0 137.8679 L 79.4 137.8679 L 80.8 137.8679 L 82.2 137.8679 L 83.6 137.8679 L 85.0 137.8679 L 86.4 137.8679 L 87.8 137.8679 L 89.2 137.8679 L 90.6 137.8679 L 92.0 137.8679 L 93.4 137.8679 L 94.80000000000001 137.8679 L 96.2 137.8679 L 97.6 137.8679 L 99.0 137.8679 L 100.4 137.8679 L 101.8 137.8679 L 103.19999999999999 137.8679 L 104.6 137.8679 L 106.0 137.8679 L 107.4 137.8679 L 108.80000000000001 137.8679 L 110.19999999999999 137.8679 L 111.6 137.8679 L 113.0 137.8679 L 114.4 137.8679 L 115.8 137.8679 L 117.2 137.8679 L 118.60000000000001 137.8679 L 120.0 137.8679 L 121.39999999999999 137.8679 L 122.8 137.8679 L 124.2 137.8679 L 125.6 137.8679 L 127.0 137.8679 L 128.4 137.8679 L 129.8 137.8679 L 131.2 137.8679 L 132.6 137.8679 L 134.0 137.8679 L 135.39999999999998 137.8679 L 136.8 137.8679 L 138.2 137.8679 L 139.60000000000002 137.8679 L 141.0 137.8679 L 142.4 137.8679 L 143.8 137.8679 L 145.2 137.8679 L 146.60000000000002 137.8679 L 148.0 137.8679 L 149.39999999999998 137.8679 L 150.8 137.8679 L 152.2 137.8679 L 153.6 137.8679 L 155.0 137.8679 L 156.39999999999998 137.8679 L 157.8 137.8679 L 159.2 137.8679 L 160.6 137.8679 L 162.0 137.8679 L 163.4 137.8679 L 164.8 137.8679 L 166.2 137.8679 L 167.60000000000002 137.8679 L 169.0 137.8679 L 170.39999999999998 137.8679 L 171.8 137.8679 L 173.2 137.8679 L 174.6 137.8679 L 176.0 137.8679 L 177.39999999999998 137.8679 L 178.8 137.8679 L 180.2 137.8679 L 181.6 137.8679 L 183.0 137.8679 L 184.4 137.8679 L 185.8 137.8679 L 187.20000000000002 137.8679 L 188.6 137.8679 L 190.0 137.8679 L 191.4 137.8679 L 192.79999999999998 137.8679 L 194.2 137.8679 L 195.6 137.8679 L 197.0 137.8679 L 198.4 137.8679 L 199.79999999999998 137.8679 L 201.2 137.8679 L 202.6 137.8679 L 204.0 137.8679 L 205.4 137.8679 L 206.8 137.8679 L 208.20000000000002 137.8679 L 209.6 137.8679 L 211.0 137.8679 L 212.4 137.8679 L 213.8 137.8679 L 215.2 137.8679 L 216.6 137.8679 L 218.0 137.8679 L 219.4 137.8679 L 220.79999999999998 137.8679 L 222.2 137.8679 L 223.6 137.8679 L 225.0 137.8679 L 226.4 137.8679 L 227.8 137.8679 L 229.20000000000002 137.8679 L 230.6 137.8679 L 232.0 137.8679 L 233.4 137.8679 L 234.8 137.8679 L 236.20000000000002 137.8679 L 237.60000000000002 137.8679 L 239.0 137.8679 L 240.4 137.8679 L 241.8 137.8679 L 243.20000000000002 137.8679 L 244.60000000000002 137.8679 L 246.00000000000003 137.8679 L 247.39999999999998 137.8679 L 248.79999999999998 137.8679 L 250.2 137.8679 L 251.6 137.8679 L 253.0 137.8679 L 254.39999999999998 137.8679 L 255.79999999999998 137.8679 L 257.2 137.8679 L 258.6 137.8679 L 260.0 137.8679 L 261.4 137.8679 L 262.79999999999995 137.8679 L 264.2 137.8679 L 265.6 137.8679 L 267.0 137.8679 L 268.4 137.8679 L 269.8 137.8679 L 271.2 137.8679 L 272.6 137.8679 L 274.0 137.8679 L 275.4 137.8679 L 276.8 137.8679 L 278.20000000000005 137.8679 L 279.6 137.8679 L 281.0 137.8679 L 282.4 137.8679 L 283.8 137.8679 L 285.20000000000005 137.8679 L 286.6 137.8679 L 288.0 137.8679 L 289.4 137.8679 L 290.79999999999995 137.8679 L 292.2 137.8679 L 293.6 137.8679 L 295.0 137.8679 L 296.4 137.8679 L 297.79999999999995 137.8679 L 299.2 137.8679 L 300.6 137.8679 L 302.0 137.8679 L 303.4 137.8679 L 304.79999999999995 137.8679 L 306.2 137.8679 L 307.6 137.8679 L 309.0 137.8679 L 310.4 137.8679 L 311.8 137.8679 L 313.2 137.8679 L 314.6 137.8679 L 316.0 137.8679 L 317.4 137.8679 L 318.8 137.8679 L 320.2 137.8679 L 321.6 137.8679 L 323.0 137.8679 L 324.40000000000003 137.8679 L 325.8 137.8679 L 327.2 137.8679 L 328.6 137.8679 L 330.0 137.8679 L 331.40000000000003 137.8679 L 332.8 137.8679 L 334.20000000000005 137.8679 L 335.59999999999997 137.8679 L 337.0 137.8679 L 338.4 137.8679 L 339.8 137.8679 L 341.2 137.8679 L 342.59999999999997 137.8679 L 344.0 137.8679 L 345.4 137.8679 L 346.8 137.8679 L 348.2 137.8679 L 349.59999999999997 137.8679 L 351.0 137.8679 L 352.4 137.8679 L 353.8 137.8679 L 355.2 137.8679 L 356.6 137.8679 L 358.0 137.8679 L 359.4 137.8679 L 360.8 137.8679 L 362.2 137.8679 L 363.6 137.8679 L 365.0 137.8679 L 366.40000000000003 137.8679 L 367.8 137.8679 L 369.2 137.8679 L 370.6 137.8679 L 372.0 137.8679 L 373.40000000000003 137.8679 L 374.8 137.8679 L 376.20000000000005 137.8679 L 377.6 137.8679 L 379.0 137.8679 L 380.4 137.8679 L 381.8 137.8679 L 383.2 137.8679 L 384.59999999999997 137.8679 L 386.0 137.8679 L 387.4 137.8679 L 388.8 137.8679 L 390.2 137.8679 L 391.59999999999997 137.8679 L 393.0 137.8679 L 394.4 137.8679 L 395.8 137.8679 L 397.2 137.8679 L 398.6 137.8679 L 400.0 137.8679 L 401.4 137.8679 L 402.8 137.8679 L 404.2 137.8679 L 405.6 137.8679 L 407.0 137.8679 L 408.40000000000003 137.8679 L 409.8 137.8679 L 411.2 137.8679 L 412.6 137.8679 L 414.0 137.8679 L 415.40000000000003 137.8679 L 416.8 137.8679 L 418.2 137.8679 L 419.6 137.8679 L 421.0 137.8679 L 422.40000000000003 137.8679 L 423.8 137.8679 L 425.20000000000005 137.8679 L 426.6 137.8679 L 428.0 137.8679 L 429.40000000000003 137.8679 L 430.8 137.8679 L 432.20000000000005 137.8679 L 433.6 137.8679 L 435.00000000000006 137.8679 L 436.40000000000003 137.8679 L 437.8 137.8679 L 439.20000000000005 137.8679 L 440.6 137.8679 L 442.00000000000006 137.8679 L 443.40000000000003 137.8679 L 444.79999999999995 137.8679 L 446.2 137.8679 L 447.59999999999997 137.8679 L 448.99999999999994 137.8679 L 450.4 137.8679 L 451.79999999999995 137.8679 L 453.2 137.8679 L 454.59999999999997 137.8679 L 456.0 137.8679 L 457.4 137.8679 L 458.79999999999995 137.8679 L 460.2 137.8679 L 461.59999999999997 137.8679 L 463.0 137.8679 L 464.4 137.8679 L 465.79999999999995 137.8679 L 467.2 137.8679 L 468.59999999999997 137.8679 L 470.0 137.8679 L 471.4 137.8679 L 472.8 137.8679 L 474.2 137.8679 L 475.59999999999997 137.8679 L 477.0 137.8679 L 478.4 137.8679 L 479.8 137.8679 L 481.2 137.8679 L 482.6 137.8679 L 484.0 137.8679 L 485.4 137.8679 L 486.8 137.8679 L 488.2 137.8679 L 489.6 137.8679 L 491.0 137.8679 L 492.4 137.8679 L 493.8 137.8679 L 495.2 137.8679 L 496.6 137.8679 L 498.0 137.8679 L 499.40000000000003 137.8679 L 500.8 137.8679 L 502.2 137.8679 L 503.6 137.8679 L 505.0 137.8679 L 506.40000000000003 137.8679 L 507.8 137.8679 L 509.20000000000005 137.8679 L 510.6 137.8679 L 512.0 137.8679 L 513.4000000000001 137.8679 L 514.8 137.8679 L 516.2 137.8679 L 517.6 137.8679 L 519.0 137.8679 L 520.4000000000001 137.8679 L 521.8 137.8679 L 523.2 137.8679 L 524.6 137.8679 L 526.0 137.8679 L 527.4000000000001 137.8679 L 528.8 137.8679 L 530.2 137.8679 L 531.5999999999999 137.8679 L 533.0 137.8679 L 534.4 137.8679 L 535.8 137.8679 L 537.2 137.8679 L 538.5999999999999 137.8679 L 540.0 137.8679 L 541.4 137.8679 L 542.8 137.8679 L 544.2 137.8679 L 545.5999999999999 137.8679 L 547.0 137.8679 L 548.4 137.8679 L 549.8 137.8679 L 551.2 137.8679 L 552.5999999999999 137.8679 L 554.0 137.8679 L 555.4 137.8679 L 556.8 137.8679 L 558.2 137.8679 L 559.5999999999999 137.8679 L 561.0 137.8679 L 562.4 137.8679 L 563.8 137.8679 L 565.2 137.8679 L 566.6 137.8679 L 568.0 137.8679 L 569.4 137.8679 L 570.8 137.8679 L 572.2 137.8679 L 573.6 137.8679 L 575.0 137.8679 L 576.4 137.8679 L 577.8 137.8679 L 579.2 137.8679 L 580.6 137.8679 L 582.0 137.8679 L 583.4 137.8679 L 584.8 137.8679 L 586.2 137.8679 L 587.6 137.8679 L 589.0 137.8679 L 590.4 137.8679 L 591.8000000000001 137.8679 L 593.2 137.8679 L 594.6 137.8679 L 596.0 137.8679 L 597.4 137.8679 L 598.8000000000001 137.8679 L 600.2 137.8679 L 601.6 137.8679 L 603.0 137.8679 L 604.4 137.8679 L 605.8000000000001 137.8679 L 607.2 137.8679 L 608.6 137.8679 L 610.0 137.8679 L 611.4 137.8679 L 612.8000000000001 137.8679 L 614.2 137.8679 L 615.6 137.8679 L 617.0 137.8679 L 618.4000000000001 137.8679 L 619.8 137.8679 L 621.1999999999999 137.8679 L 622.5999999999999 137.8679 L 624.0 137.8679 L 625.4 137.8679 L 626.8 137.8679 L 628.1999999999999 137.8679 L 629.6 137.8679 L 631.0 137.8679 L 632.4 137.8679 L 633.8 137.8679 L 635.1999999999999 137.8679 L 636.6 137.8679 L 638.0 137.8679 L 639.4 137.8679 L 640.8 137.8679 L 642.1999999999999 137.8679 L 643.6 137.8679 L 645.0 137.8679 L 646.4 137.8679 L 647.8 137.8679 L 649.1999999999999 137.8679 L 650.6 137.8679 L 652.0 137.8679 L 653.4 137.8679 L 654.8 137.8679 L 656.2 137.8679 L 657.6 137.8679 L 659.0 137.8679 L 660.4 137.8679 L 661.8 137.8679 L 663.2 137.8679 L 664.6 137.8679 L 666.0 137.8679 L 667.4 137.8679 L 668.8 137.8679 L 670.2 137.8679 L 671.6 137.8679 L 673.0 137.8679 L 674.4 137.8679 L 675.8000000000001 137.8679 L 677.2 137.8679 L 678.6 137.8679 L 680.0 137.8679 L 681.4 137.8679 L 682.8000000000001 137.8679 L 684.2 137.8679 L 685.6 137.8679 L 687.0 137.8679 L 688.4 137.8679 L 689.8000000000001 137.8679 L 691.2 137.8679 L 692.6 137.8679 L 694.0 137.8679 L 695.4 137.8679 L 696.8000000000001 137.8679 L 698.2 137.8679 L 699.6 137.8679 L 701.0 137.8679 L 702.4000000000001 137.8679 L 703.8000000000001 137.8679 L 705.2 137.8679 L 706.5999999999999 137.8679 L 708.0 137.8679 L 709.4 137.8679 L 710.8 137.8679 L 712.1999999999999 137.8679 L 713.6 137.8679 L 715.0 137.8679 L 716.4 137.8679 L 717.8 137.8679 L 719.1999999999999 137.8679 L 720.6 137.8679 L 722.0 137.8679 L 723.4 137.8679 L 724.8 137.8679 L 726.1999999999999 137.8679 L 727.6 137.8679 L 729.0 137.8679 L 730.4 137.8679 L 731.8 137.8679 L 733.1999999999999 137.8679 L 734.6 137.8679 L 736.0 137.8679 L 737.4 137.8679 L 738.8 137.8679 L 740.2 137.8679 L 741.6 137.8679 L 743.0 137.8679 L 744.4 137.8679 L 745.8 137.8679 L 747.2 137.8679 L 748.6 137.8679" fill="none" stroke="green" stroke-width="1" stroke-dasharray="4,4"/>
<text x="600" y="80" fill="blue">Low-pass</text>
<text x="600" y="100" fill="red">High-pass</text>
<text x="600" y="120" fill="green">Total Power (Ideal flat)</text>
<g transform="translate(0, 400)">
<text x="400.0" y="30" text-anchor="middle" font-weight="bold">Phase Response (Radians)</text>
<line x1="50" y1="350" x2="750" y2="350" stroke="black" stroke-width="2"/>
<line x1="50" y1="50" x2="50" y2="350" stroke="black" stroke-width="2"/>
<line x1="50" y1="200.0" x2="750" y2="200.0" stroke="#ccc" stroke-dasharray="5,5"/>
<path d="M 50.0 200.0 L 51.4 201.95001410924482 L 52.8 203.89998047200672 L 54.2 205.84999458125156 L 55.6 207.80000869049638 L 57.0 209.75002279974123 L 58.4 211.69998916250313 L 59.8 213.65000327174795 L 61.2 215.60001738099277 L 62.6 217.5499837437547 L 64.0 219.4999978529995 L 65.4 221.45001196224433 L 66.8 223.39997832500623 L 68.2 225.34999243425108 L 69.6 227.3000065434959 L 71.0 229.25002065274072 L 72.4 231.19998701550264 L 73.8 233.15000112474746 L 75.2 235.10001523399228 L 76.6 237.0499815967542 L 78.0 238.99999570599903 L 79.4 240.95000981524385 L 80.8 242.89997617800574 L 82.2 244.8499902872506 L 83.6 246.8000043964954 L 85.0 248.75001850574023 L 86.4 250.69998486850216 L 87.8 252.64999897774698 L 89.2 254.6000130869918 L 90.6 256.5499794497537 L 92.0 258.49999355899854 L 93.4 260.45000766824336 L 94.80000000000001 262.4000217774882 L 96.2 264.3499881402501 L 97.6 266.3000022494949 L 99.0 268.25001635873974 L 100.4 270.19998272150167 L 101.8 272.1499968307465 L 103.19999999999999 274.1000109399913 L 104.6 276.0499773027532 L 106.0 277.99999141199805 L 107.4 279.9500055212429 L 108.80000000000001 281.9000196304877 L 110.19999999999999 283.8499859932496 L 111.6 285.80000010249444 L 113.0 287.75001421173926 L 114.4 289.6999805745012 L 115.8 291.649994683746 L 117.2 293.6000087929908 L 118.60000000000001 295.55002290223564 L 120.0 297.49998926499757 L 121.39999999999999 299.4500033742424 L 122.8 301.4000174834872 L 124.2 303.3499838462491 L 125.6 305.29999795549395 L 127.0 307.25001206473877 L 128.4 309.19997842750064 L 129.8 311.1499925367455 L 131.2 313.10000664599033 L 132.6 315.05002075523515 L 134.0 316.9999871179971 L 135.39999999999998 318.9500012272419 L 136.8 320.9000153364867 L 138.2 322.8499816992486 L 139.60000000000002 324.79999580849346 L 141.0 326.7500099177383 L 142.4 328.7000240269831 L 143.8 330.649990389745 L 145.2 332.60000449898985 L 146.60000000000002 334.55001860823467 L 148.0 336.4999849709966 L 149.39999999999998 338.4499990802414 L 150.8 340.40001318948623 L 152.2 342.3499795522481 L 153.6 344.299993661493 L 155.0 346.2500077707378 L 156.39999999999998 348.2000218799826 M 157.8 50.15000290948939 L 159.2 52.100017018734235 L 160.6 54.049983381496105 L 162.0 55.99999749074095 L 163.4 57.95001159998577 L 164.8 59.89997796274767 L 166.2 61.84999207199252 L 167.60000000000002 63.800006181237364 L 169.0 65.75002029048218 L 170.39999999999998 67.69998665324408 L 171.8 69.6500007624889 L 173.2 71.60001487173372 L 174.6 73.54998123449563 L 176.0 75.49999534374047 L 177.39999999999998 77.45000945298528 L 178.8 79.4000235622301 L 180.2 81.34998992499203 L 181.6 83.30000403423686 L 183.0 85.25001814348168 L 184.4 87.1999845062436 L 185.8 89.14999861548841 L 187.20000000000002 91.10001272473323 L 188.6 93.04997908749515 L 190.0 94.99999319673996 L 191.4 96.95000730598481 L 192.79999999999998 98.90002141522963 L 194.2 100.84998777799154 L 195.6 102.80000188723636 L 197.0 104.75001599648118 L 198.4 106.6999823592431 L 199.79999999999998 108.64999646848791 L 201.2 110.60001057773275 L 202.6 112.55002468697758 L 204.0 114.49999104973949 L 205.4 116.45000515898431 L 206.8 118.40001926822914 L 208.20000000000002 120.34998563099104 L 209.6 122.29999974023588 L 211.0 124.25001384948071 L 212.4 126.19998021224261 L 213.8 128.14999432148744 L 215.2 130.10000843073226 L 216.6 132.05002253997708 L 218.0 133.999988902739 L 219.4 135.95000301198382 L 220.79999999999998 137.90001712122864 L 222.2 139.84998348399057 L 223.6 141.7999975932354 L 225.0 143.7500117024802 L 226.4 145.6999780652421 L 227.8 147.64999217448695 L 229.20000000000002 149.60000628373177 L 230.6 151.5500203929766 L 232.0 153.49998675573852 L 233.4 155.45000086498334 L 234.8 157.40001497422816 L 236.20000000000002 159.34998133699006 L 237.60000000000002 161.2999954462349 L 239.0 163.25000955547972 L 240.4 165.20002366472454 L 241.8 167.14999002748647 L 243.20000000000002 169.1000041367313 L 244.60000000000002 171.0500182459761 L 246.00000000000003 172.999984608738 L 247.39999999999998 174.94999871798285 L 248.79999999999998 176.90001282722767 L 250.2 178.84997918998957 L 251.6 180.79999329923442 L 253.0 182.75000740847923 L 254.39999999999998 184.70002151772405 L 255.79999999999998 186.64998788048595 L 257.2 188.6000019897308 L 258.6 190.55001609897562 L 260.0 192.49998246173752 L 261.4 194.44999657098236 L 262.79999999999995 196.40001068022718 L 264.2 198.34997704298908 L 265.6 200.2999911522339 L 267.0 202.25000526147875 L 268.4 204.20001937072357 L 269.8 206.14998573348547 L 271.2 208.0999998427303 L 272.6 210.05001395197513 L 274.0 211.99998031473703 L 275.4 213.94999442398188 L 276.8 215.9000085332267 L 278.20000000000005 217.85002264247152 L 279.6 219.7999890052334 L 281.0 221.75000311447826 L 282.4 223.70001722372308 L 283.8 225.64998358648498 L 285.20000000000005 227.59999769572983 L 286.6 229.55001180497464 L 288.0 231.49997816773654 L 289.4 233.44999227698136 L 290.79999999999995 235.4000063862262 L 292.2 237.35002049547103 L 293.6 239.29998685823293 L 295.0 241.25000096747777 L 296.4 243.2000150767226 L 297.79999999999995 245.1499814394845 L 299.2 247.09999554872934 L 300.6 249.05000965797416 L 302.0 250.99997602073606 L 303.4 252.94999012998088 L 304.79999999999995 254.90000423922572 L 306.2 256.85001834847054 L 307.6 258.79998471123247 L 309.0 260.7499988204773 L 310.4 262.7000129297221 L 311.8 264.649979292484 L 313.2 266.59999340172885 L 314.6 268.55000751097367 L 316.0 270.5000216202185 L 317.4 272.4499879829804 L 318.8 274.40000209222524 L 320.2 276.35001620147005 L 321.6 278.299982564232 L 323.0 280.2499966734768 L 324.40000000000003 282.2000107827216 L 325.8 284.1499771454835 L 327.2 286.09999125472837 L 328.6 288.0500053639732 L 330.0 290.000019473218 L 331.40000000000003 291.9499858359799 L 332.8 293.89999994522475 L 334.20000000000005 295.85001405446957 L 335.59999999999997 297.7999804172315 L 337.0 299.74999452647626 L 338.4 301.70000863572113 L 339.8 303.649974998483 L 341.2 305.5999891077279 L 342.59999999999997 307.5500032169727 L 344.0 309.5000173262175 L 345.4 311.4499836889794 L 346.8 313.39999779822426 L 348.2 315.3500119074691 L 349.59999999999997 317.29997827023095 L 351.0 319.24999237947577 L 352.4 321.20000648872065 L 353.8 323.15002059796547 L 355.2 325.0999869607274 L 356.6 327.0500010699722 L 358.0 329.00001517921703 L 359.4 330.9499815419789 L 360.8 332.8999956512238 L 362.2 334.85000976046854 L 363.6 336.7999761232305 L 365.0 338.7499902324753 L 366.40000000000003 340.70000434172016 L 367.8 342.650018450965 L 369.2 344.5999848137269 L 370.6 346.54999892297167 L 372.0 348.50001303221654 M 373.40000000000003 50.44999406172329 L 374.8 52.40000817096811 L 376.20000000000005 54.35002228021298 L 377.6 56.29998864297488 L 379.0 58.2500027522197 L 380.4 60.20001686146455 L 381.8 62.14998322422642 L 383.2 64.09999733347124 L 384.59999999999997 66.05001144271608 L 386.0 67.99997780547798 L 387.4 69.9499919147228 L 388.8 71.90000602396762 L 390.2 73.85002013321248 L 391.59999999999997 75.79998649597438 L 393.0 77.7500006052192 L 394.4 79.70001471446405 L 395.8 81.64998107722593 L 397.2 83.59999518647075 L 398.6 85.55000929571561 L 400.0 87.50002340496043 L 401.4 89.44998976772233 L 402.8 91.40000387696716 L 404.2 93.350017986212 L 405.6 95.29998434897388 L 407.0 97.24999845821871 L 408.40000000000003 99.20001256746355 L 409.8 101.14997893022544 L 411.2 103.09999303947026 L 412.6 105.0500071487151 L 414.0 107.00002125795994 L 415.40000000000003 108.94998762072183 L 416.8 110.90000172996666 L 418.2 112.8500158392115 L 419.6 114.7999822019734 L 421.0 116.74999631121823 L 422.40000000000003 118.70001042046306 L 423.8 120.65002452970788 L 425.20000000000005 122.59999089246979 L 426.6 124.55000500171461 L 428.0 126.50001911095944 L 429.40000000000003 128.44998547372134 L 430.8 130.3999995829662 L 432.20000000000005 132.350013692211 L 433.6 134.2999800549729 L 435.00000000000006 136.24999416421775 L 436.40000000000003 138.20000827346257 L 437.8 140.1500223827074 L 439.20000000000005 142.0999887454693 L 440.6 144.05000285471414 L 442.00000000000006 146.00001696395896 L 443.40000000000003 147.94998332672085 L 444.79999999999995 149.8999974359657 L 446.2 151.85001154521052 L 447.59999999999997 153.79997790797242 L 448.99999999999994 155.74999201721727 L 450.4 157.70000612646209 L 451.79999999999995 159.6500202357069 L 453.2 161.5999865984688 L 454.59999999999997 163.55000070771365 L 456.0 165.50001481695847 L 457.4 167.44998117972037 L 458.79999999999995 169.3999952889652 L 460.2 171.35000939821003 L 461.59999999999997 173.30002350745485 L 463.0 175.24998987021675 L 464.4 177.2000039794616 L 465.79999999999995 179.15001808870642 L 467.2 181.09998445146832 L 468.59999999999997 183.04999856071314 L 470.0 185.00001266995798 L 471.4 186.94997903271988 L 472.8 188.8999931419647 L 474.2 190.85000725120955 L 475.59999999999997 192.80002136045437 L 477.0 194.74998772321626 L 478.4 196.70000183246108 L 479.8 198.65001594170593 L 481.2 200.59998230446783 L 482.6 202.54999641371265 L 484.0 204.5000105229575 L 485.4 206.45002463220231 L 486.8 208.3999909949642 L 488.2 210.35000510420906 L 489.6 212.30001921345388 L 491.0 214.24998557621578 L 492.4 216.1999996854606 L 493.8 218.15001379470544 L 495.2 220.09998015746734 L 496.6 222.04999426671216 L 498.0 224.000008375957 L 499.40000000000003 225.95002248520183 L 500.8 227.89998884796373 L 502.2 229.85000295720855 L 503.6 231.8000170664534 L 505.0 233.7499834292153 L 506.40000000000003 235.6999975384601 L 507.8 237.65001164770496 L 509.20000000000005 239.59997801046686 L 510.6 241.54999211971167 L 512.0 243.50000622895652 L 513.4000000000001 245.45002033820134 L 514.8 247.39998670096324 L 516.2 249.3500008102081 L 517.6 251.3000149194529 L 519.0 253.24998128221478 L 520.4000000000001 255.19999539145962 L 521.8 257.15000950070447 L 523.2 259.1000236099493 L 524.6 261.04998997271116 L 526.0 263.00000408195604 L 527.4000000000001 264.95001819120085 L 528.8 266.8999845539627 L 530.2 268.84999866320754 L 531.5999999999999 270.8000127724524 L 533.0 272.7499791352143 L 534.4 274.69999324445916 L 535.8 276.650007353704 L 537.2 278.6000214629488 L 538.5999999999999 280.5499878257107 L 540.0 282.50000193495555 L 541.4 284.45001604420037 L 542.8 286.3999824069623 L 544.2 288.34999651620706 L 545.5999999999999 290.30001062545193 L 547.0 292.2499769882138 L 548.4 294.1999910974587 L 549.8 296.1500052067035 L 551.2 298.1000193159483 L 552.5999999999999 300.0499856787102 L 554.0 301.99999978795506 L 555.4 303.9500138971999 L 556.8 305.89998025996175 L 558.2 307.84999436920657 L 559.5999999999999 309.80000847845145 L 561.0 311.75002258769626 L 562.4 313.6999889504582 L 563.8 315.650003059703 L 565.2 317.60001716894783 L 566.6 319.5499835317097 L 568.0 321.4999976409546 L 569.4 323.4500117501994 L 570.8 325.39997811296126 L 572.2 327.34999222220614 L 573.6 329.30000633145096 L 575.0 331.2500204406958 L 576.4 333.1999868034577 L 577.8 335.15000091270247 L 579.2 337.10001502194734 L 580.6 339.0499813847092 L 582.0 340.9999954939541 L 583.4 342.95000960319885 L 584.8 344.89997596596083 L 586.2 346.8499900752056 L 587.6 348.8000041844505 M 589.0 50.74998521395722 L 590.4 52.699999323202064 L 591.8000000000001 54.65001343244688 L 593.2 56.59997979520878 L 594.6 58.5499939044536 L 596.0 60.50000801369842 L 597.4 62.45002212294327 L 598.8000000000001 64.39998848570517 L 600.2 66.35000259495001 L 601.6 68.30001670419483 L 603.0 70.24998306695673 L 604.4 72.19999717620156 L 605.8000000000001 74.15001128544638 L 607.2 76.09997764820831 L 608.6 78.04999175745313 L 610.0 80.00000586669796 L 611.4 81.95001997594278 L 612.8000000000001 83.89998633870468 L 614.2 85.85000044794951 L 615.6 87.80001455719433 L 617.0 89.74998091995624 L 618.4000000000001 91.69999502920106 L 619.8 93.6500091384459 L 621.1999999999999 95.59997550120781 L 622.5999999999999 97.54998961045264 L 624.0 99.50000371969746 L 625.4 101.45001782894228 L 626.8 103.39998419170419 L 628.1999999999999 105.34999830094901 L 629.6 107.30001241019386 L 631.0 109.24997877295574 L 632.4 111.19999288220058 L 633.8 113.1500069914454 L 635.1999999999999 115.10002110069024 L 636.6 117.04998746345214 L 638.0 119.00000157269697 L 639.4 120.9500156819418 L 640.8 122.8999820447037 L 642.1999999999999 124.84999615394852 L 643.6 126.80001026319336 L 645.0 128.74997662595524 L 646.4 130.6999907352001 L 647.8 132.65000484444494 L 649.1999999999999 134.60001895368976 L 650.6 136.54998531645165 L 652.0 138.49999942569647 L 653.4 140.45001353494132 L 654.8 142.39997989770322 L 656.2 144.34999400694804 L 657.6 146.30000811619288 L 659.0 148.2500222254377 L 660.4 150.1999885881996 L 661.8 152.15000269744445 L 663.2 154.10001680668927 L 664.6 156.04998316945114 L 666.0 157.999997278696 L 667.4 159.9500113879408 L 668.8 161.8999777507027 L 670.2 163.84999185994755 L 671.6 165.80000596919237 L 673.0 167.75002007843722 L 674.4 169.69998644119912 L 675.8000000000001 171.65000055044393 L 677.2 173.60001465968878 L 678.6 175.54998102245068 L 680.0 177.4999951316955 L 681.4 179.45000924094032 L 682.8000000000001 181.40002335018517 L 684.2 183.34998971294706 L 685.6 185.30000382219188 L 687.0 187.25001793143673 L 688.4 189.19998429419863 L 689.8000000000001 191.14999840344345 L 691.2 193.10001251268827 L 692.6 195.0499788754502 L 694.0 196.999992984695 L 695.4 198.95000709393983 L 696.8000000000001 200.90002120318468 L 698.2 202.84998756594658 L 699.6 204.8000016751914 L 701.0 206.75001578443621 L 702.4000000000001 208.69998214719814 L 703.8000000000001 210.64999625644296 L 705.2 212.60001036568778 L 706.5999999999999 214.54997672844968 L 708.0 216.49999083769453 L 709.4 218.45000494693934 L 710.8 220.4000190561842 L 712.1999999999999 222.3499854189461 L 713.6 224.2999995281909 L 715.0 226.25001363743576 L 716.4 228.19998000019763 L 717.8 230.14999410944247 L 719.1999999999999 232.1000082186873 L 720.6 234.05002232793214 L 722.0 235.99998869069404 L 723.4 237.95000279993886 L 724.8 239.9000169091837 L 726.1999999999999 241.84998327194558 L 727.6 243.79999738119042 L 729.0 245.75001149043527 L 730.4 247.69997785319714 L 731.8 249.649991962442 L 733.1999999999999 251.6000060716868 L 734.6 253.55002018093163 L 736.0 255.49998654369352 L 737.4 257.45000065293834 L 738.8 259.4000147621832 L 740.2 261.3499811249451 L 741.6 263.29999523418996 L 743.0 265.2500093434347 L 744.4 267.2000234526796 L 745.8 269.1499898154415 L 747.2 271.10000392468635 L 748.6 273.05001803393117" fill="none" stroke="blue" stroke-width="2"/>
<path d="M 50.0 200.0 M 51.4 125.14998730618244 L 52.8 125.30000675554086 L 54.2 125.44997845841635 L 55.6 125.59999790777478 L 57.0 125.7500173571332 L 58.4 125.89998906000869 L 59.8 126.05000850936712 L 61.2 126.19998021224261 L 62.6 126.34999966160103 L 64.0 126.50001911095944 L 65.4 126.64999081383493 L 66.8 126.80001026319336 L 68.2 126.94998196606885 L 69.6 127.10000141542727 L 71.0 127.2500208647857 L 72.4 127.39999256766119 L 73.8 127.5500120170196 L 75.2 127.6999837198951 L 76.6 127.85000316925353 L 78.0 128.00002261861192 L 79.4 128.14999432148744 L 80.8 128.30001377084585 L 82.2 128.44998547372134 L 83.6 128.60000492307978 L 85.0 128.74997662595524 L 86.4 128.89999607531368 L 87.8 129.05001552467212 L 89.2 129.19998722754758 L 90.6 129.35000667690602 L 92.0 129.4999783797815 L 93.4 129.64999782913992 L 94.80000000000001 129.80001727849836 L 96.2 129.94998898137385 L 97.6 130.10000843073226 L 99.0 130.24998013360775 L 100.4 130.3999995829662 L 101.8 130.5500190323246 L 103.19999999999999 130.6999907352001 L 104.6 130.85001018455853 L 106.0 130.999981887434 L 107.4 131.15000133679243 L 108.80000000000001 131.30002078615084 L 110.19999999999999 131.44999248902633 L 111.6 131.60001193838474 L 113.0 131.74998364126026 L 114.4 131.90000309061867 L 115.8 132.05002253997708 L 117.2 132.1999942428526 L 118.60000000000001 132.350013692211 L 120.0 132.4999853950865 L 121.39999999999999 132.65000484444494 L 122.8 132.7999765473204 L 124.2 132.9499959966788 L 125.6 133.10001544603728 L 127.0 133.24998714891274 L 128.4 133.40000659827115 L 129.8 133.54997830114667 L 131.2 133.69999775050508 L 132.6 133.8500171998635 L 134.0 133.999988902739 L 135.39999999999998 134.15000835209742 L 136.8 134.2999800549729 L 138.2 134.44999950433134 L 139.60000000000002 134.60001895368976 L 141.0 134.74999065656525 L 142.4 134.90001010592368 L 143.8 135.04998180879915 L 145.2 135.20000125815758 L 146.60000000000002 135.350020707516 L 148.0 135.49999241039149 L 149.39999999999998 135.6500118597499 L 150.8 135.7999835626254 L 152.2 135.95000301198382 L 153.6 136.10002246134223 L 155.0 136.24999416421775 L 156.39999999999998 136.40001361357616 L 157.8 136.54998531645165 L 159.2 136.70000476581006 L 160.6 136.84997646868555 L 162.0 136.999995918044 L 163.4 137.1500153674024 L 164.8 137.2999870702779 L 166.2 137.4500065196363 L 167.60000000000002 137.59997822251182 L 169.0 137.74999767187023 L 170.39999999999998 137.90001712122864 L 171.8 138.04998882410416 L 173.2 138.20000827346257 L 174.6 138.34997997633803 L 176.0 138.49999942569647 L 177.39999999999998 138.6500188750549 L 178.8 138.79999057793037 L 180.2 138.9500100272888 L 181.6 139.0999817301643 L 183.0 139.2500011795227 L 184.4 139.40002062888115 L 185.8 139.54999233175664 L 187.20000000000002 139.70001178111505 L 188.6 139.84998348399057 L 190.0 140.00000293334898 L 191.4 140.1500223827074 L 192.79999999999998 140.29999408558288 L 194.2 140.45001353494132 L 195.6 140.5999852378168 L 197.0 140.75000468717522 L 198.4 140.8999763900507 L 199.79999999999998 141.04999583940915 L 201.2 141.20001528876756 L 202.6 141.34998699164305 L 204.0 141.50000644100146 L 205.4 141.64997814387698 L 206.8 141.7999975932354 L 208.20000000000002 141.9500170425938 L 209.6 142.0999887454693 L 211.0 142.25000819482773 L 212.4 142.39997989770322 L 213.8 142.54999934706163 L 215.2 142.70001879642007 L 216.6 142.84999049929553 L 218.0 143.00000994865397 L 219.4 143.14998165152946 L 220.79999999999998 143.30000110088787 L 222.2 143.45002055024628 L 223.6 143.5999922531218 L 225.0 143.7500117024802 L 226.4 143.8999834053557 L 227.8 144.05000285471414 L 229.20000000000002 144.20002230407255 L 230.6 144.34999400694804 L 232.0 144.50001345630648 L 233.4 144.64998515918194 L 234.8 144.80000460854038 L 236.20000000000002 144.94997631141587 L 237.60000000000002 145.09999576077428 L 239.0 145.2500152101327 L 240.4 145.3999869130082 L 241.8 145.55000636236662 L 243.20000000000002 145.6999780652421 L 244.60000000000002 145.84999751460055 L 246.00000000000003 146.00001696395896 L 247.39999999999998 146.14998866683445 L 248.79999999999998 146.30000811619288 L 250.2 146.44997981906837 L 251.6 146.59999926842679 L 253.0 146.75001871778522 L 254.39999999999998 146.89999042066069 L 255.79999999999998 147.05000987001912 L 257.2 147.19998157289461 L 258.6 147.35000102225302 L 260.0 147.50002047161144 L 261.4 147.64999217448695 L 262.79999999999995 147.80001162384536 L 264.2 147.94998332672085 L 265.6 148.1000027760793 L 267.0 148.2500222254377 L 268.4 148.3999939283132 L 269.8 148.5500133776716 L 271.2 148.6999850805471 L 272.6 148.8500045299055 L 274.0 149.00002397926394 L 275.4 149.14999568213943 L 276.8 149.30001513149784 L 278.20000000000005 149.44998683437336 L 279.6 149.60000628373177 L 281.0 149.74997798660726 L 282.4 149.8999974359657 L 283.8 150.0500168853241 L 285.20000000000005 150.1999885881996 L 286.6 150.350008037558 L 288.0 150.4999797404335 L 289.4 150.6499991897919 L 290.79999999999995 150.80001863915035 L 292.2 150.94999034202584 L 293.6 151.10000979138425 L 295.0 151.24998149425977 L 296.4 151.40000094361818 L 297.79999999999995 151.5500203929766 L 299.2 151.6999920958521 L 300.6 151.85001154521052 L 302.0 151.999983248086 L 303.4 152.15000269744445 L 304.79999999999995 152.30002214680286 L 306.2 152.44999384967832 L 307.6 152.60001329903676 L 309.0 152.74998500191225 L 310.4 152.90000445127066 L 311.8 153.0500239006291 L 313.2 153.1999956035046 L 314.6 153.350015052863 L 316.0 153.49998675573852 L 317.4 153.65000620509693 L 318.8 153.79997790797242 L 320.2 153.94999735733083 L 321.6 154.10001680668927 L 323.0 154.24998850956473 L 324.40000000000003 154.40000795892317 L 325.8 154.54997966179866 L 327.2 154.69999911115707 L 328.6 154.8500185605155 L 330.0 154.999990263391 L 331.40000000000003 155.1500097127494 L 332.8 155.29998141562493 L 334.20000000000005 155.45000086498334 L 335.59999999999997 155.60002031434175 L 337.0 155.74999201721727 L 338.4 155.90001146657568 L 339.8 156.04998316945114 L 341.2 156.20000261880958 L 342.59999999999997 156.35002206816802 L 344.0 156.49999377104348 L 345.4 156.65001322040192 L 346.8 156.7999849232774 L 348.2 156.95000437263582 L 349.59999999999997 157.10002382199426 L 351.0 157.24999552486975 L 352.4 157.40001497422816 L 353.8 157.54998667710367 L 355.2 157.70000612646209 L 356.6 157.84997782933758 L 358.0 157.999997278696 L 359.4 158.15001672805442 L 360.8 158.2999884309299 L 362.2 158.45000788028833 L 363.6 158.59997958316382 L 365.0 158.74999903252223 L 366.40000000000003 158.90001848188066 L 367.8 159.04999018475615 L 369.2 159.20000963411456 L 370.6 159.34998133699006 L 372.0 159.5000007863485 L 373.40000000000003 159.6500202357069 L 374.8 159.7999919385824 L 376.20000000000005 159.9500113879408 L 377.6 160.0999830908163 L 379.0 160.25000254017473 L 380.4 160.40002198953314 L 381.8 160.54999369240863 L 383.2 160.70001314176707 L 384.59999999999997 160.84998484464256 L 386.0 161.00000429400097 L 387.4 161.1500237433594 L 388.8 161.2999954462349 L 390.2 161.4500148955933 L 391.59999999999997 161.5999865984688 L 393.0 161.75000604782724 L 394.4 161.8999777507027 L 395.8 162.04999720006114 L 397.2 162.20001664941955 L 398.6 162.34998835229504 L 400.0 162.50000780165348 L 401.4 162.64997950452897 L 402.8 162.79999895388738 L 404.2 162.9500184032458 L 405.6 163.0999901061213 L 407.0 163.25000955547972 L 408.40000000000003 163.3999812583552 L 409.8 163.55000070771365 L 411.2 163.70002015707206 L 412.6 163.84999185994755 L 414.0 164.00001130930596 L 415.40000000000003 164.14998301218145 L 416.8 164.3000024615399 L 418.2 164.4500219108983 L 419.6 164.5999936137738 L 421.0 164.75001306313223 L 422.40000000000003 164.89998476600772 L 423.8 165.05000421536613 L 425.20000000000005 165.19997591824162 L 426.6 165.34999536760006 L 428.0 165.50001481695847 L 429.40000000000003 165.64998651983396 L 430.8 165.80000596919237 L 432.20000000000005 165.94997767206786 L 433.6 166.0999971214263 L 435.00000000000006 166.2500165707847 L 436.40000000000003 166.3999882736602 L 437.8 166.55000772301864 L 439.20000000000005 166.69997942589413 L 440.6 166.84999887525254 L 442.00000000000006 167.00001832461095 L 443.40000000000003 167.14999002748647 L 444.79999999999995 167.30000947684488 L 446.2 167.44998117972037 L 447.59999999999997 167.6000006290788 L 448.99999999999994 167.75002007843722 L 450.4 167.8999917813127 L 451.79999999999995 168.05001123067112 L 453.2 168.1999829335466 L 454.59999999999997 168.35000238290502 L 456.0 168.50002183226346 L 457.4 168.64999353513895 L 458.79999999999995 168.80001298449736 L 460.2 168.94998468737288 L 461.59999999999997 169.1000041367313 L 463.0 169.24997583960678 L 464.4 169.3999952889652 L 465.79999999999995 169.55001473832363 L 467.2 169.69998644119912 L 468.59999999999997 169.85000589055753 L 470.0 169.99997759343302 L 471.4 170.14999704279145 L 472.8 170.30001649214987 L 474.2 170.44998819502536 L 475.59999999999997 170.60000764438377 L 477.0 170.74997934725928 L 478.4 170.8999987966177 L 479.8 171.0500182459761 L 481.2 171.1999899488516 L 482.6 171.35000939821003 L 484.0 171.49998110108552 L 485.4 171.65000055044393 L 486.8 171.80001999980237 L 488.2 171.94999170267786 L 489.6 172.10001115203627 L 491.0 172.24998285491176 L 492.4 172.40000230427017 L 493.8 172.5500217536286 L 495.2 172.6999934565041 L 496.6 172.8500129058625 L 498.0 172.999984608738 L 499.40000000000003 173.15000405809644 L 500.8 173.29997576097193 L 502.2 173.44999521033034 L 503.6 173.60001465968878 L 505.0 173.74998636256424 L 506.40000000000003 173.90000581192268 L 507.8 174.04997751479817 L 509.20000000000005 174.19999696415658 L 510.6 174.35001641351502 L 512.0 174.4999881163905 L 513.4000000000001 174.65000756574892 L 514.8 174.7999792686244 L 516.2 174.94999871798285 L 517.6 175.10001816734126 L 519.0 175.24998987021675 L 520.4000000000001 175.40000931957516 L 521.8 175.54998102245068 L 523.2 175.7000004718091 L 524.6 175.8500199211675 L 526.0 175.999991624043 L 527.4000000000001 176.15001107340143 L 528.8 176.29998277627692 L 530.2 176.45000222563533 L 531.5999999999999 176.60002167499377 L 533.0 176.74999337786926 L 534.4 176.90001282722767 L 535.8 177.04998453010316 L 537.2 177.2000039794616 L 538.5999999999999 177.35002342882 L 540.0 177.4999951316955 L 541.4 177.6500145810539 L 542.8 177.7999862839294 L 544.2 177.95000573328784 L 545.5999999999999 178.09997743616333 L 547.0 178.24999688552174 L 548.4 178.40001633488018 L 549.8 178.54998803775567 L 551.2 178.70000748711408 L 552.5999999999999 178.84997918998957 L 554.0 178.999998639348 L 555.4 179.15001808870642 L 556.8 179.2999897915819 L 558.2 179.45000924094032 L 559.5999999999999 179.5999809438158 L 561.0 179.75000039317425 L 562.4 179.90001984253266 L 563.8 180.04999154540815 L 565.2 180.2000109947666 L 566.6 180.34998269764208 L 568.0 180.5000021470005 L 569.4 180.6500215963589 L 570.8 180.79999329923442 L 572.2 180.95001274859283 L 573.6 181.09998445146832 L 575.0 181.25000390082673 L 576.4 181.40002335018517 L 577.8 181.54999505306066 L 579.2 181.70001450241907 L 580.6 181.84998620529456 L 582.0 182.000005654653 L 583.4 182.14997735752848 L 584.8 182.2999968068869 L 586.2 182.4500162562453 L 587.6 182.59998795912082 L 589.0 182.75000740847923 L 590.4 182.89997911135472 L 591.8000000000001 183.04999856071314 L 593.2 183.20001801007157 L 594.6 183.34998971294706 L 596.0 183.50000916230547 L 597.4 183.64998086518096 L 598.8000000000001 183.8000003145394 L 600.2 183.9500197638978 L 601.6 184.0999914667733 L 603.0 184.2500109161317 L 604.4 184.39998261900723 L 605.8000000000001 184.55000206836564 L 607.2 184.70002151772405 L 608.6 184.84999322059954 L 610.0 185.00001266995798 L 611.4 185.14998437283347 L 612.8000000000001 185.30000382219188 L 614.2 185.45002327155032 L 615.6 185.5999949744258 L 617.0 185.75001442378422 L 618.4000000000001 185.8999861266597 L 619.8 186.05000557601812 L 621.1999999999999 186.19997727889364 L 622.5999999999999 186.34999672825205 L 624.0 186.50001617761046 L 625.4 186.64998788048595 L 626.8 186.8000073298444 L 628.1999999999999 186.94997903271988 L 629.6 187.0999984820783 L 631.0 187.25001793143673 L 632.4 187.39998963431222 L 633.8 187.55000908367063 L 635.1999999999999 187.69998078654612 L 636.6 187.85000023590453 L 638.0 188.00001968526297 L 639.4 188.14999138813846 L 640.8 188.30001083749687 L 642.1999999999999 188.44998254037236 L 643.6 188.6000019897308 L 645.0 188.7500214390892 L 646.4 188.8999931419647 L 647.8 189.05001259132314 L 649.1999999999999 189.19998429419863 L 650.6 189.35000374355704 L 652.0 189.50002319291545 L 653.4 189.64999489579094 L 654.8 189.80001434514938 L 656.2 189.94998604802487 L 657.6 190.10000549738328 L 659.0 190.24997720025877 L 660.4 190.3999966496172 L 661.8 190.55001609897562 L 663.2 190.6999878018511 L 664.6 190.85000725120955 L 666.0 190.99997895408504 L 667.4 191.14999840344345 L 668.8 191.30001785280186 L 670.2 191.44998955567735 L 671.6 191.6000090050358 L 673.0 191.74998070791128 L 674.4 191.9000001572697 L 675.8000000000001 192.05001960662813 L 677.2 192.19999130950362 L 678.6 192.35001075886203 L 680.0 192.49998246173752 L 681.4 192.65000191109596 L 682.8000000000001 192.80002136045437 L 684.2 192.94999306332986 L 685.6 193.10001251268827 L 687.0 193.24998421556379 L 688.4 193.4000036649222 L 689.8000000000001 193.5500231142806 L 691.2 193.6999948171561 L 692.6 193.85001426651453 L 694.0 193.99998596939002 L 695.4 194.15000541874844 L 696.8000000000001 194.29997712162393 L 698.2 194.44999657098236 L 699.6 194.60001602034077 L 701.0 194.74998772321626 L 702.4000000000001 194.90000717257467 L 703.8000000000001 195.0499788754502 L 705.2 195.1999983248086 L 706.5999999999999 195.35001777416701 L 708.0 195.4999894770425 L 709.4 195.65000892640094 L 710.8 195.79998062927643 L 712.1999999999999 195.95000007863484 L 713.6 196.10001952799328 L 715.0 196.24999123086877 L 716.4 196.40001068022718 L 717.8 196.54998238310267 L 719.1999999999999 196.70000183246108 L 720.6 196.85002128181952 L 722.0 196.999992984695 L 723.4 197.15001243405342 L 724.8 197.2999841369289 L 726.1999999999999 197.45000358628735 L 727.6 197.60002303564576 L 729.0 197.74999473852125 L 730.4 197.9000141878797 L 731.8 198.04998589075518 L 733.1999999999999 198.2000053401136 L 734.6 198.34997704298908 L 736.0 198.4999964923475 L 737.4 198.65001594170593 L 738.8 198.79998764458142 L 740.2 198.95000709393983 L 741.6 199.09997879681532 L 743.0 199.24999824617376 L 744.4 199.40001769553217 L 745.8 199.54998939840766 L 747.2 199.7000088477661 L 748.6 199.8499805506416" fill="none" stroke="red" stroke-width="2"/>
</g>
</svg>