<svg width="800" height="400" xmlns="http://www.w3.org/2000/svg" font-family="Arial, sans-serif">
<rect width="100%" height="100%" fill="white"/>
<text x="400.0" y="30" text-anchor="middle" font-weight="bold" font-size="16">Multi-tone Analysis (RMS Amplitude)</text>
<line x1="50" y1="350" x2="750" y2="350" stroke="black" stroke-width="2"/>
<line x1="50" y1="50" x2="50" y2="350" stroke="black" stroke-width="2"/>
<line x1="50.0" y1="50" x2="50.0" y2="350" stroke="#eee" stroke-width="1"/>
<text x="50.0" y="370" text-anchor="middle" font-size="10">0.00s</text>
<line x1="120.0" y1="50" x2="120.0" y2="350" stroke="#eee" stroke-width="1"/>
<text x="120.0" y="370" text-anchor="middle" font-size="10">0.10s</text>
<line x1="190.0" y1="50" x2="190.0" y2="350" stroke="#eee" stroke-width="1"/>
<text x="190.0" y="370" text-anchor="middle" font-size="10">0.20s</text>
<line x1="260.0" y1="50" x2="260.0" y2="350" stroke="#eee" stroke-width="1"/>
<text x="260.0" y="370" text-anchor="middle" font-size="10">0.30s</text>
<line x1="330.0" y1="50" x2="330.0" y2="350" stroke="#eee" stroke-width="1"/>
<text x="330.0" y="370" text-anchor="middle" font-size="10">0.39s</text>
<line x1="400.0" y1="50" x2="400.0" y2="350" stroke="#eee" stroke-width="1"/>
<text x="400.0" y="370" text-anchor="middle" font-size="10">0.49s</text>
<line x1="470.0" y1="50" x2="470.0" y2="350" stroke="#eee" stroke-width="1"/>
<text x="470.0" y="370" text-anchor="middle" font-size="10">0.59s</text>
<line x1="540.0" y1="50" x2="540.0" y2="350" stroke="#eee" stroke-width="1"/>
<text x="540.0" y="370" text-anchor="middle" font-size="10">0.69s</text>
<line x1="610.0" y1="50" x2="610.0" y2="350" stroke="#eee" stroke-width="1"/>
<text x="610.0" y="370" text-anchor="middle" font-size="10">0.79s</text>
<line x1="680.0" y1="50" x2="680.0" y2="350" stroke="#eee" stroke-width="1"/>
<text x="680.0" y="370" text-anchor="middle" font-size="10">0.89s</text>
<line x1="750.0" y1="50" x2="750.0" y2="350" stroke="#eee" stroke-width="1"/>
<text x="750.0" y="370" text-anchor="middle" font-size="10">0.99s</text>
<path d="M 50.0 55.808618037877864 L 58.23529411764706 57.59684633398814 L 66.47058823529412 50.0 L 74.70588235294117 53.76183711851894 L 82.94117647058823 55.706768479567074 L 91.1764705882353 57.653028167828154 L 99.41176470588235 50.579488560356424 L 107.64705882352942 55.39710385851964 L 115.88235294117646 52.618409200744225 L 124.11764705882352 56.587272225232425 L 132.3529411764706 52.67889045985174 L 140.58823529411765 57.02647965342169 L 148.8235294117647 50.673000490521815 L 157.05882352941177 55.389727310767796 L 165.29411764705884 53.59933280920484 L 173.52941176470586 57.1759626645694 L 181.76470588235293 51.38246090224402 L 190.0 53.522426355808875 L 198.23529411764704 54.8987009742101 L 206.47058823529412 57.498699423655296 L 214.7058823529412 51.54013108890473 L 222.94117647058823 53.933594301841254 L 231.1764705882353 54.05850680789325 L 239.41176470588235 56.12082055264318 L 247.64705882352942 52.93652501255218 L 255.88235294117646 56.912280987467966 L 264.11764705882354 51.2314267055217 L 272.3529411764706 54.34332205261654 L 280.5882352941177 54.11129972576538 L 288.82352941176475 57.22796815930269 L 297.0588235294117 51.67358936514864 L 305.2941176470588 53.32413479772572 L 313.52941176470586 54.81723491858514 L 321.7647058823529 56.175711090681375 L 330.0 52.63061259205216 L 338.2352941176471 52.526772802776975 L 346.4705882352941 56.10174480735168 L 354.70588235294116 55.574851090272716 L 362.94117647058823 52.72254433320313 L 371.1764705882353 54.693064308819714 L 379.4117647058824 54.07301914088873 L 387.6470588235294 54.294739506598944 L 395.88235294117646 54.06004094036524 L 404.11764705882354 56.9400179122926 L 412.3529411764706 51.559759159583166 L 420.5882352941176 53.847301081282126 L 428.8235294117647 54.97044308114158 L 437.0588235294117 55.983165033367186 L 445.29411764705884 52.10770529432966 L 453.52941176470586 52.69292595603264 L 461.7647058823529 56.42603940316678 L 470.0 55.4294594350327 L 478.2352941176471 52.74875461349535 L 486.47058823529403 51.776849798887326 L 494.70588235294116 56.724397954032725 L 502.9411764705882 54.6983066863682 L 511.1764705882353 54.25641046539829 L 519.4117647058824 54.25402411209859 L 527.6470588235295 53.53062195569049 L 535.8823529411766 53.2589760988393 L 544.1176470588234 56.05808032203788 L 552.3529411764706 55.65657084077975 L 560.5882352941176 52.344045554798754 L 568.8235294117648 52.609040981300495 L 577.0588235294117 56.2085919204917 L 585.2941176470589 54.96926846385065 L 593.5294117647059 53.80459265256968 L 601.7647058823529 51.374971131805864 L 610.0 56.4899912540302 L 618.2352941176471 54.52205203943623 L 626.4705882352941 54.89038679790741 L 634.7058823529412 52.67152100456883 L 642.9411764705882 54.97824343061552 L 651.1764705882354 52.484823612177706 L 659.4117647058823 56.391400407655624 L 667.6470588235294 56.022644659994 L 675.8823529411765 52.74764804292806 L 684.1176470588235 51.122330400722774 L 692.3529411764706 56.84467041839537 L 700.5882352941177 55.486315975027026 L 708.8235294117648 53.92711927083178 L 717.0588235294117 50.972131341411966 L 725.2941176470588 56.901045372348165 L 733.5294117647059 53.580711941404786 L 741.7647058823529 55.499282864058614 L 750.0 50.800284790378896" fill="none" stroke="blue" stroke-width="2"/>
<path d="M 50.0 199.32088276847995 L 58.23529411764706 194.64400409372348 L 66.47058823529412 195.40721079232546 L 74.70588235294117 201.11541737003944 L 82.94117647058823 203.6778635682686 L 91.1764705882353 199.21035223533548 L 99.41176470588235 194.38633656707876 L 107.64705882352942 195.7672460884051 L 115.88235294117646 201.01156872938034 L 124.11764705882352 203.14461596670057 L 132.3529411764706 199.5199264607945 L 140.58823529411765 194.640667886032 L 148.8235294117647 195.3501616981427 L 157.05882352941177 200.91950482044828 L 165.29411764705884 203.86488385162747 L 173.52941176470586 199.24964848316674 L 181.76470588235293 194.50002432567462 L 190.0 195.6137056378651 L 198.23529411764704 200.91333838318798 L 206.47058823529412 203.2117708431 L 214.7058823529412 199.60441429775946 L 222.94117647058823 194.79789850095898 L 231.1764705882353 195.11594058283643 L 239.41176470588235 200.93724882453964 L 247.64705882352942 203.69682278248683 L 255.88235294117646 199.5730230851487 L 264.11764705882354 194.4152095700511 L 272.3529411764706 195.58662692815045 L 280.5882352941177 200.78011227919646 L 288.82352941176475 203.22358177849563 L 297.0588235294117 199.74375200816436 L 305.2941176470588 194.73235144131948 L 313.52941176470586 195.2048402988363 L 321.7647058823529 200.66857383077644 L 330.0 203.912874607154 L 338.2352941176471 199.47909687370762 L 346.4705882352941 194.60106386799632 L 354.70588235294116 195.46338917588255 L 362.94117647058823 200.73170235784082 L 371.1764705882353 203.17262523562107 L 379.4117647058824 199.86921458729515 L 387.6470588235294 194.9214045592619 L 395.88235294117646 195.00240103103076 L 404.11764705882354 200.60249250001456 L 412.3529411764706 203.81630348867066 L 420.5882352941176 199.784382448489 L 428.8235294117647 194.58935433654156 L 437.0588235294117 195.37997517715434 L 445.29411764705884 200.56477871267893 L 453.52941176470586 203.23729915951944 L 461.7647058823529 199.94647200128927 L 470.0 194.97333806235036 L 478.2352941176471 194.97929119185932 L 486.47058823529403 200.45200115227658 L 494.70588235294116 203.78724243162023 L 502.9411764705882 199.90602253256878 L 511.1764705882353 194.6684317154334 L 519.4117647058824 195.3042234559173 L 527.6470588235295 200.46008440691725 L 535.8823529411766 203.19597795365735 L 544.1176470588234 200.1491576124191 L 552.3529411764706 195.0005668618283 L 560.5882352941176 194.93834332399368 L 568.8235294117648 200.21419394426255 L 577.0588235294117 203.9656787612969 L 585.2941176470589 199.9596121751134 L 593.5294117647059 194.81107016439532 L 601.7647058823529 195.1306912893592 L 610.0 200.36004045427458 L 618.2352941176471 203.25326692245005 L 626.4705882352941 200.21516943039626 L 634.7058823529412 195.1558015275198 L 642.9411764705882 194.7400746166547 L 651.1764705882354 200.24628976027404 L 659.4117647058823 203.74624995797242 L 667.6470588235294 200.26350453976045 L 675.8823529411765 194.7485376800146 L 684.1176470588235 195.14163342806518 L 692.3529411764706 200.20294401421515 L 700.5882352941177 203.25226889335147 L 708.8235294117648 200.3601683710263 L 717.0588235294117 195.11613593897548 L 725.2941176470588 194.81633084637255 L 733.5294117647059 199.97513707227984 L 741.7647058823529 203.96263191707104 L 750.0 200.18039371281142" fill="none" stroke="red" stroke-width="2"/>
<text x="600" y="80" fill="blue" font-size="12">Left (Low-pass)</text>
<text x="600" y="100" fill="red" font-size="12">Right (High-pass)</text>
</svg>