<svg width="800" height="400" xmlns="http://www.w3.org/2000/svg" font-family="Arial, sans-serif">
<rect width="100%" height="100%" fill="white"/>
<text x="400.0" y="30" text-anchor="middle" font-weight="bold" font-size="16">Multi-tone Analysis (RMS Amplitude)</text>
<line x1="50" y1="350" x2="750" y2="350" stroke="black" stroke-width="2"/>
<line x1="50" y1="50" x2="50" y2="350" stroke="black" stroke-width="2"/>
<line x1="50.0" y1="50" x2="50.0" y2="350" stroke="#eee" stroke-width="1"/>
<text x="50.0" y="370" text-anchor="middle" font-size="10">0.00s</text>
<line x1="120.0" y1="50" x2="120.0" y2="350" stroke="#eee" stroke-width="1"/>
<text x="120.0" y="370" text-anchor="middle" font-size="10">0.10s</text>
<line x1="190.0" y1="50" x2="190.0" y2="350" stroke="#eee" stroke-width="1"/>
<text x="190.0" y="370" text-anchor="middle" font-size="10">0.20s</text>
<line x1="260.0" y1="50" x2="260.0" y2="350" stroke="#eee" stroke-width="1"/>
<text x="260.0" y="370" text-anchor="middle" font-size="10">0.30s</text>
<line x1="330.0" y1="50" x2="330.0" y2="350" stroke="#eee" stroke-width="1"/>
<text x="330.0" y="370" text-anchor="middle" font-size="10">0.39s</text>
<line x1="400.0" y1="50" x2="400.0" y2="350" stroke="#eee" stroke-width="1"/>
<text x="400.0" y="370" text-anchor="middle" font-size="10">0.49s</text>
<line x1="470.0" y1="50" x2="470.0" y2="350" stroke="#eee" stroke-width="1"/>
<text x="470.0" y="370" text-anchor="middle" font-size="10">0.59s</text>
<line x1="540.0" y1="50" x2="540.0" y2="350" stroke="#eee" stroke-width="1"/>
<text x="540.0" y="370" text-anchor="middle" font-size="10">0.69s</text>
<line x1="610.0" y1="50" x2="610.0" y2="350" stroke="#eee" stroke-width="1"/>
<text x="610.0" y="370" text-anchor="middle" font-size="10">0.79s</text>
<line x1="680.0" y1="50" x2="680.0" y2="350" stroke="#eee" stroke-width="1"/>
<text x="680.0" y="370" text-anchor="middle" font-size="10">0.89s</text>
<line x1="750.0" y1="50" x2="750.0" y2="350" stroke="#eee" stroke-width="1"/>
<text x="750.0" y="370" text-anchor="middle" font-size="10">0.99s</text>
<path d="M 50.0 61.41988684933125 L 58.23529411764706 61.01170571809217 L 66.47058823529412 52.586743974643184 L 74.70588235294117 57.226292688819115 L 82.94117647058823 59.055342851364856 L 91.1764705882353 63.53586091455617 L 99.41176470588235 59.770642825273285 L 107.64705882352942 53.942256408116805 L 115.88235294117646 53.561734244174545 L 124.11764705882352 63.105468553378444 L 132.3529411764706 64.48131434999664 L 140.58823529411765 57.41228453680685 L 148.8235294117647 51.20828057490803 L 157.05882352941177 59.59697157118211 L 165.29411764705884 60.658157840699744 L 173.52941176470586 62.593398906096695 L 181.76470588235293 56.631613877636426 L 190.0 57.56684395136085 L 198.23529411764704 54.77301442411704 L 206.47058823529412 60.555569362639005 L 214.7058823529412 62.183408865707634 L 222.94117647058823 59.22062436265611 L 231.1764705882353 54.69121456497106 L 239.41176470588235 56.687143897012334 L 247.64705882352942 61.98011232505496 L 255.88235294117646 59.29945413827511 L 264.11764705882354 57.2187361119295 L 272.3529411764706 58.431451623781754 L 280.5882352941177 58.431451623781754 L 288.82352941176475 57.2187361119295 L 297.0588235294117 59.29945413827511 L 305.2941176470588 61.98011232505496 L 313.52941176470586 56.687143897012334 L 321.7647058823529 54.69121456497106 L 330.0 59.22062436265611 L 338.2352941176471 62.183408865707634 L 346.4705882352941 60.555569362639005 L 354.70588235294116 54.77301442411704 L 362.94117647058823 57.56684395136085 L 371.1764705882353 56.631613877636426 L 379.4117647058824 62.59347006424224 L 387.6470588235294 60.658157840699744 L 395.88235294117646 59.59697157118211 L 404.11764705882354 51.20828057490803 L 412.3529411764706 57.41228453680685 L 420.5882352941176 64.48131434999664 L 428.8235294117647 63.105468553378444 L 437.0588235294117 53.561734244174545 L 445.29411764705884 53.942256408116805 L 453.52941176470586 59.770642825273285 L 461.7647058823529 63.53586091455617 L 470.0 59.055342851364856 L 478.2352941176471 57.226292688819115 L 486.47058823529403 52.586743974643184 L 494.70588235294116 61.01170571809217 L 502.9411764705882 61.41988684933125 L 511.1764705882353 64.36928311695601 L 519.4117647058824 50.0 L 527.6470588235295 56.00603802559846 L 535.8823529411766 59.847189257456535 L 544.1176470588234 67.9433223777354 L 552.3529411764706 54.7097026847174 L 560.5882352941176 55.326989382524516 L 568.8235294117648 55.54608594906421 L 577.0588235294117 62.352749132378676 L 585.2941176470589 59.84530582148267 L 593.5294117647059 61.759839549561434 L 601.7647058823529 53.94462309591512 L 610.0 56.64479176284391 L 618.2352941176471 57.49810330418808 L 626.4705882352941 66.34509392749663 L 634.7058823529412 55.53274446487569 L 642.9411764705882 57.66122977284124 L 651.1764705882354 53.979303700144214 L 659.4117647058823 65.09214714215898 L 667.6470588235294 55.72010778709836 L 675.8823529411765 60.94299171399064 L 684.1176470588235 55.38674791284433 L 692.3529411764706 60.67834492700814 L 700.5882352941177 54.24444558788906 L 708.8235294117648 63.64007415595 L 717.0588235294117 58.502327935144535 L 725.2941176470588 58.86993538447149 L 733.5294117647059 52.104533034882024 L 741.7647058823529 63.01918975298537 L 750.0 58.097382836851466" fill="none" stroke="blue" stroke-width="2"/>
<path d="M 50.0 185.13641013760304 L 58.23529411764706 185.21585910842222 L 66.47058823529412 185.32314916221137 L 74.70588235294117 185.97719055825507 L 82.94117647058823 185.95267978799563 L 91.1764705882353 185.17219782786347 L 99.41176470588235 185.0300129817265 L 107.64705882352942 185.82061639682232 L 115.88235294117646 186.0924129860649 L 124.11764705882352 185.3338180073438 L 132.3529411764706 185.30500015280913 L 140.58823529411765 185.2112668343444 L 148.8235294117647 185.37326802487482 L 157.05882352941177 185.7686944586971 L 165.29411764705884 186.09551348539495 L 173.52941176470586 185.22510673370962 L 181.76470588235293 185.0011675520671 L 190.0 185.85184782974613 L 198.23529411764704 185.96891673264585 L 206.47058823529412 185.5252584126858 L 214.7058823529412 185.19955457414034 L 222.94117647058823 185.28601856294202 L 231.1764705882353 185.21265291955524 L 239.41176470588235 185.92983657960355 L 247.64705882352942 186.0144812697 L 255.88235294117646 185.25816413471387 L 264.11764705882354 184.95447840616188 L 272.3529411764706 185.75051292620608 L 280.5882352941177 186.12334189814808 L 288.82352941176475 185.46932380230987 L 297.0588235294117 185.21022643795072 L 305.2941176470588 185.17174329948415 L 313.52941176470586 185.3874377543111 L 321.7647058823529 185.80885183630943 L 330.0 186.06252990623764 L 338.2352941176471 185.23643906576095 L 346.4705882352941 185.00663078487875 L 354.70588235294116 185.7928695753585 L 362.94117647058823 186.05713916141238 L 371.1764705882353 185.42131101233664 L 379.4117647058824 185.28505914192297 L 387.6470588235294 185.26055546562134 L 395.88235294117646 185.26618722098092 L 404.11764705882354 185.79110803120824 L 412.3529411764706 186.09922186756498 L 420.5882352941176 185.30031368017325 L 428.8235294117647 184.9401662802048 L 437.0588235294117 185.74055751242952 L 445.29411764705884 186.05479478239 L 453.52941176470586 185.6108158000992 L 461.7647058823529 185.13931193785652 L 470.0 185.20370068508734 L 478.2352941176471 185.29416167772396 L 486.47058823529403 185.91034321332478 L 494.70588235294116 186.00409316441463 L 502.9411764705882 185.2609888209613 L 511.1764705882353 184.9922990382676 L 519.4117647058824 185.72806618331785 L 527.6470588235295 186.1336549427113 L 535.8823529411766 185.3772377862853 L 544.1176470588234 185.3200243883403 L 552.3529411764706 185.21553304993614 L 560.5882352941176 185.3498765030356 L 568.8235294117648 185.67696948087834 L 577.0588235294117 186.15055947749036 L 585.2941176470589 185.3179063907083 L 593.5294117647059 184.96484390600907 L 601.7647058823529 185.73291001540952 L 610.0 186.023599680489 L 618.2352941176471 185.59087920777023 L 626.4705882352941 185.20420255022228 L 634.7058823529412 185.25980893133627 L 642.9411764705882 185.20012155322928 L 651.1764705882354 185.86692697414034 L 659.4117647058823 186.0541538699032 L 667.6470588235294 185.33495861466704 L 675.8823529411765 184.9252345425857 L 684.1176470588235 185.66163824817764 L 692.3529411764706 186.14759807361517 L 700.5882352941177 185.51526975401916 L 708.8235294117648 185.22973818841007 L 717.0588235294117 185.1891746539048 L 725.2941176470588 185.35092108121282 L 733.5294117647059 185.71663573088352 L 741.7647058823529 186.11409982014067 L 750.0 185.339737957793" fill="none" stroke="red" stroke-width="2"/>
<text x="600" y="80" fill="blue" font-size="12">Left (Low-pass)</text>
<text x="600" y="100" fill="red" font-size="12">Right (High-pass)</text>
</svg>