<svg width="800" height="400" xmlns="http://www.w3.org/2000/svg" font-family="Arial, sans-serif">
<rect width="100%" height="100%" fill="white"/>
<text x="400.0" y="30" text-anchor="middle" font-weight="bold" font-size="16">Multi-tone Analysis (RMS Amplitude)</text>
<line x1="50" y1="350" x2="750" y2="350" stroke="black" stroke-width="2"/>
<line x1="50" y1="50" x2="50" y2="350" stroke="black" stroke-width="2"/>
<line x1="50.0" y1="50" x2="50.0" y2="350" stroke="#eee" stroke-width="1"/>
<text x="50.0" y="370" text-anchor="middle" font-size="10">0.00s</text>
<line x1="120.0" y1="50" x2="120.0" y2="350" stroke="#eee" stroke-width="1"/>
<text x="120.0" y="370" text-anchor="middle" font-size="10">0.10s</text>
<line x1="190.0" y1="50" x2="190.0" y2="350" stroke="#eee" stroke-width="1"/>
<text x="190.0" y="370" text-anchor="middle" font-size="10">0.20s</text>
<line x1="260.0" y1="50" x2="260.0" y2="350" stroke="#eee" stroke-width="1"/>
<text x="260.0" y="370" text-anchor="middle" font-size="10">0.30s</text>
<line x1="330.0" y1="50" x2="330.0" y2="350" stroke="#eee" stroke-width="1"/>
<text x="330.0" y="370" text-anchor="middle" font-size="10">0.39s</text>
<line x1="400.0" y1="50" x2="400.0" y2="350" stroke="#eee" stroke-width="1"/>
<text x="400.0" y="370" text-anchor="middle" font-size="10">0.49s</text>
<line x1="470.0" y1="50" x2="470.0" y2="350" stroke="#eee" stroke-width="1"/>
<text x="470.0" y="370" text-anchor="middle" font-size="10">0.59s</text>
<line x1="540.0" y1="50" x2="540.0" y2="350" stroke="#eee" stroke-width="1"/>
<text x="540.0" y="370" text-anchor="middle" font-size="10">0.69s</text>
<line x1="610.0" y1="50" x2="610.0" y2="350" stroke="#eee" stroke-width="1"/>
<text x="610.0" y="370" text-anchor="middle" font-size="10">0.79s</text>
<line x1="680.0" y1="50" x2="680.0" y2="350" stroke="#eee" stroke-width="1"/>
<text x="680.0" y="370" text-anchor="middle" font-size="10">0.89s</text>
<line x1="750.0" y1="50" x2="750.0" y2="350" stroke="#eee" stroke-width="1"/>
<text x="750.0" y="370" text-anchor="middle" font-size="10">0.99s</text>
<path d="M 50.0 61.41993657391754 L 58.23529411764706 61.011755513011224 L 66.47058823529412 52.58679522124828 L 74.70588235294117 57.226343135994114 L 82.94117647058823 59.05539298338033 L 91.1764705882353 63.53591027454377 L 99.41176470588235 59.770585968935904 L 107.64705882352942 53.94230742115667 L 115.88235294117646 53.561785322781304 L 124.11764705882352 63.1055179875259 L 132.3529411764706 64.48136354707526 L 140.58823529411765 57.41233495193404 L 148.8235294117647 51.20833205903307 L 157.05882352941177 59.59702160987081 L 165.29411764705884 60.658154100085596 L 173.52941176470586 62.59339447113604 L 181.76470588235293 56.63166442727919 L 190.0 57.56689433985622 L 198.23529411764704 54.77306529401085 L 206.47058823529412 60.55561923615386 L 214.7058823529412 62.18345845873313 L 222.94117647058823 59.22067446619229 L 231.1764705882353 54.691265448959655 L 239.41176470588235 56.687141566249636 L 247.64705882352942 61.98010811066075 L 255.88235294117646 59.29950422822833 L 264.11764705882354 57.218786560406556 L 272.3529411764706 58.431501863298536 L 280.5882352941177 58.431501863298536 L 288.82352941176475 57.218786560406556 L 297.0588235294117 59.29950422822833 L 305.2941176470588 61.98010811066075 L 313.52941176470586 56.687141566249636 L 321.7647058823529 54.691265448959655 L 330.0 59.22067446619229 L 338.2352941176471 62.18345845873313 L 346.4705882352941 60.55561923615386 L 354.70588235294116 54.77306529401085 L 362.94117647058823 57.56689433985622 L 371.1764705882353 56.63166442727919 L 379.4117647058824 62.59339447113604 L 387.6470588235294 60.658154100085596 L 395.88235294117646 59.59702160987081 L 404.11764705882354 51.20833205903307 L 412.3529411764706 57.41233495193404 L 420.5882352941176 64.48136354707526 L 428.8235294117647 63.1055179875259 L 437.0588235294117 53.561785322781304 L 445.29411764705884 53.94230742115667 L 453.52941176470586 59.770585968935904 L 461.7647058823529 63.53591027454377 L 470.0 59.05539298338033 L 478.2352941176471 57.226343135994114 L 486.47058823529403 52.58679522124828 L 494.70588235294116 61.011755513011224 L 502.9411764705882 61.41993657391754 L 511.1764705882353 64.36933233333849 L 519.4117647058824 50.0 L 527.6470588235295 56.00608868303277 L 535.8823529411766 59.84723925303081 L 544.1176470588234 67.94337097828327 L 552.3529411764706 54.709753565520316 L 560.5882352941176 55.32704015696419 L 568.8235294117648 55.54613668575183 L 577.0588235294117 62.352798696225534 L 585.2941176470589 59.8453558173814 L 593.5294117647059 61.759835414268196 L 601.7647058823529 53.94462172748098 L 610.0 56.644842310216006 L 618.2352941176471 57.498153704527965 L 626.4705882352941 66.34514280343166 L 634.7058823529412 55.53279520386212 L 642.9411764705882 57.66128014507319 L 651.1764705882354 53.97935470680051 L 659.4117647058823 65.09219623398639 L 667.6470588235294 55.72010579670285 L 675.8823529411765 60.94304152074966 L 684.1176470588235 55.3867986769871 L 692.3529411764706 60.67839477936781 L 700.5882352941177 54.24449654885933 L 708.8235294117648 63.640123497980824 L 717.0588235294117 58.50237816244879 L 725.2941176470588 58.8699855484341 L 733.5294117647059 52.104584364575885 L 741.7647058823529 63.019185164601595 L 750.0 58.09743313393085" fill="none" stroke="blue" stroke-width="2"/>
<path d="M 50.0 185.13643854487512 L 58.23529411764706 185.21588750200468 L 66.47058823529412 185.3231775373069 L 74.70588235294117 185.97721882065423 L 82.94117647058823 185.95270805461814 L 91.1764705882353 185.17235871063235 L 99.41176470588235 185.03004140733165 L 107.64705882352942 185.820777691094 L 115.88235294117646 186.09244122861028 L 124.11764705882352 185.33384638060102 L 132.3529411764706 185.30502853103187 L 140.58823529411765 185.21129522871811 L 148.8235294117647 185.37329639133446 L 157.05882352941177 185.76872275702172 L 165.29411764705884 186.09567495537286 L 173.52941176470586 185.22526764990153 L 181.76470588235293 185.00119598264257 L 190.0 185.85187611374278 L 198.23529411764704 185.96894499647064 L 206.47058823529412 185.5252867529563 L 214.7058823529412 185.19958297053216 L 222.94117647058823 185.28604694443544 L 231.1764705882353 185.2128138278775 L 239.41176470588235 185.92986485016212 L 247.64705882352942 186.0146426878068 L 255.88235294117646 185.2581925210068 L 264.11764705882354 184.95450684478223 L 272.3529411764706 185.75054122766352 L 280.5882352941177 186.1233701353642 L 288.82352941176475 185.4693521522184 L 297.0588235294117 185.2102548325037 L 305.2941176470588 185.171904181966 L 313.52941176470586 185.3874661183292 L 321.7647058823529 185.80901312307822 L 330.0 186.06255815393214 L 338.2352941176471 185.2364674557973 L 346.4705882352941 185.00665921451284 L 354.70588235294116 185.79289786951756 L 362.94117647058823 186.05716741003576 L 371.1764705882353 185.4213393705181 L 379.4117647058824 185.2852200960204 L 387.6470588235294 185.26071640422177 L 395.88235294117646 185.2662156058914 L 404.11764705882354 185.79113632567083 L 412.3529411764706 186.09925010893716 L 420.5882352941176 185.3003420592035 L 428.8235294117647 184.94019472129122 L 437.0588235294117 185.74058581560237 L 445.29411764705884 186.05482303141733 L 453.52941176470586 185.61084412562752 L 461.7647058823529 185.13947279986482 L 470.0 185.20372908076473 L 478.2352941176471 185.29419005781423 L 486.47058823529403 185.91037148724223 L 494.70588235294116 186.0041214221782 L 502.9411764705882 185.26101720676755 L 511.1764705882353 184.99232747037112 L 519.4117647058824 185.72809448864302 L 527.6470588235295 186.1336831781504 L 535.8823529411766 185.3773987987321 L 544.1176470588234 185.32005276397425 L 552.3529411764706 185.21556144357476 L 560.5882352941176 185.3499048735258 L 568.8235294117648 185.67699779500788 L 577.0588235294117 186.1505877100167 L 585.2941176470589 185.3180673655886 L 593.5294117647059 184.96487234284334 L 601.7647058823529 185.73307125377895 L 610.0 186.02362793489152 L 618.2352941176471 185.59090753673382 L 626.4705882352941 185.20423094581324 L 634.7058823529412 185.25983731734578 L 642.9411764705882 185.20014994952342 L 651.1764705882354 185.86695525553876 L 659.4117647058823 186.05431531339747 L 667.6470588235294 185.3349869877277 L 675.8823529411765 184.9253952697064 L 684.1176470588235 185.66166656494886 L 692.3529411764706 186.14762630665177 L 700.5882352941177 185.51529809601084 L 708.8235294117648 185.229766579601 L 717.0588235294117 185.18920305208516 L 725.2941176470588 185.350949451523 L 733.5294117647059 185.71679695888844 L 741.7647058823529 186.11412805894926 L 750.0 185.33976633003013" fill="none" stroke="red" stroke-width="2"/>
<text x="600" y="80" fill="blue" font-size="12">Left (Low-pass)</text>
<text x="600" y="100" fill="red" font-size="12">Right (High-pass)</text>
</svg>