<svg width="800" height="400" xmlns="http://www.w3.org/2000/svg" font-family="Arial, sans-serif">
<rect width="100%" height="100%" fill="white"/>
<text x="400.0" y="30" text-anchor="middle" font-weight="bold" font-size="16">Multi-tone Analysis (RMS Amplitude)</text>
<line x1="50" y1="350" x2="750" y2="350" stroke="black" stroke-width="2"/>
<line x1="50" y1="50" x2="50" y2="350" stroke="black" stroke-width="2"/>
<line x1="50.0" y1="50" x2="50.0" y2="350" stroke="#eee" stroke-width="1"/>
<text x="50.0" y="370" text-anchor="middle" font-size="10">0.00s</text>
<line x1="120.0" y1="50" x2="120.0" y2="350" stroke="#eee" stroke-width="1"/>
<text x="120.0" y="370" text-anchor="middle" font-size="10">0.10s</text>
<line x1="190.0" y1="50" x2="190.0" y2="350" stroke="#eee" stroke-width="1"/>
<text x="190.0" y="370" text-anchor="middle" font-size="10">0.20s</text>
<line x1="260.0" y1="50" x2="260.0" y2="350" stroke="#eee" stroke-width="1"/>
<text x="260.0" y="370" text-anchor="middle" font-size="10">0.29s</text>
<line x1="330.0" y1="50" x2="330.0" y2="350" stroke="#eee" stroke-width="1"/>
<text x="330.0" y="370" text-anchor="middle" font-size="10">0.39s</text>
<line x1="400.00000000000006" y1="50" x2="400.00000000000006" y2="350" stroke="#eee" stroke-width="1"/>
<text x="400.00000000000006" y="370" text-anchor="middle" font-size="10">0.49s</text>
<line x1="470.00000000000006" y1="50" x2="470.00000000000006" y2="350" stroke="#eee" stroke-width="1"/>
<text x="470.00000000000006" y="370" text-anchor="middle" font-size="10">0.59s</text>
<line x1="540.0" y1="50" x2="540.0" y2="350" stroke="#eee" stroke-width="1"/>
<text x="540.0" y="370" text-anchor="middle" font-size="10">0.68s</text>
<line x1="610.0" y1="50" x2="610.0" y2="350" stroke="#eee" stroke-width="1"/>
<text x="610.0" y="370" text-anchor="middle" font-size="10">0.78s</text>
<line x1="680.0" y1="50" x2="680.0" y2="350" stroke="#eee" stroke-width="1"/>
<text x="680.0" y="370" text-anchor="middle" font-size="10">0.88s</text>
<line x1="750.0000000000001" y1="50" x2="750.0000000000001" y2="350" stroke="#eee" stroke-width="1"/>
<text x="750.0000000000001" y="370" text-anchor="middle" font-size="10">0.98s</text>
<path d="M 50.0 56.42318002325442 L 66.66666666666667 50.0 L 83.33333333333334 56.49554737703835 L 100.0 51.97678169459425 L 116.66666666666667 53.45354602940421 L 133.33333333333334 56.127824675219074 L 150.0 50.483257574402046 L 166.66666666666666 56.838334322239916 L 183.33333333333334 52.237989655581714 L 200.0 52.79827497923378 L 216.66666666666669 55.89709143289201 L 233.33333333333334 50.80317200642207 L 250.0 55.83449804012844 L 266.6666666666667 52.97564059441601 L 283.3333333333333 52.97564059441601 L 300.0 55.83449804012844 L 316.6666666666667 50.80317200642207 L 333.3333333333333 55.89709143289201 L 350.0 52.79827497923378 L 366.6666666666667 52.237989655581714 L 383.33333333333337 56.838334322239916 L 400.0 50.483257574402046 L 416.6666666666667 56.127824675219074 L 433.3333333333333 53.45354602940421 L 450.0 51.97678169459425 L 466.6666666666667 56.49554737703835 L 483.33333333333337 50.0 L 499.99999999999994 56.42318002325442 L 516.6666666666666 52.23558032766056 L 533.3333333333333 53.073065532799205 L 550.0 56.458725230202504 L 566.6666666666666 50.548063830809724 L 583.3333333333334 56.30178121132883 L 600.0000000000001 52.977248573073894 L 616.6666666666666 52.20981082133005 L 633.3333333333334 56.0903922397074 L 650.0 50.93232594961029 L 666.6666666666666 55.5615806469516 L 683.3333333333334 53.308252661788515 L 700.0 52.58856496909266 L 716.6666666666667 56.264649208382195 L 733.3333333333334 50.57987424354479 L 750.0 55.74416933089344" fill="none" stroke="blue" stroke-width="2"/>
<path d="M 50.0 182.44078120508223 L 66.66666666666667 182.92235745172928 L 83.33333333333334 182.83309795903168 L 100.0 182.69368624306034 L 116.66666666666667 182.98623333973734 L 133.33333333333334 182.52413898431737 L 150.0 182.84206456107603 L 166.66666666666666 182.9325459999483 L 183.33333333333334 182.6947554606235 L 200.0 183.02106203993756 L 216.66666666666669 182.5085383790206 L 233.33333333333334 182.8421232821338 L 250.0 182.90823652978324 L 266.6666666666667 182.61958486488018 L 283.3333333333333 183.07094583129975 L 300.0 182.4559489717233 L 316.6666666666667 182.86972999626815 L 333.3333333333333 182.92146380735284 L 350.0 182.66763542062165 L 366.6666666666667 183.0129085969394 L 383.33333333333337 182.53919739142742 L 400.0 182.79893634432057 L 416.6666666666667 182.972615577947 L 433.3333333333333 182.60724439647103 L 450.0 183.10820199441318 L 466.6666666666667 182.4361450940421 L 483.33333333333337 182.8736820882642 L 499.99999999999994 182.9043398571474 L 516.6666666666666 182.62747060963113 L 533.3333333333333 183.0293367301633 L 550.0 182.53394263263328 L 566.6666666666666 182.78358928328575 L 583.3333333333334 183.0076775830957 L 600.0000000000001 182.6160072895666 L 616.6666666666666 183.0822195298358 L 633.3333333333334 182.49758201853336 L 650.0 182.80376326151864 L 666.6666666666666 182.9674787189174 L 683.3333333333334 182.55968353754412 L 700.0 183.1066509431669 L 716.6666666666667 182.4746595956418 L 733.3333333333334 182.80432931128001 L 750.0 183.00024707321097" fill="none" stroke="red" stroke-width="2"/>
<text x="600" y="80" fill="blue" font-size="12">Left (Low-pass)</text>
<text x="600" y="100" fill="red" font-size="12">Right (High-pass)</text>
</svg>