<svg width="800" height="400" xmlns="http://www.w3.org/2000/svg">
<rect width="100%" height="100%" fill="white"/>
<text x="400.0" y="30" text-anchor="middle" font-weight="bold">Signal Reconstruction (Time Domain)</text>
<line x1="50" y1="350" x2="750" y2="350" stroke="black" stroke-width="2"/>
<line x1="50" y1="50" x2="50" y2="350" stroke="black" stroke-width="2"/>
<path d="M 50.0 208.58315313544327 L 61.111111111111114 112.10816409853172 L 72.22222222222223 159.6231343847817 L 83.33333333333333 118.69934297077012 L 94.44444444444444 112.10816409853172 L 105.55555555555554 249.5069445494549 L 116.66666666666666 264.13435075834326 L 127.77777777777777 257.54317188610486 L 138.88888888888889 339.39066020474513 L 150.0 264.13435075834326 L 161.1111111111111 167.65936172143168 L 172.22222222222223 193.95565241717196 L 183.33333333333331 118.69934297077012 L 194.44444444444443 77.7756460661414 L 205.55555555555554 193.95565241717196 L 216.66666666666666 208.58315313544327 L 227.77777777777777 223.21065385371458 L 238.88888888888889 339.39066020474513 L 250.0 298.46696330011645 L 261.1111111111111 223.21065385371458 L 272.2222222222222 249.5069445494549 L 283.3333333333333 153.03195551254328 L 294.44444444444446 77.7756460661414 L 305.55555555555554 159.6231343847817 L 316.66666666666663 153.03195551254328 L 327.77777777777777 167.65936172143168 L 338.88888888888886 305.05814217235485 L 350.0 298.46696330011645 L 361.1111111111111 257.54317188610486 L 372.22222222222223 305.05814217235485 L 383.3333333333333 208.58315313544327 L 394.4444444444444 112.10816409853172 L 405.55555555555554 159.6231343847817 L 416.6666666666667 118.69934297077012 L 427.77777777777777 112.10816409853172 L 438.8888888888889 249.5069445494549 L 450.0 264.13435075834326 L 461.11111111111114 257.54317188610486 L 472.2222222222222 339.39066020474513 L 483.33333333333337 264.13435075834326 L 494.4444444444444 167.65936172143168 L 505.55555555555554 193.95565241717196 L 516.6666666666666 118.69934297077012 L 527.7777777777778 77.7756460661414 L 538.8888888888889 193.95565241717196 L 550.0 208.58315313544327 L 561.1111111111111 223.21065385371458 L 572.2222222222223 339.39066020474513 L 583.3333333333333 298.46696330011645 L 594.4444444444445 223.21065385371458 L 605.5555555555555 249.5069445494549 L 616.6666666666666 153.03195551254328 L 627.7777777777777 77.7756460661414 L 638.8888888888889 159.6231343847817 L 650.0 153.03195551254328 L 661.1111111111111 167.65936172143168 L 672.2222222222222 305.05814217235485 L 683.3333333333334 298.46696330011645 L 694.4444444444445 257.54317188610486 L 705.5555555555555 305.05814217235485 L 716.6666666666666 208.58315313544327 L 727.7777777777778 112.10816409853172 L 738.8888888888888 159.6231343847817 L 750.0 118.69934297077012" fill="none" stroke="green" stroke-width="2" stroke-opacity="0.3"/>
<path d="M 127.77777777777777 180.80750706930183 L 138.88888888888889 146.47498903691155 L 150.0 131.84758282802312 L 161.1111111111111 238.8976047542 L 172.22222222222223 122.71750389378653 L 183.33333333333331 223.21055934433167 L 194.44444444444443 298.46686879073354 L 205.55555555555554 253.5250109630884 L 216.66666666666666 350.0 L 227.77777777777777 221.7312984833134 L 238.88888888888889 139.88381016467312 L 250.0 105.55119762289999 L 261.1111111111111 90.92379141401159 L 272.2222222222222 197.9738133401884 L 283.3333333333333 204.56499221242683 L 294.44444444444446 305.05814217235485 L 305.55555555555554 257.54317188610486 L 316.66666666666663 212.6013140584597 L 327.77777777777777 309.0763030953713 L 338.88888888888886 180.80750706930183 L 350.0 221.7312984833134 L 361.1111111111111 187.39878045092317 L 372.22222222222223 50.0 L 383.3333333333333 157.0500219261768 L 394.4444444444444 163.64129530779812 L 405.55555555555554 264.13435075834326 L 416.6666666666667 339.39066020474513 L 427.77777777777777 294.4488023771 L 438.8888888888889 268.1525116813597 L 450.0 139.88381016467312 L 461.11111111111114 180.80750706930183 L 472.2222222222222 146.47498903691155 L 483.33333333333337 131.84758282802312 L 494.4444444444444 238.8976047542 L 505.55555555555554 122.71750389378653 L 516.6666666666666 223.21055934433167 L 527.7777777777778 298.46686879073354 L 538.8888888888889 253.5250109630884 L 550.0 350.0 L 561.1111111111111 221.7312984833134 L 572.2222222222223 139.88381016467312 L 583.3333333333333 105.55119762289999 L 594.4444444444445 90.92379141401159 L 605.5555555555555 197.9738133401884 L 616.6666666666666 204.56499221242683 L 627.7777777777777 305.05814217235485 L 638.8888888888889 257.54317188610486 L 650.0 212.6013140584597 L 661.1111111111111 309.0763030953713 L 672.2222222222222 180.80750706930183 L 683.3333333333334 221.7312984833134 L 694.4444444444445 118.69934297077012 L 705.5555555555555 118.69934297077012 L 716.6666666666666 160.34565861698746 L 727.7777777777778 160.34565861698746 L 738.8888888888888 301.7625054815442 L 750.0 301.7625054815442" fill="none" stroke="purple" stroke-width="2" stroke-dasharray="3,3"/>
<text x="600" y="50" fill="green">Original</text>
<text x="600" y="70" fill="purple">Reconstructed (dashed, delay corrected)</text>
</svg>