<svg width="800" height="400" xmlns="http://www.w3.org/2000/svg">
<rect width="100%" height="100%" fill="white"/>
<text x="400.0" y="30" text-anchor="middle" font-weight="bold">Signal Reconstruction (Time Domain)</text>
<line x1="50" y1="350" x2="750" y2="350" stroke="black" stroke-width="2"/>
<line x1="50" y1="50" x2="50" y2="350" stroke="black" stroke-width="2"/>
<path d="M 50.0 200.0 L 61.111111111111114 89.36989413100065 L 72.22222222222223 143.85641178293858 L 83.33333333333333 96.92815170341945 L 94.44444444444444 89.36989413100065 L 105.55555555555554 246.92826007951913 L 116.66666666666666 263.70184578948016 L 127.77777777777777 256.1435882170614 L 138.88888888888889 350.0 L 150.0 263.70184578948016 L 161.1111111111111 153.07173992048084 L 172.22222222222223 183.22630591393926 L 183.33333333333331 96.92815170341945 L 194.44444444444443 50.0 L 205.55555555555554 183.22630591393926 L 216.66666666666666 200.0 L 227.77777777777777 216.77369408606074 L 238.88888888888889 350.0 L 250.0 303.0718482965806 L 261.1111111111111 216.77369408606074 L 272.2222222222222 246.92826007951913 L 283.3333333333333 136.29815421051987 L 294.44444444444446 50.0 L 305.55555555555554 143.85641178293858 L 316.66666666666663 136.29815421051987 L 327.77777777777777 153.07173992048084 L 338.88888888888886 310.6301058689993 L 350.0 303.0718482965806 L 361.1111111111111 256.1435882170614 L 372.22222222222223 310.6301058689993 L 383.3333333333333 200.0 L 394.4444444444444 89.36989413100065 L 405.55555555555554 143.85641178293858 L 416.6666666666667 96.92815170341945 L 427.77777777777777 89.36989413100065 L 438.8888888888889 246.92826007951913 L 450.0 263.70184578948016 L 461.11111111111114 256.1435882170614 L 472.2222222222222 350.0 L 483.33333333333337 263.70184578948016 L 494.4444444444444 153.07173992048084 L 505.55555555555554 183.22630591393926 L 516.6666666666666 96.92815170341945 L 527.7777777777778 50.0 L 538.8888888888889 183.22630591393926 L 550.0 200.0 L 561.1111111111111 216.77369408606074 L 572.2222222222223 350.0 L 583.3333333333333 303.0718482965806 L 594.4444444444445 216.77369408606074 L 605.5555555555555 246.92826007951913 L 616.6666666666666 136.29815421051987 L 627.7777777777777 50.0 L 638.8888888888889 143.85641178293858 L 650.0 136.29815421051987 L 661.1111111111111 153.07173992048084 L 672.2222222222222 310.6301058689993 L 683.3333333333334 303.0718482965806 L 694.4444444444445 256.1435882170614 L 705.5555555555555 310.6301058689993 L 716.6666666666666 200.0 L 727.7777777777778 89.36989413100065 L 738.8888888888888 143.85641178293858 L 750.0 96.92815170341945" fill="none" stroke="green" stroke-width="2" stroke-opacity="0.3"/>
<path d="M 127.77777777777777 256.1435882170614 L 138.88888888888889 350.0 L 150.0 263.70184578948016 L 161.1111111111111 153.07173992048084 L 172.22222222222223 183.22630591393926 L 183.33333333333331 96.92815170341945 L 194.44444444444443 50.0 L 205.55555555555554 183.22630591393926 L 216.66666666666666 200.0 L 227.77777777777777 216.77369408606074 L 238.88888888888889 350.0 L 250.0 303.0718482965806 L 261.1111111111111 216.77369408606074 L 272.2222222222222 246.92826007951913 L 283.3333333333333 136.29815421051987 L 294.44444444444446 50.0 L 305.55555555555554 143.85641178293858 L 316.66666666666663 136.29815421051987 L 327.77777777777777 153.07173992048084 L 338.88888888888886 310.6301058689993 L 350.0 303.0718482965806 L 361.1111111111111 256.1435882170614 L 372.22222222222223 310.6301058689993 L 383.3333333333333 200.0 L 394.4444444444444 89.36989413100065 L 405.55555555555554 143.85641178293858 L 416.6666666666667 96.92815170341945 L 427.77777777777777 89.36989413100065 L 438.8888888888889 246.92826007951913 L 450.0 263.70184578948016 L 461.11111111111114 256.1435882170614 L 472.2222222222222 350.0 L 483.33333333333337 263.70184578948016 L 494.4444444444444 153.07173992048084 L 505.55555555555554 183.22630591393926 L 516.6666666666666 96.92815170341945 L 527.7777777777778 50.0 L 538.8888888888889 183.22630591393926 L 550.0 200.0 L 561.1111111111111 216.77369408606074 L 572.2222222222223 350.0 L 583.3333333333333 303.0718482965806 L 594.4444444444445 216.77369408606074 L 605.5555555555555 246.92826007951913 L 616.6666666666666 136.29815421051987 L 627.7777777777777 50.0 L 638.8888888888889 143.85641178293858 L 650.0 136.29815421051987 L 661.1111111111111 153.07173992048084 L 672.2222222222222 310.6301058689993 L 683.3333333333334 303.0718482965806 L 694.4444444444445 172.75674117403105 L 705.5555555555555 227.24325882596892 L 716.6666666666666 255.31505293449965 L 727.7777777777778 144.68494706550035 L 738.8888888888888 223.4640758517097 L 750.0 176.5359241482903" fill="none" stroke="purple" stroke-width="2" stroke-dasharray="3,3"/>
<text x="600" y="50" fill="green">Original</text>
<text x="600" y="70" fill="purple">Reconstructed (dashed, delay corrected)</text>
</svg>