<svg width="800" height="400" xmlns="http://www.w3.org/2000/svg">
<rect width="100%" height="100%" fill="white"/>
<text x="400.0" y="30" text-anchor="middle" font-weight="bold">Signal Reconstruction (Time Domain)</text>
<line x1="50" y1="350" x2="750" y2="350" stroke="black" stroke-width="2"/>
<line x1="50" y1="50" x2="50" y2="350" stroke="black" stroke-width="2"/>
<path d="M 50.0 208.58305321819998 L 61.111111111111114 112.10812496652792 L 72.22222222222223 159.6230653153934 L 83.33333333333333 118.69929968591401 L 94.44444444444444 112.10812496652792 L 105.55555555555554 249.5068188476793 L 116.66666666666666 264.13421584039264 L 127.77777777777777 257.5430411210066 L 138.88888888888889 339.3904778706419 L 150.0 264.13421584039264 L 161.1111111111111 167.65928758872062 L 172.22222222222223 193.9555617161633 L 183.33333333333331 118.69929968591401 L 194.44444444444443 77.77562856575798 L 205.55555555555554 193.9555617161633 L 216.66666666666666 208.58305321819998 L 227.77777777777777 223.21054472023664 L 238.88888888888889 339.3904778706419 L 250.0 298.46680675048594 L 261.1111111111111 223.21054472023664 L 272.2222222222222 249.5068188476793 L 283.3333333333333 153.03189059600726 L 294.44444444444446 77.77562856575798 L 305.55555555555554 159.6230653153934 L 316.66666666666663 153.03189059600726 L 327.77777777777777 167.65928758872062 L 338.88888888888886 305.057981469872 L 350.0 298.46680675048594 L 361.1111111111111 257.5430411210066 L 372.22222222222223 305.057981469872 L 383.3333333333333 208.58305321819998 L 394.4444444444444 112.10812496652792 L 405.55555555555554 159.6230653153934 L 416.6666666666667 118.69929968591401 L 427.77777777777777 112.10812496652792 L 438.8888888888889 249.5068188476793 L 450.0 264.13421584039264 L 461.11111111111114 257.5430411210066 L 472.2222222222222 339.3904778706419 L 483.33333333333337 264.13421584039264 L 494.4444444444444 167.65928758872062 L 505.55555555555554 193.9555617161633 L 516.6666666666666 118.69929968591401 L 527.7777777777778 77.77562856575798 L 538.8888888888889 193.9555617161633 L 550.0 208.58305321819998 L 561.1111111111111 223.21054472023664 L 572.2222222222223 339.3904778706419 L 583.3333333333333 298.46680675048594 L 594.4444444444445 223.21054472023664 L 605.5555555555555 249.5068188476793 L 616.6666666666666 153.03189059600726 L 627.7777777777777 77.77562856575798 L 638.8888888888889 159.6230653153934 L 650.0 153.03189059600726 L 661.1111111111111 167.65928758872062 L 672.2222222222222 305.057981469872 L 683.3333333333334 298.46680675048594 L 694.4444444444445 257.5430411210066 L 705.5555555555555 305.057981469872 L 716.6666666666666 208.58305321819998 L 727.7777777777778 112.10812496652792 L 738.8888888888888 159.6230653153934 L 750.0 118.69929968591401" fill="none" stroke="green" stroke-width="2" stroke-opacity="0.3"/>
<path d="M 127.77777777777777 180.80761367108863 L 138.88888888888889 146.47502276099536 L 150.0 131.84762576828203 L 161.1111111111111 238.89729671832126 L 172.22222222222223 122.71726905859265 L 183.33333333333331 223.21026119226661 L 194.44444444444443 298.4666177318392 L 205.55555555555554 253.5249772390046 L 216.66666666666666 350.0 L 227.77777777777777 221.7315683192147 L 238.88888888888889 139.88375353228594 L 250.0 105.55116262219269 L 261.1111111111111 90.9237656294793 L 272.2222222222222 197.97353108884192 L 283.3333333333333 204.564989336198 L 294.44444444444446 305.0578869605487 L 305.55555555555554 257.5427575930365 L 316.66666666666663 212.60121160952528 L 327.77777777777777 309.0761398611973 L 338.88888888888886 180.80770818041202 L 350.0 221.73147380989136 L 361.1111111111111 187.39878839047472 L 372.22222222222223 50.0 L 383.3333333333333 157.04967095003923 L 394.4444444444444 163.64112919739534 L 405.55555555555554 264.134026821746 L 416.6666666666667 339.3904778706419 L 427.77777777777777 294.4488373778073 L 438.8888888888889 268.1522797223946 L 450.0 139.88394255093266 L 461.11111111111114 180.80761367108863 L 472.2222222222222 146.47502276099536 L 483.33333333333337 131.84762576828203 L 494.4444444444444 238.89729671832126 L 505.55555555555554 122.71726905859265 L 516.6666666666666 223.21026119226661 L 527.7777777777778 298.4666177318392 L 538.8888888888889 253.5249772390046 L 550.0 350.0 L 561.1111111111111 221.7315683192147 L 572.2222222222223 139.88375353228594 L 583.3333333333333 105.55116262219269 L 594.4444444444445 90.9237656294793 L 605.5555555555555 197.97353108884192 L 616.6666666666666 204.564989336198 L 627.7777777777777 305.0578869605487 L 638.8888888888889 257.5427575930365 L 650.0 212.60121160952528 L 661.1111111111111 309.0761398611973 L 672.2222222222222 180.80770818041202 L 683.3333333333334 221.73147380989136 L 694.4444444444445 118.69939419523737 L 705.5555555555555 118.69929968591401 L 716.6666666666666 160.3454000737173 L 727.7777777777778 160.34549458304062 L 738.8888888888888 301.7623468555173 L 750.0 301.7623468555173" fill="none" stroke="purple" stroke-width="2" stroke-dasharray="3,3"/>
<text x="600" y="50" fill="green">Original</text>
<text x="600" y="70" fill="purple">Reconstructed (dashed, delay corrected)</text>
</svg>