<svg width="800" height="400" xmlns="http://www.w3.org/2000/svg" font-family="Arial, sans-serif">
<rect width="100%" height="100%" fill="white"/>
<text x="400.0" y="30" text-anchor="middle" font-weight="bold" font-size="16">Frequency Sweep Analysis (RMS Amplitude)</text>
<line x1="50" y1="350" x2="750" y2="350" stroke="black" stroke-width="2"/>
<line x1="50" y1="50" x2="50" y2="350" stroke="black" stroke-width="2"/>
<line x1="50.0" y1="50" x2="50.0" y2="350" stroke="#eee" stroke-width="1"/>
<text x="50.0" y="370" text-anchor="middle" font-size="10">0.00s</text>
<line x1="120.0" y1="50" x2="120.0" y2="350" stroke="#eee" stroke-width="1"/>
<text x="120.0" y="370" text-anchor="middle" font-size="10">0.10s</text>
<line x1="190.0" y1="50" x2="190.0" y2="350" stroke="#eee" stroke-width="1"/>
<text x="190.0" y="370" text-anchor="middle" font-size="10">0.20s</text>
<line x1="260.0" y1="50" x2="260.0" y2="350" stroke="#eee" stroke-width="1"/>
<text x="260.0" y="370" text-anchor="middle" font-size="10">0.30s</text>
<line x1="330.0" y1="50" x2="330.0" y2="350" stroke="#eee" stroke-width="1"/>
<text x="330.0" y="370" text-anchor="middle" font-size="10">0.39s</text>
<line x1="400.0" y1="50" x2="400.0" y2="350" stroke="#eee" stroke-width="1"/>
<text x="400.0" y="370" text-anchor="middle" font-size="10">0.49s</text>
<line x1="470.0" y1="50" x2="470.0" y2="350" stroke="#eee" stroke-width="1"/>
<text x="470.0" y="370" text-anchor="middle" font-size="10">0.59s</text>
<line x1="540.0" y1="50" x2="540.0" y2="350" stroke="#eee" stroke-width="1"/>
<text x="540.0" y="370" text-anchor="middle" font-size="10">0.69s</text>
<line x1="610.0" y1="50" x2="610.0" y2="350" stroke="#eee" stroke-width="1"/>
<text x="610.0" y="370" text-anchor="middle" font-size="10">0.79s</text>
<line x1="680.0" y1="50" x2="680.0" y2="350" stroke="#eee" stroke-width="1"/>
<text x="680.0" y="370" text-anchor="middle" font-size="10">0.89s</text>
<line x1="750.0" y1="50" x2="750.0" y2="350" stroke="#eee" stroke-width="1"/>
<text x="750.0" y="370" text-anchor="middle" font-size="10">0.99s</text>
<path d="M 50.0 105.88422145523262 L 58.23529411764706 91.81134255149311 L 66.47058823529412 84.06636928251635 L 74.70588235294117 144.79375535503883 L 82.94117647058823 50.0 L 91.1764705882353 110.09425528970775 L 99.41176470588235 131.21953861617948 L 107.64705882352942 99.73058547229996 L 115.88235294117646 90.38460213062729 L 124.11764705882352 96.16158036108277 L 132.3529411764706 101.8161558125889 L 140.58823529411765 93.86602413600167 L 148.8235294117647 75.04388632583749 L 157.05882352941177 108.31669196527332 L 165.29411764705884 99.78905041106509 L 173.52941176470586 102.66088976371788 L 181.76470588235293 81.99821390673611 L 190.0 97.20198156331747 L 198.23529411764704 98.4259030984719 L 206.47058823529412 106.78042906056564 L 214.7058823529412 103.69446347380304 L 222.94117647058823 92.3344770690536 L 231.1764705882353 91.51603881952798 L 239.41176470588235 99.52251665640804 L 247.64705882352942 108.40537475215359 L 255.88235294117646 86.5659042048892 L 264.11764705882354 98.83806205560444 L 272.3529411764706 98.77932512441109 L 280.5882352941177 103.17757138447556 L 288.82352941176475 99.0133941247596 L 297.0588235294117 90.37477669166702 L 305.2941176470588 100.84976845966193 L 313.52941176470586 95.37279748966722 L 321.7647058823529 97.37505152104117 L 330.0 102.44532286301947 L 338.2352941176471 85.3768150750887 L 346.4705882352941 96.18849939569719 L 354.70588235294116 99.15885588433204 L 362.94117647058823 98.43175553095313 L 371.1764705882353 97.91061419255257 L 379.4117647058824 98.18237755199556 L 387.6470588235294 98.13238514438575 L 395.88235294117646 98.58113446218994 L 404.11764705882354 99.17547498806715 L 412.3529411764706 104.86266346546569 L 420.5882352941176 97.23629568269098 L 428.8235294117647 99.14124228465559 L 437.0588235294117 98.13419352365014 L 445.29411764705884 94.76741294232102 L 453.52941176470586 96.67332483179814 L 461.7647058823529 98.98722956932227 L 470.0 97.93729227655615 L 478.2352941176471 97.76814804935583 L 486.47058823529403 99.92359484874345 L 494.70588235294116 98.5514876543418 L 502.9411764705882 104.76154016726028 L 511.1764705882353 99.59512083435703 L 519.4117647058824 103.27496835150134 L 527.6470588235295 101.79291473097237 L 535.8823529411766 99.95332153552107 L 544.1176470588234 101.21360636065393 L 552.3529411764706 101.12772579878433 L 560.5882352941176 103.83058179412293 L 568.8235294117648 104.70125503243042 L 577.0588235294117 105.44780103492621 L 585.2941176470589 107.03580758935746 L 593.5294117647059 109.11982349942227 L 601.7647058823529 111.21882961046242 L 610.0 111.85124076460798 L 618.2352941176471 114.42644716021363 L 626.4705882352941 117.47136564884477 L 634.7058823529412 122.40371321620682 L 642.9411764705882 126.33153695251369 L 651.1764705882354 130.96541078957196 L 659.4117647058823 136.0035258169445 L 667.6470588235294 140.65222958652058 L 675.8823529411765 148.09770981414113 L 684.1176470588235 162.97762678759204 L 692.3529411764706 165.83096358100258 L 700.5882352941177 180.1289607641062 L 708.8235294117648 192.8840511486001 L 717.0588235294117 210.88472223721826 L 725.2941176470588 227.46869986864823 L 733.5294117647059 248.29605867511276 L 741.7647058823529 269.9121844938005 L 750.0 295.3000258842272" fill="none" stroke="blue" stroke-width="2"/>
<path d="M 50.0 349.6085082723355 L 58.23529411764706 349.57948440088 L 66.47058823529412 349.58076963248067 L 74.70588235294117 349.4205531465367 L 82.94117647058823 349.58751404064174 L 91.1764705882353 349.4027609236252 L 99.41176470588235 349.2930601414749 L 107.64705882352942 349.29789961416975 L 115.88235294117646 349.2699164591963 L 124.11764705882352 349.1934976540066 L 132.3529411764706 349.1078972849453 L 140.58823529411765 349.0649857855104 L 148.8235294117647 349.07687221226183 L 157.05882352941177 348.8415409332617 L 165.29411764705884 348.7956246803879 L 173.52941176470586 348.6590164516499 L 181.76470588235293 348.68194481362315 L 190.0 348.4838982579174 L 198.23529411764704 348.34333627101273 L 206.47058823529412 348.13920826285084 L 214.7058823529412 348.014790011933 L 222.94117647058823 347.91536809258787 L 231.1764705882353 347.7736624462843 L 239.41176470588235 347.50644704542356 L 247.64705882352942 347.2090692019133 L 255.88235294117646 347.21240717308325 L 264.11764705882354 346.84467083369714 L 272.3529411764706 346.55869636314384 L 280.5882352941177 346.2428226623579 L 288.82352941176475 345.95954433737774 L 297.0588235294117 345.7431116221216 L 305.2941176470588 345.2553287230583 L 313.52941176470586 344.8996405661709 L 321.7647058823529 344.4819302563023 L 330.0 343.9011316909094 L 338.2352941176471 343.4894891984801 L 346.4705882352941 343.05434447721774 L 354.70588235294116 342.24178448200786 L 362.94117647058823 341.7261971224544 L 371.1764705882353 341.0391229350092 L 379.4117647058824 340.26805623086335 L 387.6470588235294 339.4600137244625 L 395.88235294117646 338.595197933475 L 404.11764705882354 337.7142044872841 L 412.3529411764706 336.5825296347759 L 420.5882352941176 335.5488866466584 L 428.8235294117647 334.1716480816425 L 437.0588235294117 332.97072397856857 L 445.29411764705884 331.65101972036143 L 453.52941176470586 329.9732321778319 L 461.7647058823529 328.2889347031857 L 470.0 326.57547045788806 L 478.2352941176471 324.5525949453704 L 486.47058823529403 322.4573392699398 L 494.70588235294116 320.2450716610213 L 502.9411764705882 317.77331460498954 L 511.1764705882353 314.9841956910007 L 519.4117647058824 312.17538017139236 L 527.6470588235295 308.8632347952896 L 535.8823529411766 305.5748363695545 L 544.1176470588234 302.05317873044515 L 552.3529411764706 297.85685696251323 L 560.5882352941176 293.7622105957386 L 568.8235294117648 289.0161218141018 L 577.0588235294117 284.0393189538962 L 585.2941176470589 278.6300658004249 L 593.5294117647059 272.950242063678 L 601.7647058823529 266.789396479979 L 610.0 259.9770807459452 L 618.2352941176471 252.78673513903672 L 626.4705882352941 245.15365936950724 L 634.7058823529412 236.7858846624423 L 642.9411764705882 228.41459746995127 L 651.1764705882354 218.7967122396354 L 659.4117647058823 208.8873827409837 L 667.6470588235294 198.6591782458844 L 675.8823529411765 188.5791547015366 L 684.1176470588235 175.3792500838056 L 692.3529411764706 167.32885051327187 L 700.5882352941177 152.97842178728916 L 708.8235294117648 141.67020142892568 L 717.0588235294117 129.35919440463204 L 725.2941176470588 118.37509051565189 L 733.5294117647059 107.886853089401 L 741.7647058823529 98.56252099806002 L 750.0 91.30119234289634" fill="none" stroke="red" stroke-width="2"/>
<text x="600" y="80" fill="blue" font-size="12">Left (Low-pass)</text>
<text x="600" y="100" fill="red" font-size="12">Right (High-pass)</text>
</svg>