<svg width="800" height="400" xmlns="http://www.w3.org/2000/svg" font-family="Arial, sans-serif">
<rect width="100%" height="100%" fill="white"/>
<text x="400.0" y="30" text-anchor="middle" font-weight="bold" font-size="16">Frequency Sweep Analysis (RMS Amplitude)</text>
<line x1="50" y1="350" x2="750" y2="350" stroke="black" stroke-width="2"/>
<line x1="50" y1="50" x2="50" y2="350" stroke="black" stroke-width="2"/>
<line x1="50.0" y1="50" x2="50.0" y2="350" stroke="#eee" stroke-width="1"/>
<text x="50.0" y="370" text-anchor="middle" font-size="10">0.00s</text>
<line x1="120.0" y1="50" x2="120.0" y2="350" stroke="#eee" stroke-width="1"/>
<text x="120.0" y="370" text-anchor="middle" font-size="10">0.10s</text>
<line x1="190.0" y1="50" x2="190.0" y2="350" stroke="#eee" stroke-width="1"/>
<text x="190.0" y="370" text-anchor="middle" font-size="10">0.20s</text>
<line x1="260.0" y1="50" x2="260.0" y2="350" stroke="#eee" stroke-width="1"/>
<text x="260.0" y="370" text-anchor="middle" font-size="10">0.29s</text>
<line x1="330.0" y1="50" x2="330.0" y2="350" stroke="#eee" stroke-width="1"/>
<text x="330.0" y="370" text-anchor="middle" font-size="10">0.39s</text>
<line x1="400.00000000000006" y1="50" x2="400.00000000000006" y2="350" stroke="#eee" stroke-width="1"/>
<text x="400.00000000000006" y="370" text-anchor="middle" font-size="10">0.49s</text>
<line x1="470.00000000000006" y1="50" x2="470.00000000000006" y2="350" stroke="#eee" stroke-width="1"/>
<text x="470.00000000000006" y="370" text-anchor="middle" font-size="10">0.59s</text>
<line x1="540.0" y1="50" x2="540.0" y2="350" stroke="#eee" stroke-width="1"/>
<text x="540.0" y="370" text-anchor="middle" font-size="10">0.68s</text>
<line x1="610.0" y1="50" x2="610.0" y2="350" stroke="#eee" stroke-width="1"/>
<text x="610.0" y="370" text-anchor="middle" font-size="10">0.78s</text>
<line x1="680.0" y1="50" x2="680.0" y2="350" stroke="#eee" stroke-width="1"/>
<text x="680.0" y="370" text-anchor="middle" font-size="10">0.88s</text>
<line x1="750.0000000000001" y1="50" x2="750.0000000000001" y2="350" stroke="#eee" stroke-width="1"/>
<text x="750.0000000000001" y="370" text-anchor="middle" font-size="10">0.98s</text>
<path d="M 50.0 72.49741823239702 L 66.66666666666667 87.66423548586846 L 83.33333333333334 50.0 L 100.0 90.38778407247639 L 116.66666666666667 66.43115807576089 L 133.33333333333334 71.45978543201318 L 150.0 64.09880631265764 L 166.66666666666666 75.22725488836244 L 183.33333333333334 62.26981141013937 L 200.0 76.71507973407245 L 216.66666666666669 71.61518859729733 L 233.33333333333334 68.89520772815024 L 250.0 70.8411448309459 L 266.6666666666667 72.5630900034734 L 283.3333333333333 75.07919705537046 L 300.0 68.97315081987512 L 316.6666666666667 69.87174485966096 L 333.3333333333333 66.99672335700552 L 350.0 71.30465687934401 L 366.6666666666667 71.85882448818938 L 383.33333333333337 71.8437262444258 L 400.0 72.63978211745899 L 416.6666666666667 75.00575257856968 L 433.3333333333333 72.37369488319769 L 450.0 69.15011283861384 L 466.6666666666667 72.1798573315462 L 483.33333333333337 72.60160038073991 L 499.99999999999994 75.68702703904012 L 516.6666666666666 75.45633477596789 L 533.3333333333333 74.8413414508745 L 550.0 75.17184984597878 L 566.6666666666666 78.59008630245938 L 583.3333333333334 80.77141930503728 L 600.0000000000001 85.10819884468549 L 616.6666666666666 88.38665565621238 L 633.3333333333334 95.88497608786864 L 650.0 105.50727457420791 L 666.6666666666666 116.19732404986482 L 683.3333333333334 135.06222975863895 L 700.0 154.32473429933975 L 716.6666666666667 186.1068497458374 L 733.3333333333334 225.6348200444579 L 750.0 274.2556093120001" fill="none" stroke="blue" stroke-width="2"/>
<path d="M 50.0 349.55128888137494 L 66.66666666666667 349.44143609453295 L 83.33333333333334 349.4331297486741 L 100.0 349.2218638453595 L 116.66666666666667 349.1503835841442 L 133.33333333333334 348.99071058179925 L 150.0 348.8431368731794 L 166.66666666666666 348.5923222916516 L 183.33333333333334 348.43104214099617 L 200.0 348.05424423553285 L 216.66666666666669 347.75179078980125 L 233.33333333333334 347.3893031016018 L 250.0 346.9193029697784 L 266.6666666666667 346.35363902073163 L 283.3333333333333 345.6909768838809 L 300.0 345.02166520398794 L 316.6666666666667 344.1315192375404 L 333.3333333333333 343.03285838695734 L 350.0 341.86751174147673 L 366.6666666666667 340.47472128151463 L 383.33333333333337 338.79609361831666 L 400.0 336.908007784718 L 416.6666666666667 334.5992082061934 L 433.3333333333333 331.8425136490021 L 450.0 328.7870456389187 L 466.6666666666667 325.05626268887204 L 483.33333333333337 320.713779439372 L 499.99999999999994 315.74392703101773 L 516.6666666666666 309.7445438135805 L 533.3333333333333 302.7142031761306 L 550.0 294.6775347255632 L 566.6666666666666 285.21220388257336 L 583.3333333333334 274.1014227607193 L 600.0000000000001 261.432083937967 L 616.6666666666666 246.5240504852761 L 633.3333333333334 229.4891711449793 L 650.0 210.29839778548066 L 666.6666666666666 188.39610909980877 L 683.3333333333334 164.28051738141812 L 700.0 140.16792400011727 L 716.6666666666667 113.00676816013413 L 733.3333333333334 88.3177182571223 L 750.0 68.25264755160907" fill="none" stroke="red" stroke-width="2"/>
<text x="600" y="80" fill="blue" font-size="12">Left (Low-pass)</text>
<text x="600" y="100" fill="red" font-size="12">Right (High-pass)</text>
</svg>