<svg width="800" height="400" xmlns="http://www.w3.org/2000/svg" font-family="Arial, sans-serif">
<rect width="100%" height="100%" fill="white"/>
<text x="400.0" y="30" text-anchor="middle" font-weight="bold" font-size="16">Frequency Sweep Analysis (RMS Amplitude)</text>
<line x1="50" y1="350" x2="750" y2="350" stroke="black" stroke-width="2"/>
<line x1="50" y1="50" x2="50" y2="350" stroke="black" stroke-width="2"/>
<line x1="50.0" y1="50" x2="50.0" y2="350" stroke="#eee" stroke-width="1"/>
<text x="50.0" y="370" text-anchor="middle" font-size="10">0.00s</text>
<line x1="120.0" y1="50" x2="120.0" y2="350" stroke="#eee" stroke-width="1"/>
<text x="120.0" y="370" text-anchor="middle" font-size="10">0.10s</text>
<line x1="190.0" y1="50" x2="190.0" y2="350" stroke="#eee" stroke-width="1"/>
<text x="190.0" y="370" text-anchor="middle" font-size="10">0.20s</text>
<line x1="260.0" y1="50" x2="260.0" y2="350" stroke="#eee" stroke-width="1"/>
<text x="260.0" y="370" text-anchor="middle" font-size="10">0.30s</text>
<line x1="330.0" y1="50" x2="330.0" y2="350" stroke="#eee" stroke-width="1"/>
<text x="330.0" y="370" text-anchor="middle" font-size="10">0.39s</text>
<line x1="400.0" y1="50" x2="400.0" y2="350" stroke="#eee" stroke-width="1"/>
<text x="400.0" y="370" text-anchor="middle" font-size="10">0.49s</text>
<line x1="470.0" y1="50" x2="470.0" y2="350" stroke="#eee" stroke-width="1"/>
<text x="470.0" y="370" text-anchor="middle" font-size="10">0.59s</text>
<line x1="540.0" y1="50" x2="540.0" y2="350" stroke="#eee" stroke-width="1"/>
<text x="540.0" y="370" text-anchor="middle" font-size="10">0.69s</text>
<line x1="610.0" y1="50" x2="610.0" y2="350" stroke="#eee" stroke-width="1"/>
<text x="610.0" y="370" text-anchor="middle" font-size="10">0.79s</text>
<line x1="680.0" y1="50" x2="680.0" y2="350" stroke="#eee" stroke-width="1"/>
<text x="680.0" y="370" text-anchor="middle" font-size="10">0.89s</text>
<line x1="750.0" y1="50" x2="750.0" y2="350" stroke="#eee" stroke-width="1"/>
<text x="750.0" y="370" text-anchor="middle" font-size="10">0.99s</text>
<path d="M 50.0 107.42274858746589 L 58.23529411764706 90.40344783462831 L 66.47058823529412 85.45173825412331 L 74.70588235294117 143.52823262893907 L 82.94117647058823 50.0 L 91.1764705882353 111.25143681971369 L 99.41176470588235 130.87908769738397 L 107.64705882352942 99.05386561692049 L 115.88235294117646 90.11438591047437 L 124.11764705882352 96.16254297463371 L 132.3529411764706 102.09579245012122 L 140.58823529411765 94.62151040343878 L 148.8235294117647 75.29455234420215 L 157.05882352941177 106.92532484743049 L 165.29411764705884 101.27529103716981 L 173.52941176470586 101.22256642814395 L 181.76470588235293 82.50662007752805 L 190.0 97.75947229453655 L 198.23529411764704 98.24942757974193 L 206.47058823529412 105.91447516706776 L 214.7058823529412 104.85957335020547 L 222.94117647058823 91.25529069413113 L 231.1764705882353 92.25948047707215 L 239.41176470588235 99.28220397289701 L 247.64705882352942 107.98371064168717 L 255.88235294117646 87.5647841785418 L 264.11764705882354 99.34313740711454 L 272.3529411764706 97.86236575733938 L 280.5882352941177 103.75442576000233 L 288.82352941176475 98.63410084715761 L 297.0588235294117 91.29293450091507 L 305.2941176470588 100.96391243951098 L 313.52941176470586 95.26375993887879 L 321.7647058823529 98.77004286785768 L 330.0 99.75466368728132 L 338.2352941176471 97.80297942214352 L 346.4705882352941 95.91331505233578 L 354.70588235294116 100.5186042492841 L 362.94117647058823 99.03532732523468 L 371.1764705882353 97.75457037794243 L 379.4117647058824 97.70425921708704 L 387.6470588235294 97.57164798811016 L 395.88235294117646 98.0015221485553 L 404.11764705882354 97.81026887419387 L 412.3529411764706 96.03214885584902 L 420.5882352941176 98.26434630403367 L 428.8235294117647 99.02227385533118 L 437.0588235294117 97.94014083202006 L 445.29411764705884 98.19765567968284 L 453.52941176470586 99.79469061895699 L 461.7647058823529 97.2050395091592 L 470.0 98.72203736424379 L 478.2352941176471 99.42228521604758 L 486.47058823529403 98.762014756024 L 494.70588235294116 99.61873823824692 L 502.9411764705882 100.25287274642918 L 511.1764705882353 99.70459461249183 L 519.4117647058824 100.46472548356815 L 527.6470588235295 100.06202906298145 L 535.8823529411766 101.59389137087118 L 544.1176470588234 101.92390031272552 L 552.3529411764706 103.07304186960255 L 560.5882352941176 103.26375481717929 L 568.8235294117648 104.25979169637 L 577.0588235294117 105.8971643064636 L 585.2941176470589 107.18112572357373 L 593.5294117647059 108.66355322215955 L 601.7647058823529 110.40816972666866 L 610.0 112.80005341897339 L 618.2352941176471 115.0909500431647 L 626.4705882352941 118.1706633704164 L 634.7058823529412 121.97657165185586 L 642.9411764705882 125.78256146214366 L 651.1764705882354 130.87673161027445 L 659.4117647058823 136.19265519555 L 667.6470588235294 142.4799102182585 L 675.8823529411765 150.9899868076295 L 684.1176470588235 159.6993309728025 L 692.3529411764706 167.86066952261297 L 700.5882352941177 179.7642311796416 L 708.8235294117648 194.40971036001073 L 717.0588235294117 209.7459737082929 L 725.2941176470588 227.50504256141213 L 733.5294117647059 247.27971793021442 L 741.7647058823529 269.99536935719726 L 750.0 295.0530410784682" fill="none" stroke="blue" stroke-width="2"/>
<path d="M 50.0 349.64713551337013 L 58.23529411764706 349.61649869353033 L 66.47058823529412 349.62237170518864 L 74.70588235294117 349.4731738085942 L 82.94117647058823 349.6255089966552 L 91.1764705882353 349.4608419990429 L 99.41176470588235 349.35879532810424 L 107.64705882352942 349.36180464608043 L 115.88235294117646 349.3372077717259 L 124.11764705882352 349.26866706754515 L 132.3529411764706 349.19183989395447 L 140.58823529411765 349.1549125694289 L 148.8235294117647 349.1639311006371 L 157.05882352941177 348.94460091133107 L 165.29411764705884 348.9145496484883 L 173.52941176470586 348.777992762933 L 181.76470588235293 348.80658170648405 L 190.0 348.62843698420835 L 198.23529411764704 348.4967308801123 L 206.47058823529412 348.3078736453047 L 214.7058823529412 348.2088178957955 L 222.94117647058823 348.09985820771027 L 231.1764705882353 347.9861266089827 L 239.41176470588235 347.7366322262514 L 247.64705882352942 347.46825628164703 L 255.88235294117646 347.479294684175 L 264.11764705882354 347.14650970321276 L 272.3529411764706 346.8670828189483 L 280.5882352941177 346.60868244207586 L 288.82352941176475 346.3340937956383 L 297.0588235294117 346.14479840605327 L 305.2941176470588 345.7131902550708 L 313.52941176470586 345.3571746394571 L 321.7647058823529 345.0462692070279 L 330.0 344.3639621657982 L 338.2352941176471 344.35382524475096 L 346.4705882352941 343.60790210787104 L 354.70588235294116 343.0313007866822 L 362.94117647058823 342.5064347539091 L 371.1764705882353 341.87694867370897 L 379.4117647058824 341.17286745564456 L 387.6470588235294 340.4299708450993 L 395.88235294117646 339.65192418625696 L 404.11764705882354 338.9441129020938 L 412.3529411764706 337.79142016872777 L 420.5882352941176 336.8401429650353 L 428.8235294117647 335.70391747292126 L 437.0588235294117 334.5185636704089 L 445.29411764705884 333.40804748103113 L 453.52941176470586 332.21710296232874 L 461.7647058823529 330.3618503284652 L 470.0 328.6672674795643 L 478.2352941176471 326.5760110002318 L 486.47058823529403 325.01488255093756 L 494.70588235294116 322.88088944728094 L 502.9411764705882 321.2381689149208 L 511.1764705882353 318.2544704028032 L 519.4117647058824 316.12303887580964 L 527.6470588235295 312.88932385340155 L 535.8823529411766 309.275247896417 L 544.1176470588234 306.4327900576893 L 552.3529411764706 302.7555774389298 L 560.5882352941176 298.8695203327302 L 568.8235294117648 294.62158835680634 L 577.0588235294117 290.2935973021911 L 585.2941176470589 285.33584401001815 L 593.5294117647059 280.0281782739196 L 601.7647058823529 274.5075525310689 L 610.0 268.4513737922309 L 618.2352941176471 261.33175962025985 L 626.4705882352941 254.88020078012974 L 634.7058823529412 247.21685588947705 L 642.9411764705882 239.41011943252357 L 651.1764705882354 231.05362142504154 L 659.4117647058823 222.09798916837144 L 667.6470588235294 211.8719952602125 L 675.8823529411765 201.74503396018275 L 684.1176470588235 192.9173138190829 L 692.3529411764706 184.7904183551699 L 700.5882352941177 167.97416992822554 L 708.8235294117648 159.6956405978714 L 717.0588235294117 149.65205489927567 L 725.2941176470588 140.1133611267797 L 733.5294117647059 132.45127744035483 L 741.7647058823529 122.34981246249123 L 750.0 115.23642010870526" fill="none" stroke="red" stroke-width="2"/>
<text x="600" y="80" fill="blue" font-size="12">Left (Low-pass)</text>
<text x="600" y="100" fill="red" font-size="12">Right (High-pass)</text>
</svg>